<svg width="34" height="35" viewBox="0 0 34 35" fill="none" xmlns="http://www.w3.org/2000/svg">
<path d="M16.9987 0.900391C7.83203 0.900391 0.332031 8.38372 0.332031 17.6004C0.332031 25.9338 6.43203 32.8504 14.3987 34.1004V22.4338H10.1654V17.6004H14.3987V13.9171C14.3987 9.73372 16.882 7.43372 20.6987 7.43372C22.5154 7.43372 24.4154 7.75039 24.4154 7.75039V11.8671H22.3154C20.2487 11.8671 19.5987 13.1504 19.5987 14.4671V17.6004H24.232L23.482 22.4338H19.5987V34.1004C23.526 33.4801 27.1024 31.4763 29.6819 28.4504C32.2614 25.4248 33.6744 21.5764 33.6654 17.6004C33.6654 8.38372 26.1654 0.900391 16.9987 0.900391Z" fill="#7E719E"/>
</svg>
