<svg width="30" height="31" viewBox="0 0 30 31" fill="none" xmlns="http://www.w3.org/2000/svg">
<path fill-rule="evenodd" clip-rule="evenodd" d="M19.9505 1.07284C16.6943 0.309054 13.3057 0.309054 10.0496 1.07284C5.34737 2.17582 1.67584 5.84735 0.572838 10.5496C-0.190946 13.8057 -0.190946 17.1943 0.572838 20.4505C1.67584 25.1527 5.34737 28.8242 10.0496 29.9272C13.3057 30.691 16.6943 30.691 19.9505 29.9272C24.6527 28.8242 28.3242 25.1527 29.4272 20.4505C30.191 17.1943 30.191 13.8057 29.4272 10.5496C28.3242 5.84737 24.6527 2.17582 19.9505 1.07284ZM9.25624 15.5C9.25624 12.3278 11.8278 9.75629 15 9.75629C18.1722 9.75629 20.7437 12.3278 20.7437 15.5C20.7437 18.6722 18.1722 21.2437 15 21.2437C11.8278 21.2437 9.25624 18.6722 9.25624 15.5ZM15 11.6709C12.8852 11.6709 11.1708 13.3852 11.1708 15.5C11.1708 17.6148 12.8852 19.3292 15 19.3292C17.1147 19.3292 18.8292 17.6148 18.8292 15.5C18.8292 13.3852 17.1147 11.6709 15 11.6709ZM21.3818 9.91584C22.263 9.91584 22.9773 9.20152 22.9773 8.32037C22.9773 7.4392 22.263 6.72489 21.3818 6.72489C20.5007 6.72489 19.7863 7.4392 19.7863 8.32037C19.7863 9.20152 20.5007 9.91584 21.3818 9.91584Z" fill="#7E719E"/>
</svg>
