<svg width="108" height="71" viewBox="0 0 108 71" fill="none" xmlns="http://www.w3.org/2000/svg">
<path d="M25.7931 23.2069C27.2457 21.7543 28.352 19.9929 29.0297 18.0538L35.3397 0L39.1149 15.8801C39.371 16.9575 39.7307 18.0076 40.189 19.0158C41.3695 21.6128 43.2977 23.7986 45.7272 25.2937L52.098 29.2141C54.028 30.4018 56.0703 31.3964 58.1954 32.1835L68.5 36L58.4333 37.8642C56.1538 38.2863 53.9377 38.9984 51.839 39.9832C48.6844 41.4634 45.9779 43.7525 43.9948 46.6178L43.8578 46.8158C42.6262 48.5953 41.6674 50.5488 41.0131 52.6116L35.3397 70.5L28.171 50.2996C27.4 48.1272 26.1542 46.1542 24.5243 44.5243C20.5867 40.5867 15.6264 37.8287 10.2038 36.5619L0 34.1783L14.1575 30.0387C15.3834 29.6803 16.5746 29.2127 17.717 28.6415L19.4669 27.7665C21.807 26.5965 23.9431 25.0569 25.7931 23.2069Z" fill="white"/>
<ellipse cx="83.7253" cy="3.53" rx="3.53" ry="3.53" fill="white"/>
<ellipse cx="103.967" cy="36.4323" rx="3.53" ry="3.53" fill="white"/>
<ellipse cx="88.7995" cy="66.7956" rx="3.53" ry="3.53" fill="white"/>
</svg>
