<svg width="24" height="25" viewBox="0 0 24 25" fill="none" xmlns="http://www.w3.org/2000/svg">
<path d="M0 24.1089L1.70151 17.9239C0.656028 16.1095 0.106995 14.0516 0.109684 11.9575C0.0975809 5.3588 5.45638 0 12.0424 0C15.2389 0 18.2402 1.23927 20.5 3.49989C21.614 4.60801 22.4969 5.92616 23.0977 7.37798C23.6985 8.82979 24.0051 10.3864 23.9999 11.9575C23.9999 18.5436 18.6411 23.9024 12.0545 23.9024C10.0496 23.9024 8.09305 23.4038 6.3431 22.4444L0 24.1089ZM6.62301 20.2936L6.98767 20.5121C8.51827 21.4179 10.2639 21.8962 12.0424 21.8974C17.5108 21.8974 21.9708 17.4382 21.9708 11.969C21.9708 9.32022 20.9381 6.81745 19.0663 4.94643C18.1459 4.0208 17.0514 3.28648 15.8459 2.7858C14.6404 2.2851 13.3477 2.02795 12.0424 2.02914C6.56176 2.02985 2.10321 6.48911 2.10321 11.9583C2.10321 13.8294 2.62598 15.6648 3.62239 17.2445L3.85315 17.6212L2.84463 21.2906L6.62301 20.2936Z" fill="white"/>
<path fill-rule="evenodd" clip-rule="evenodd" d="M9.06304 6.95051C8.84439 6.45195 8.60151 6.43984 8.39497 6.43984C8.21264 6.42773 8.01749 6.42773 7.81095 6.42773C7.61722 6.42773 7.28888 6.50039 7.00969 6.8045C6.72978 7.10791 5.96484 7.82512 5.96484 9.29516C5.96484 10.766 7.0339 12.1875 7.17991 12.382C7.3252 12.5764 9.24537 15.6867 12.2837 16.8904C14.8107 17.8868 15.3214 17.6923 15.8683 17.6311C16.4146 17.5706 17.6305 16.9146 17.8854 16.2095C18.1283 15.5172 18.1283 14.9097 18.0556 14.7878C17.9829 14.6668 17.7757 14.5934 17.4845 14.4353C17.1803 14.29 15.7224 13.5607 15.4432 13.4631C15.1633 13.3662 14.9688 13.3178 14.7744 13.6091C14.58 13.9133 14.0087 14.5813 13.8272 14.7758C13.6562 14.9702 13.4746 14.9944 13.1826 14.8484C12.8792 14.7031 11.9191 14.3869 10.7767 13.3662C9.88921 12.5757 9.2938 11.5921 9.11147 11.3008C8.94196 10.9967 9.08725 10.8385 9.24537 10.6926C9.37927 10.5594 9.54949 10.3407 9.69549 10.1705C9.84075 9.99954 9.88921 9.86634 9.9989 9.6719C10.0958 9.47749 10.0474 9.29516 9.97467 9.14987C9.90138 9.01597 9.33083 7.54593 9.06304 6.95051Z" fill="white"/>
</svg>
