<svg width="31" height="31" viewBox="0 0 31 31" fill="none" xmlns="http://www.w3.org/2000/svg">
<g clip-path="url(#clip0_1573_3018)">
<path fill-rule="evenodd" clip-rule="evenodd" d="M24.875 4.25H22.0625V3.3125C22.0625 2.79473 21.6428 2.375 21.125 2.375C20.6072 2.375 20.1875 2.79473 20.1875 3.3125V4.25H10.8125V3.3125C10.8125 2.79473 10.3928 2.375 9.875 2.375C9.35723 2.375 8.9375 2.79473 8.9375 3.3125V4.25H6.125C5.08947 4.25 4.25 5.08947 4.25 6.125V24.875C4.25 25.9105 5.08947 26.75 6.125 26.75H24.875C25.9105 26.75 26.75 25.9105 26.75 24.875V6.125C26.75 5.08947 25.9105 4.25 24.875 4.25V4.25ZM8.9375 6.125V7.0625C8.9375 7.58027 9.35723 8 9.875 8C10.3928 8 10.8125 7.58027 10.8125 7.0625V6.125H20.1875V7.0625C20.1875 7.58027 20.6072 8 21.125 8C21.6428 8 22.0625 7.58027 22.0625 7.0625V6.125H24.875V9.875H6.125V6.125H8.9375ZM24.875 24.875H6.125V11.75H24.875V24.875V24.875ZM13.625 14.5625V22.0625C13.625 22.5803 13.2053 23 12.6875 23C12.1697 23 11.75 22.5803 11.75 22.0625V16.0789L11.232 16.3391C10.7686 16.5708 10.2051 16.3829 9.97344 15.9195C9.74174 15.4561 9.92957 14.8926 10.393 14.6609L12.268 13.7234C12.5587 13.578 12.904 13.5935 13.1805 13.7644C13.457 13.9354 13.6252 14.2374 13.625 14.5625V14.5625ZM20.5578 18.1309L18.3125 21.125H20.1875C20.7053 21.125 21.125 21.5447 21.125 22.0625C21.125 22.5803 20.7053 23 20.1875 23H16.4375C16.0824 23 15.7578 22.7994 15.599 22.4818C15.4402 22.1642 15.4744 21.7841 15.6875 21.5L19.0602 17.0035C19.2692 16.7252 19.3069 16.3541 19.158 16.0395C19.0091 15.7249 18.6983 15.5187 18.3505 15.5038C18.0028 15.489 17.6755 15.668 17.5004 15.9688C17.3377 16.2683 17.0254 16.4559 16.6846 16.4588C16.3438 16.4618 16.0282 16.2795 15.8604 15.9828C15.6927 15.6861 15.6992 15.3218 15.8773 15.0312C16.5141 13.9294 17.8113 13.3924 19.0405 13.7218C20.2697 14.0512 21.1246 15.1649 21.125 16.4375C21.127 17.0489 20.9277 17.644 20.5578 18.1309V18.1309Z" fill="#554078"/>
</g>
<defs>
<clipPath id="clip0_1573_3018">
<rect width="30" height="30" fill="white" transform="translate(0.5 0.5)"/>
</clipPath>
</defs>
</svg>
