<svg width="35" height="36" viewBox="0 0 35 36" fill="none" xmlns="http://www.w3.org/2000/svg">
<g clip-path="url(#clip0_1573_3017)">
<path fill-rule="evenodd" clip-rule="evenodd" d="M26.875 9.25H24.0625V8.3125C24.0625 7.79473 23.6428 7.375 23.125 7.375C22.6072 7.375 22.1875 7.79473 22.1875 8.3125V9.25H12.8125V8.3125C12.8125 7.79473 12.3928 7.375 11.875 7.375C11.3572 7.375 10.9375 7.79473 10.9375 8.3125V9.25H8.125C7.08947 9.25 6.25 10.0895 6.25 11.125V29.875C6.25 30.9105 7.08947 31.75 8.125 31.75H26.875C27.9105 31.75 28.75 30.9105 28.75 29.875V11.125C28.75 10.0895 27.9105 9.25 26.875 9.25ZM10.9375 11.125V12.0625C10.9375 12.5803 11.3572 13 11.875 13C12.3928 13 12.8125 12.5803 12.8125 12.0625V11.125H22.1875V12.0625C22.1875 12.5803 22.6072 13 23.125 13C23.6428 13 24.0625 12.5803 24.0625 12.0625V11.125H26.875V14.875H8.125V11.125H10.9375ZM26.875 29.875H8.125V16.75H26.875V29.875ZM15.625 19.5625V27.0625C15.625 27.5803 15.2053 28 14.6875 28C14.1697 28 13.75 27.5803 13.75 27.0625V21.0789L13.232 21.3391C12.7686 21.5708 12.2051 21.3829 11.9734 20.9195C11.7417 20.4561 11.9296 19.8926 12.393 19.6609L14.268 18.7234C14.5587 18.578 14.904 18.5935 15.1805 18.7644C15.457 18.9354 15.6252 19.2374 15.625 19.5625ZM22.5578 23.1309L20.3125 26.125H22.1875C22.7053 26.125 23.125 26.5447 23.125 27.0625C23.125 27.5803 22.7053 28 22.1875 28H18.4375C18.0824 28 17.7578 27.7994 17.599 27.4818C17.4402 27.1642 17.4744 26.7841 17.6875 26.5L21.0602 22.0035C21.2692 21.7252 21.3069 21.3541 21.158 21.0395C21.0091 20.7249 20.6983 20.5187 20.3505 20.5038C20.0028 20.489 19.6755 20.668 19.5004 20.9688C19.3377 21.2683 19.0254 21.4559 18.6846 21.4588C18.3438 21.4618 18.0282 21.2795 17.8604 20.9828C17.6927 20.6861 17.6992 20.3218 17.8773 20.0312C18.5141 18.9294 19.8113 18.3924 21.0405 18.7218C22.2697 19.0512 23.1246 20.1649 23.125 21.4375C23.127 22.0489 22.9277 22.644 22.5578 23.1309Z" fill="#554078"/>
</g>
<defs>
<clipPath id="clip0_1573_3017">
<rect width="30" height="30" fill="white" transform="translate(2.5 5.5)"/>
</clipPath>
</defs>
</svg>
