<svg width="30" height="30" viewBox="0 0 30 30" fill="none" xmlns="http://www.w3.org/2000/svg">
<path fill-rule="evenodd" clip-rule="evenodd" d="M11.9012 12.6016H8.49801C7.99865 12.5975 7.5181 12.7919 7.16209 13.1421C6.80606 13.4923 6.60373 13.9695 6.59961 14.4688V21.5356C6.60885 22.5751 7.45862 23.4104 8.49801 23.4016H11.9012C12.4005 23.4058 12.8811 23.2114 13.2372 22.8613C13.5932 22.5111 13.7955 22.0339 13.7996 21.5344V14.4688C13.7955 13.9695 13.5932 13.4923 13.2372 13.1421C12.8811 12.7919 12.4005 12.5975 11.9012 12.6016Z" stroke="#554078" stroke-width="1.5" stroke-linecap="round" stroke-linejoin="round"/>
<path fill-rule="evenodd" clip-rule="evenodd" d="M11.9012 5.40111H8.49801C7.47952 5.37287 6.63032 6.1743 6.59961 7.19271V8.40951C6.63032 9.42794 7.47952 10.2294 8.49801 10.2011H11.9012C12.9196 10.2294 13.7689 9.42794 13.7996 8.40951V7.19271C13.7689 6.1743 12.9196 5.37287 11.9012 5.40111Z" stroke="#554078" stroke-width="1.5" stroke-linecap="round" stroke-linejoin="round"/>
<path fill-rule="evenodd" clip-rule="evenodd" d="M18.0976 16.2005H21.4996C21.9992 16.2049 22.48 16.0107 22.8363 15.6605C23.1926 15.3102 23.3951 14.8329 23.3992 14.3333V7.26766C23.3951 6.76831 23.1928 6.29105 22.8368 5.94088C22.4807 5.5907 22.0001 5.3963 21.5008 5.40046H18.0976C17.5983 5.3963 17.1177 5.5907 16.7617 5.94088C16.4056 6.29105 16.2033 6.76831 16.1992 7.26766V14.3333C16.2033 14.8326 16.4056 15.3099 16.7617 15.66C17.1177 16.0102 17.5983 16.2046 18.0976 16.2005Z" stroke="#554078" stroke-width="1.5" stroke-linecap="round" stroke-linejoin="round"/>
<path fill-rule="evenodd" clip-rule="evenodd" d="M18.0976 23.4003H21.4996C22.5185 23.4293 23.3685 22.6277 23.3992 21.6087V20.3919C23.3685 19.3735 22.5193 18.5721 21.5008 18.6003H18.0976C17.0792 18.5721 16.2299 19.3735 16.1992 20.3919V21.6075C16.2292 22.6265 17.0787 23.4285 18.0976 23.4003Z" stroke="#554078" stroke-width="1.5" stroke-linecap="round" stroke-linejoin="round"/>
</svg>
