<svg width="25" height="29" viewBox="0 0 25 29" fill="none" xmlns="http://www.w3.org/2000/svg">
<g clip-path="url(#clip0_1999_6)">
<path d="M10.9419 27.5132C11.349 27.5132 11.6788 27.8459 11.6788 28.2566C11.6788 28.6672 11.349 29 10.9419 29H1.71486C1.24228 29 0.814149 28.8065 0.502995 28.4926C0.19184 28.1787 0 27.7468 0 27.2701V1.7299C0 1.25317 0.19184 0.821289 0.502995 0.507406C0.814149 0.193522 1.24228 0 1.71486 0H22.7751C23.2477 0 23.6758 0.195882 23.987 0.507406C24.2981 0.821289 24.49 1.25317 24.49 1.7299V13.5631C24.49 13.9737 24.1601 14.3065 23.753 14.3065C23.346 14.3065 23.0161 13.9737 23.0161 13.5631V1.7299C23.0161 1.66382 22.988 1.60246 22.9436 1.55998C22.8991 1.51514 22.8383 1.48682 22.7751 1.48682H1.71486C1.64935 1.48682 1.58853 1.51514 1.54408 1.55762C1.50196 1.60482 1.47389 1.66382 1.47389 1.7299V27.2677C1.47389 27.3338 1.50196 27.3952 1.54642 27.4377C1.59087 27.4825 1.65169 27.5108 1.7172 27.5108H10.9419V27.5132ZM23.091 17.5444C22.9716 17.4288 22.8336 17.3745 22.6745 17.3769C22.5154 17.3792 22.3797 17.443 22.2674 17.561L21.3527 18.5215L23.9191 21.0208L24.8432 20.0508C24.9532 19.9375 25 19.7912 24.9977 19.6307C24.9953 19.4726 24.9392 19.3286 24.8269 19.2201L23.091 17.5444ZM18.2973 26.9067C17.9581 27.0152 17.6212 27.1285 17.2843 27.2394C16.9451 27.3527 16.6082 27.4683 16.2713 27.5816C15.4735 27.8459 15.0267 27.9923 14.9331 28.0182C14.8418 28.0466 14.8957 27.6689 15.0969 26.8831L15.7309 24.4168L20.5386 19.3711L23.1027 21.8609L18.2973 26.9067ZM7.38817 9.69499C6.9811 9.69499 6.65122 9.36222 6.65122 8.95158C6.65122 8.54093 6.9811 8.20817 7.38817 8.20817H17.1065C17.5136 8.20817 17.8434 8.54093 17.8434 8.95158C17.8434 9.36222 17.5136 9.69499 17.1065 9.69499H7.38817ZM7.38817 20.2419C6.9811 20.2419 6.64889 19.9045 6.64889 19.4891C6.64889 19.0737 6.97876 18.7362 7.38817 18.7362H12.1771C12.5842 18.7362 12.9164 19.0737 12.9164 19.4891C12.9164 19.9045 12.5866 20.2419 12.1771 20.2419H7.38817ZM7.38817 14.9649C6.9811 14.9649 6.65122 14.6322 6.65122 14.2215C6.65122 13.8109 6.9811 13.4781 7.38817 13.4781H17.1065C17.5136 13.4781 17.8434 13.8109 17.8434 14.2215C17.8434 14.6322 17.5136 14.9649 17.1065 14.9649H7.38817Z" fill="#554078"/>
</g>
<defs>
<clipPath id="clip0_1999_6">
<rect width="25" height="29" fill="white"/>
</clipPath>
</defs>
</svg>
