<svg width="35" height="36" viewBox="0 0 35 36" fill="none" xmlns="http://www.w3.org/2000/svg">
<path fill-rule="evenodd" clip-rule="evenodd" d="M13.7402 19.0063C16.3201 17.2887 17.4711 14.0846 16.574 11.118C15.6768 8.15143 12.943 6.12215 9.84375 6.12215C6.74448 6.12215 4.01071 8.15143 3.11354 11.118C2.21637 14.0846 3.36741 17.2887 5.94727 19.0063C3.6744 19.844 1.73333 21.3941 0.413672 23.4254C0.224915 23.7059 0.201855 24.0664 0.353325 24.3687C0.504795 24.671 0.807321 24.8683 1.14504 24.8851C1.48276 24.9018 1.80333 24.7354 1.98398 24.4496C3.71345 21.7896 6.67096 20.1849 9.84375 20.1849C13.0165 20.1849 15.974 21.7896 17.7035 24.4496C17.9896 24.8749 18.5642 24.9915 18.9935 24.7115C19.4228 24.4315 19.5477 23.8586 19.2738 23.4254C17.9542 21.3941 16.0131 19.844 13.7402 19.0063ZM4.6875 13.1562C4.6875 10.3085 6.99603 8 9.84375 8C12.6915 8 15 10.3085 15 13.1562C15 16.004 12.6915 18.3125 9.84375 18.3125C6.99737 18.3093 4.69073 16.0026 4.6875 13.1562ZM29.3133 24.7227C28.8796 25.0054 28.2989 24.8832 28.016 24.4496C26.2885 21.7878 23.3295 20.1833 20.1562 20.1875C19.6385 20.1875 19.2188 19.7678 19.2188 19.25C19.2188 18.7322 19.6385 18.3125 20.1562 18.3125C22.2329 18.3105 24.1057 17.063 24.9076 15.1475C25.7096 13.2319 25.2842 11.0222 23.8283 9.54139C22.3724 8.06054 20.1703 7.59757 18.2414 8.3668C17.9283 8.50214 17.5664 8.45676 17.2964 8.24831C17.0265 8.03985 16.891 7.70121 16.9428 7.36406C16.9945 7.02692 17.2253 6.74448 17.5453 6.62656C20.8886 5.29321 24.699 6.70001 26.3737 9.88603C28.0485 13.0721 27.0467 17.0084 24.0527 19.0063C26.3256 19.844 28.2667 21.3941 29.5863 23.4254C29.8691 23.859 29.7469 24.4398 29.3133 24.7227Z" fill="#554078"/>
</svg>
