<svg width="443" height="165" viewBox="0 0 443 165" fill="none" xmlns="http://www.w3.org/2000/svg">
<path d="M11.2171 51.9701L29.4956 41.982L26.2669 52.7482L25.5297 60.2442C25.3156 62.421 25.285 64.612 25.4382 66.7939L25.8959 73.3112C26.1415 76.8074 26.9423 80.2421 28.2685 83.4861L29.3373 86.1006C32.0217 92.6672 36.3257 98.4467 41.8479 102.9L42.4099 103.353L47.8085 107.958L39.1811 105.506L36.3871 104.417C33.2644 103.199 30.3858 101.43 27.8884 99.1944L24.1138 95.8158L20.0898 91.537C17.7839 89.0851 15.9004 86.2678 14.5159 83.1998V83.1998C11.6403 76.8274 10.3226 69.862 10.6717 62.8791L11.2171 51.9701Z" fill="url(#paint0_linear_1620_308)"/>
<path d="M57.6992 24.1799L76.2164 33.7176L65.4958 37.0817L58.8807 40.6743C56.958 41.7185 55.1266 42.9227 53.4058 44.2742L48.2733 48.3052C45.5159 50.4708 43.1211 53.0621 41.179 55.9818L39.6191 58.3268C35.6887 64.2356 33.3187 71.0443 32.7305 78.1174L32.6709 78.8343L31.8874 85.8888L29.078 77.3678L28.4126 74.4415C27.6692 71.1726 27.5187 67.7967 27.968 64.4744L28.6471 59.4529L29.9315 53.7192C30.6672 50.4348 31.9421 47.2951 33.7045 44.4279V44.4279C37.3654 38.472 42.3912 33.4736 48.3661 29.8462L57.6992 24.1799Z" fill="url(#paint1_linear_1620_308)"/>
<path d="M110.942 51.7372L111.781 72.5565L103.569 64.8852L97.1835 60.9003C95.3265 59.7414 93.3754 58.7409 91.3507 57.9094L85.3178 55.4317C82.0734 54.0993 78.6375 53.2926 75.1394 53.042L72.3366 52.8413C65.258 52.3343 58.1668 53.6296 51.7252 56.6062L51.0741 56.9071L44.5535 59.7041L50.5775 53.0568L52.7944 51.0342C55.27 48.7755 58.1311 46.9798 61.2415 45.7325L65.943 43.8472L71.5629 42.1372C74.7813 41.158 78.1398 40.7194 81.5019 40.8392V40.8392C88.4865 41.0883 95.3119 42.9975 101.413 46.4088L110.942 51.7372Z" fill="url(#paint2_linear_1620_308)"/>
<path d="M111.369 110.973L93.5866 121.821L96.2991 110.914L96.6787 103.391C96.789 101.206 96.7153 99.0164 96.4583 96.8442L95.691 90.3563C95.2794 86.8757 94.3159 83.483 92.8368 80.3057L91.6449 77.7453C88.651 71.314 84.0768 65.7462 78.3489 61.5614L77.7661 61.1356L72.1544 56.7928L80.8886 58.8307L83.7314 59.786C86.9085 60.8537 89.868 62.4833 92.469 64.5972L96.4 67.7921L100.623 71.8742C103.043 74.2135 105.059 76.9378 106.587 79.9364V79.9364C109.763 86.1645 111.411 93.0593 111.394 100.051L111.369 110.973Z" fill="url(#paint3_linear_1620_308)"/>
<path d="M59.2353 140.961L41.2636 130.433L52.15 127.655L58.9495 124.426C60.926 123.488 62.82 122.385 64.6115 121.128L69.9542 117.381C72.8249 115.368 75.3566 112.91 77.4542 110.1L79.1382 107.843C83.3832 102.156 86.1187 95.4849 87.0894 88.4535L87.1878 87.7411L88.3524 80.7391L90.6956 89.4005L91.2014 92.3588C91.7664 95.6634 91.7337 99.0427 91.105 102.336L90.1547 107.314L88.5615 112.97C87.6489 116.21 86.2057 119.276 84.2907 122.043V122.043C80.3125 127.792 75.0235 132.511 68.8612 135.809L59.2353 140.961Z" fill="url(#paint4_linear_1620_308)"/>
<path d="M9.73928 109.35L10.4119 88.5239L18.0464 96.7711L24.126 101.209C25.894 102.5 27.7674 103.639 29.7263 104.615L35.5641 107.524C38.7032 109.089 42.0713 110.143 45.5418 110.646L48.3233 111.05C55.3461 112.069 62.5122 111.292 69.1523 108.791L69.8237 108.538L76.5297 106.221L70.04 112.414L67.6824 114.271C65.0496 116.344 62.066 117.927 58.8734 118.945L54.0478 120.485L48.3189 121.782C45.038 122.525 41.6566 122.719 38.3121 122.356V122.356C31.364 121.6 24.6951 119.201 18.8575 115.356L9.73928 109.35Z" fill="url(#paint5_linear_1620_308)"/>
<path d="M63.4824 87.2153H53.0732L53.0176 81.4819H61.7568C63.2969 81.4819 64.5586 81.2871 65.542 80.8975C66.5254 80.4893 67.2583 79.9048 67.7407 79.144C68.2417 78.3647 68.4922 77.4185 68.4922 76.3052C68.4922 75.0435 68.251 74.0229 67.7686 73.2437C67.3047 72.4644 66.5718 71.8984 65.5698 71.5459C64.5864 71.1934 63.3154 71.0171 61.7568 71.0171H55.9678V105H47.6182V64.4766H61.7568C64.1133 64.4766 66.2192 64.6992 68.0747 65.1445C69.9487 65.5898 71.5352 66.2671 72.834 67.1763C74.1328 68.0854 75.1255 69.2358 75.812 70.6274C76.4985 72.0005 76.8418 73.6333 76.8418 75.5259C76.8418 77.1958 76.4614 78.7358 75.7007 80.146C74.9585 81.5562 73.7803 82.7065 72.166 83.5972C70.5703 84.4878 68.4829 84.9795 65.9038 85.0723L63.4824 87.2153ZM63.1206 105H50.791L54.0474 98.4873H63.1206C64.5864 98.4873 65.7832 98.2554 66.7109 97.7915C67.6387 97.3091 68.3252 96.6597 68.7705 95.8433C69.2158 95.0269 69.4385 94.0898 69.4385 93.0322C69.4385 91.8447 69.2344 90.8149 68.8262 89.9429C68.4365 89.0708 67.8057 88.4028 66.9336 87.939C66.0615 87.4565 64.9111 87.2153 63.4824 87.2153H55.439L55.4946 81.4819H65.5142L67.4346 83.7363C69.9023 83.6992 71.8877 84.1353 73.3906 85.0444C74.9121 85.9351 76.0161 87.0947 76.7026 88.5234C77.4077 89.9521 77.7603 91.4829 77.7603 93.1157C77.7603 95.7134 77.1943 97.9028 76.0625 99.6841C74.9307 101.447 73.27 102.773 71.0806 103.664C68.9097 104.555 66.2563 105 63.1206 105Z" fill="#848688"/>
<path d="M65.7495 84.7629L65.7475 84.7646L62.2918 87.7067C58.1955 91.194 55.8353 96.3029 55.8353 101.683V102.788C55.8353 103.991 55.2762 105.125 54.3222 105.858C53.6457 106.378 52.8163 106.66 51.9631 106.66H50.949C49.8461 106.66 48.7679 106.334 47.8503 105.722C46.8167 105.033 46.0422 104.019 45.6494 102.84L45.5729 102.611C45.359 101.969 45.25 101.297 45.25 100.621V98.4362C45.25 97.1352 45.3785 95.8375 45.6336 94.5618L45.8786 93.3369C46.1473 91.9937 46.6085 90.6878 47.2412 89.4726C48.3638 87.3163 50.0198 85.4657 52.0421 84.1175L55.1656 82.0352L62.8312 78.2024C63.2762 77.9799 63.7365 77.7893 64.2085 77.6319L65.1186 77.3286C66.1422 76.9873 67.0724 76.4125 67.8353 75.6495C68.5009 74.9839 69.0244 74.1901 69.3739 73.3161L70.5779 70.3062C70.8383 69.6554 70.972 68.9609 70.972 68.2599V63.681C70.972 63.443 71.165 63.25 71.403 63.25C71.5471 63.25 71.6817 63.322 71.7616 63.4419L73.0176 65.3258C73.4127 65.9186 73.6668 66.594 73.7602 67.3003L74.0233 69.2893V72.4093C74.0233 73.7673 73.8044 75.1165 73.3749 76.4048L73.1782 76.9952C73.0571 77.3584 72.9104 77.7126 72.7391 78.0551C72.2399 79.0536 71.5394 79.938 70.6818 80.6526L65.7495 84.7629Z" fill="#373435" stroke="white" stroke-width="0.5"/>
<path d="M150.339 70H144.147L144.187 65.4297H150.339C151.875 65.4297 153.171 65.0846 154.226 64.3945C155.28 63.6914 156.075 62.6693 156.608 61.3281C157.155 59.987 157.429 58.3659 157.429 56.4648V55.0781C157.429 53.6198 157.272 52.3372 156.96 51.2305C156.66 50.1237 156.211 49.1927 155.612 48.4375C155.013 47.6823 154.278 47.1159 153.405 46.7383C152.533 46.3477 151.53 46.1523 150.397 46.1523H144.03V41.5625H150.397C152.299 41.5625 154.037 41.888 155.612 42.5391C157.201 43.1771 158.575 44.0951 159.733 45.293C160.892 46.4909 161.784 47.9232 162.409 49.5898C163.047 51.2435 163.366 53.0859 163.366 55.1172V56.4648C163.366 58.4831 163.047 60.3255 162.409 61.9922C161.784 63.6589 160.892 65.0911 159.733 66.2891C158.588 67.474 157.214 68.3919 155.612 69.043C154.024 69.681 152.266 70 150.339 70ZM147.468 41.5625V70H141.608V41.5625H147.468ZM167.624 41.5625H178.229C180.404 41.5625 182.272 41.888 183.835 42.5391C185.41 43.1901 186.621 44.1536 187.468 45.4297C188.314 46.7057 188.737 48.2747 188.737 50.1367C188.737 51.6602 188.477 52.9688 187.956 54.0625C187.448 55.1432 186.726 56.0482 185.788 56.7773C184.864 57.4935 183.776 58.0664 182.526 58.4961L180.671 59.4727H171.452L171.413 54.9023H178.269C179.297 54.9023 180.15 54.7201 180.827 54.3555C181.504 53.9909 182.012 53.4831 182.351 52.832C182.702 52.181 182.878 51.4258 182.878 50.5664C182.878 49.6549 182.709 48.8672 182.37 48.2031C182.032 47.5391 181.517 47.0312 180.827 46.6797C180.137 46.3281 179.271 46.1523 178.229 46.1523H173.483V70H167.624V41.5625ZM183.522 70L177.038 57.3242L183.229 57.2852L189.792 69.7266V70H183.522ZM193.171 67.2852C193.171 66.4518 193.457 65.7552 194.03 65.1953C194.616 64.6354 195.391 64.3555 196.354 64.3555C197.318 64.3555 198.086 64.6354 198.659 65.1953C199.245 65.7552 199.538 66.4518 199.538 67.2852C199.538 68.1185 199.245 68.8151 198.659 69.375C198.086 69.9349 197.318 70.2148 196.354 70.2148C195.391 70.2148 194.616 69.9349 194.03 69.375C193.457 68.8151 193.171 68.1185 193.171 67.2852ZM225.944 57.5195H218.64L218.601 53.4961H224.733C225.814 53.4961 226.7 53.3594 227.39 53.0859C228.08 52.7995 228.594 52.3893 228.933 51.8555C229.284 51.3086 229.46 50.6445 229.46 49.8633C229.46 48.9779 229.291 48.2617 228.952 47.7148C228.627 47.168 228.112 46.7708 227.409 46.5234C226.719 46.276 225.827 46.1523 224.733 46.1523H220.671V70H214.812V41.5625H224.733C226.387 41.5625 227.865 41.7188 229.167 42.0312C230.482 42.3438 231.595 42.819 232.507 43.457C233.418 44.0951 234.115 44.9023 234.597 45.8789C235.078 46.8424 235.319 47.9883 235.319 49.3164C235.319 50.4883 235.052 51.569 234.519 52.5586C233.998 53.5482 233.171 54.3555 232.038 54.9805C230.918 55.6055 229.453 55.9505 227.644 56.0156L225.944 57.5195ZM225.69 70H217.038L219.323 65.4297H225.69C226.719 65.4297 227.559 65.2669 228.21 64.9414C228.861 64.6029 229.343 64.1471 229.655 63.5742C229.968 63.0013 230.124 62.3438 230.124 61.6016C230.124 60.7682 229.981 60.0456 229.694 59.4336C229.421 58.8216 228.978 58.3529 228.366 58.0273C227.754 57.6888 226.947 57.5195 225.944 57.5195H220.3L220.339 53.4961H227.37L228.718 55.0781C230.45 55.0521 231.843 55.3581 232.897 55.9961C233.965 56.6211 234.74 57.4349 235.222 58.4375C235.716 59.4401 235.964 60.5143 235.964 61.6602C235.964 63.4831 235.567 65.0195 234.772 66.2695C233.978 67.5065 232.813 68.4375 231.276 69.0625C229.753 69.6875 227.891 70 225.69 70ZM251.413 65.2344V55.8203C251.413 55.1432 251.302 54.5638 251.081 54.082C250.86 53.5872 250.515 53.2031 250.046 52.9297C249.59 52.6562 248.998 52.5195 248.269 52.5195C247.644 52.5195 247.103 52.6302 246.647 52.8516C246.192 53.0599 245.84 53.3659 245.593 53.7695C245.345 54.1602 245.222 54.6224 245.222 55.1562H239.597C239.597 54.2578 239.805 53.4049 240.222 52.5977C240.638 51.7904 241.244 51.0807 242.038 50.4688C242.832 49.8438 243.776 49.3555 244.87 49.0039C245.977 48.6523 247.214 48.4766 248.581 48.4766C250.222 48.4766 251.68 48.75 252.956 49.2969C254.232 49.8438 255.235 50.6641 255.964 51.7578C256.706 52.8516 257.077 54.2188 257.077 55.8594V64.9023C257.077 66.0612 257.149 67.0117 257.292 67.7539C257.435 68.4831 257.644 69.1211 257.917 69.668V70H252.233C251.96 69.4271 251.752 68.7109 251.608 67.8516C251.478 66.9792 251.413 66.1068 251.413 65.2344ZM252.155 57.1289L252.194 60.3125H249.05C248.308 60.3125 247.663 60.3971 247.116 60.5664C246.569 60.7357 246.12 60.9766 245.769 61.2891C245.417 61.5885 245.157 61.9401 244.987 62.3438C244.831 62.7474 244.753 63.1901 244.753 63.6719C244.753 64.1536 244.864 64.5898 245.085 64.9805C245.306 65.3581 245.625 65.6576 246.042 65.8789C246.459 66.0872 246.947 66.1914 247.507 66.1914C248.353 66.1914 249.089 66.0221 249.714 65.6836C250.339 65.3451 250.821 64.9284 251.159 64.4336C251.511 63.9388 251.693 63.4701 251.706 63.0273L253.19 65.4102C252.982 65.944 252.696 66.4974 252.331 67.0703C251.979 67.6432 251.53 68.1836 250.983 68.6914C250.437 69.1862 249.779 69.5964 249.011 69.9219C248.243 70.2344 247.331 70.3906 246.276 70.3906C244.935 70.3906 243.718 70.1237 242.624 69.5898C241.543 69.043 240.684 68.2943 240.046 67.3438C239.421 66.3802 239.108 65.2865 239.108 64.0625C239.108 62.9557 239.317 61.9727 239.733 61.1133C240.15 60.2539 240.762 59.5312 241.569 58.9453C242.39 58.3464 243.412 57.8971 244.636 57.5977C245.86 57.2852 247.279 57.1289 248.894 57.1289H252.155ZM267.038 53.4766V70H261.413V48.8672H266.706L267.038 53.4766ZM273.405 48.7305L273.308 53.9453C273.034 53.9062 272.702 53.8737 272.312 53.8477C271.934 53.8086 271.589 53.7891 271.276 53.7891C270.482 53.7891 269.792 53.8932 269.206 54.1016C268.633 54.2969 268.151 54.5898 267.761 54.9805C267.383 55.3711 267.097 55.8464 266.901 56.4062C266.719 56.9661 266.615 57.6042 266.589 58.3203L265.456 57.9688C265.456 56.6016 265.593 55.3451 265.866 54.1992C266.14 53.0404 266.537 52.0312 267.058 51.1719C267.591 50.3125 268.243 49.6484 269.011 49.1797C269.779 48.7109 270.658 48.4766 271.647 48.4766C271.96 48.4766 272.279 48.5026 272.604 48.5547C272.93 48.5938 273.197 48.6523 273.405 48.7305ZM288.151 65.3906V40H293.815V70H288.718L288.151 65.3906ZM274.792 59.6875V59.2773C274.792 57.6628 274.974 56.1979 275.339 54.8828C275.703 53.5547 276.237 52.4154 276.94 51.4648C277.644 50.5143 278.509 49.7786 279.538 49.2578C280.567 48.737 281.739 48.4766 283.054 48.4766C284.291 48.4766 285.371 48.737 286.296 49.2578C287.233 49.7786 288.028 50.5208 288.679 51.4844C289.343 52.4349 289.877 53.5612 290.28 54.8633C290.684 56.1523 290.977 57.5651 291.159 59.1016V60C290.977 61.4714 290.684 62.8385 290.28 64.1016C289.877 65.3646 289.343 66.4714 288.679 67.4219C288.028 68.3594 287.233 69.0885 286.296 69.6094C285.358 70.1302 284.265 70.3906 283.015 70.3906C281.7 70.3906 280.528 70.1237 279.499 69.5898C278.483 69.056 277.624 68.3073 276.921 67.3438C276.231 66.3802 275.703 65.2474 275.339 63.9453C274.974 62.6432 274.792 61.224 274.792 59.6875ZM280.417 59.2773V59.6875C280.417 60.5599 280.482 61.3737 280.612 62.1289C280.756 62.8841 280.983 63.5547 281.296 64.1406C281.621 64.7135 282.038 65.1628 282.546 65.4883C283.067 65.8008 283.698 65.957 284.44 65.957C285.404 65.957 286.198 65.7422 286.823 65.3125C287.448 64.8698 287.924 64.2643 288.249 63.4961C288.588 62.7279 288.783 61.8424 288.835 60.8398V58.2812C288.796 57.4609 288.679 56.7253 288.483 56.0742C288.301 55.4102 288.028 54.8438 287.663 54.375C287.312 53.9062 286.869 53.5417 286.335 53.2812C285.814 53.0208 285.196 52.8906 284.479 52.8906C283.75 52.8906 283.125 53.0599 282.604 53.3984C282.084 53.724 281.66 54.1732 281.335 54.7461C281.022 55.319 280.788 55.9961 280.632 56.7773C280.489 57.5456 280.417 58.3789 280.417 59.2773ZM307.937 70.3906C306.296 70.3906 304.825 70.1302 303.522 69.6094C302.22 69.0755 301.114 68.3398 300.202 67.4023C299.304 66.4648 298.614 65.3776 298.132 64.1406C297.65 62.8906 297.409 61.5625 297.409 60.1562V59.375C297.409 57.7734 297.637 56.3086 298.093 54.9805C298.549 53.6523 299.2 52.5 300.046 51.5234C300.905 50.5469 301.947 49.7982 303.171 49.2773C304.395 48.7435 305.775 48.4766 307.312 48.4766C308.809 48.4766 310.137 48.724 311.296 49.2188C312.455 49.7135 313.425 50.4167 314.206 51.3281C315 52.2396 315.599 53.3333 316.003 54.6094C316.407 55.8724 316.608 57.2786 316.608 58.8281V61.1719H299.812V57.4219H311.081V56.9922C311.081 56.2109 310.938 55.5143 310.651 54.9023C310.378 54.2773 309.961 53.7826 309.401 53.418C308.841 53.0534 308.125 52.8711 307.253 52.8711C306.511 52.8711 305.873 53.0339 305.339 53.3594C304.805 53.6849 304.369 54.1406 304.03 54.7266C303.705 55.3125 303.457 56.0026 303.288 56.7969C303.132 57.5781 303.054 58.4375 303.054 59.375V60.1562C303.054 61.0026 303.171 61.7839 303.405 62.5C303.653 63.2161 303.998 63.8346 304.44 64.3555C304.896 64.8763 305.443 65.2799 306.081 65.5664C306.732 65.8529 307.468 65.9961 308.288 65.9961C309.304 65.9961 310.248 65.8008 311.12 65.4102C312.006 65.0065 312.767 64.401 313.405 63.5938L316.14 66.5625C315.697 67.2005 315.091 67.8125 314.323 68.3984C313.568 68.9844 312.657 69.4661 311.589 69.8438C310.521 70.2083 309.304 70.3906 307.937 70.3906ZM323.581 40V42.9688C323.581 43.8151 323.418 44.6875 323.093 45.5859C322.78 46.4844 322.357 47.3372 321.823 48.1445C321.289 48.9388 320.703 49.6159 320.065 50.1758L317.429 48.6523C317.91 47.8841 318.321 47.0508 318.659 46.1523C318.998 45.2409 319.167 44.1862 319.167 42.9883V40H323.581ZM335.261 64.1602C335.261 63.7565 335.144 63.3919 334.909 63.0664C334.675 62.7409 334.239 62.4414 333.601 62.168C332.976 61.8815 332.071 61.6211 330.886 61.3867C329.818 61.1523 328.822 60.8594 327.897 60.5078C326.986 60.1432 326.192 59.707 325.515 59.1992C324.851 58.6914 324.33 58.0924 323.952 57.4023C323.575 56.6992 323.386 55.8984 323.386 55C323.386 54.1146 323.575 53.2812 323.952 52.5C324.343 51.7188 324.896 51.0286 325.612 50.4297C326.341 49.8177 327.227 49.3424 328.269 49.0039C329.323 48.6523 330.508 48.4766 331.823 48.4766C333.659 48.4766 335.235 48.7695 336.55 49.3555C337.878 49.9414 338.894 50.7487 339.597 51.7773C340.313 52.793 340.671 53.9518 340.671 55.2539H335.046C335.046 54.707 334.929 54.2188 334.694 53.7891C334.473 53.3464 334.121 53.0013 333.64 52.7539C333.171 52.4935 332.559 52.3633 331.804 52.3633C331.179 52.3633 330.638 52.474 330.183 52.6953C329.727 52.9036 329.375 53.1901 329.128 53.5547C328.894 53.9062 328.776 54.2969 328.776 54.7266C328.776 55.0521 328.841 55.3451 328.972 55.6055C329.115 55.8529 329.343 56.0807 329.655 56.2891C329.968 56.4974 330.371 56.6927 330.866 56.875C331.374 57.0443 331.999 57.2005 332.741 57.3438C334.265 57.6562 335.625 58.0664 336.823 58.5742C338.021 59.069 338.972 59.7461 339.675 60.6055C340.378 61.4518 340.729 62.5651 340.729 63.9453C340.729 64.8828 340.521 65.7422 340.104 66.5234C339.688 67.3047 339.089 67.9883 338.308 68.5742C337.526 69.1471 336.589 69.5964 335.495 69.9219C334.414 70.2344 333.197 70.3906 331.843 70.3906C329.877 70.3906 328.21 70.0391 326.843 69.3359C325.489 68.6328 324.46 67.7409 323.757 66.6602C323.067 65.5664 322.722 64.4466 322.722 63.3008H328.054C328.08 64.069 328.275 64.6875 328.64 65.1562C329.017 65.625 329.493 65.9635 330.065 66.1719C330.651 66.3802 331.283 66.4844 331.96 66.4844C332.689 66.4844 333.295 66.3867 333.776 66.1914C334.258 65.9831 334.623 65.7096 334.87 65.3711C335.131 65.0195 335.261 64.6159 335.261 64.1602Z" fill="#848688"/>
<path d="M142.116 78.875H154.843C157.452 78.875 159.694 79.2656 161.569 80.0469C163.46 80.8281 164.913 81.9844 165.929 83.5156C166.944 85.0469 167.452 86.9297 167.452 89.1641C167.452 90.9922 167.14 92.5625 166.515 93.875C165.905 95.1719 165.038 96.2578 163.913 97.1328C162.804 97.9922 161.499 98.6797 159.999 99.1953L157.772 100.367H146.71L146.663 94.8828H154.89C156.124 94.8828 157.147 94.6641 157.96 94.2266C158.772 93.7891 159.382 93.1797 159.788 92.3984C160.21 91.6172 160.421 90.7109 160.421 89.6797C160.421 88.5859 160.218 87.6406 159.812 86.8438C159.405 86.0469 158.788 85.4375 157.96 85.0156C157.132 84.5938 156.093 84.3828 154.843 84.3828H149.147V113H142.116V78.875ZM161.194 113L153.413 97.7891L160.843 97.7422L168.718 112.672V113H161.194ZM186.132 107.281V95.9844C186.132 95.1719 185.999 94.4766 185.733 93.8984C185.468 93.3047 185.054 92.8438 184.491 92.5156C183.944 92.1875 183.233 92.0234 182.358 92.0234C181.608 92.0234 180.96 92.1562 180.413 92.4219C179.866 92.6719 179.444 93.0391 179.147 93.5234C178.851 93.9922 178.702 94.5469 178.702 95.1875H171.952C171.952 94.1094 172.202 93.0859 172.702 92.1172C173.202 91.1484 173.929 90.2969 174.882 89.5625C175.835 88.8125 176.968 88.2266 178.28 87.8047C179.608 87.3828 181.093 87.1719 182.733 87.1719C184.702 87.1719 186.452 87.5 187.983 88.1562C189.515 88.8125 190.718 89.7969 191.593 91.1094C192.483 92.4219 192.929 94.0625 192.929 96.0312V106.883C192.929 108.273 193.015 109.414 193.187 110.305C193.358 111.18 193.608 111.945 193.937 112.602V113H187.116C186.788 112.312 186.538 111.453 186.366 110.422C186.21 109.375 186.132 108.328 186.132 107.281ZM187.022 97.5547L187.069 101.375H183.296C182.405 101.375 181.632 101.477 180.976 101.68C180.319 101.883 179.78 102.172 179.358 102.547C178.937 102.906 178.624 103.328 178.421 103.812C178.233 104.297 178.14 104.828 178.14 105.406C178.14 105.984 178.272 106.508 178.538 106.977C178.804 107.43 179.187 107.789 179.687 108.055C180.187 108.305 180.772 108.43 181.444 108.43C182.46 108.43 183.343 108.227 184.093 107.82C184.843 107.414 185.421 106.914 185.827 106.32C186.249 105.727 186.468 105.164 186.483 104.633L188.265 107.492C188.015 108.133 187.671 108.797 187.233 109.484C186.812 110.172 186.272 110.82 185.616 111.43C184.96 112.023 184.171 112.516 183.249 112.906C182.327 113.281 181.233 113.469 179.968 113.469C178.358 113.469 176.897 113.148 175.585 112.508C174.288 111.852 173.257 110.953 172.491 109.812C171.741 108.656 171.366 107.344 171.366 105.875C171.366 104.547 171.616 103.367 172.116 102.336C172.616 101.305 173.351 100.438 174.319 99.7344C175.304 99.0156 176.53 98.4766 177.999 98.1172C179.468 97.7422 181.171 97.5547 183.108 97.5547H187.022ZM213.108 107.469V77H219.905V113H213.788L213.108 107.469ZM197.077 100.625V100.133C197.077 98.1953 197.296 96.4375 197.733 94.8594C198.171 93.2656 198.812 91.8984 199.655 90.7578C200.499 89.6172 201.538 88.7344 202.772 88.1094C204.007 87.4844 205.413 87.1719 206.991 87.1719C208.476 87.1719 209.772 87.4844 210.882 88.1094C212.007 88.7344 212.96 89.625 213.741 90.7812C214.538 91.9219 215.179 93.2734 215.663 94.8359C216.147 96.3828 216.499 98.0781 216.718 99.9219V101C216.499 102.766 216.147 104.406 215.663 105.922C215.179 107.438 214.538 108.766 213.741 109.906C212.96 111.031 212.007 111.906 210.882 112.531C209.757 113.156 208.444 113.469 206.944 113.469C205.366 113.469 203.96 113.148 202.726 112.508C201.507 111.867 200.476 110.969 199.632 109.812C198.804 108.656 198.171 107.297 197.733 105.734C197.296 104.172 197.077 102.469 197.077 100.625ZM203.827 100.133V100.625C203.827 101.672 203.905 102.648 204.062 103.555C204.233 104.461 204.507 105.266 204.882 105.969C205.272 106.656 205.772 107.195 206.382 107.586C207.007 107.961 207.765 108.148 208.655 108.148C209.812 108.148 210.765 107.891 211.515 107.375C212.265 106.844 212.835 106.117 213.226 105.195C213.632 104.273 213.866 103.211 213.929 102.008V98.9375C213.882 97.9531 213.741 97.0703 213.507 96.2891C213.288 95.4922 212.96 94.8125 212.522 94.25C212.101 93.6875 211.569 93.25 210.929 92.9375C210.304 92.625 209.562 92.4688 208.702 92.4688C207.827 92.4688 207.077 92.6719 206.452 93.0781C205.827 93.4688 205.319 94.0078 204.929 94.6953C204.554 95.3828 204.272 96.1953 204.085 97.1328C203.913 98.0547 203.827 99.0547 203.827 100.133ZM232.304 87.6406V113H225.53V87.6406H232.304ZM225.108 81.0312C225.108 80.0469 225.452 79.2344 226.14 78.5938C226.827 77.9531 227.749 77.6328 228.905 77.6328C230.046 77.6328 230.96 77.9531 231.647 78.5938C232.351 79.2344 232.702 80.0469 232.702 81.0312C232.702 82.0156 232.351 82.8281 231.647 83.4688C230.96 84.1094 230.046 84.4297 228.905 84.4297C227.749 84.4297 226.827 84.1094 226.14 83.4688C225.452 82.8281 225.108 82.0156 225.108 81.0312ZM249.554 113.469C247.585 113.469 245.819 113.156 244.257 112.531C242.694 111.891 241.366 111.008 240.272 109.883C239.194 108.758 238.366 107.453 237.788 105.969C237.21 104.469 236.921 102.875 236.921 101.188V100.25C236.921 98.3281 237.194 96.5703 237.741 94.9766C238.288 93.3828 239.069 92 240.085 90.8281C241.116 89.6562 242.366 88.7578 243.835 88.1328C245.304 87.4922 246.96 87.1719 248.804 87.1719C250.601 87.1719 252.194 87.4688 253.585 88.0625C254.976 88.6562 256.14 89.5 257.077 90.5938C258.03 91.6875 258.749 93 259.233 94.5312C259.718 96.0469 259.96 97.7344 259.96 99.5938V102.406H239.804V97.9062H253.327V97.3906C253.327 96.4531 253.155 95.6172 252.812 94.8828C252.483 94.1328 251.983 93.5391 251.312 93.1016C250.64 92.6641 249.78 92.4453 248.733 92.4453C247.843 92.4453 247.077 92.6406 246.437 93.0312C245.796 93.4219 245.272 93.9688 244.866 94.6719C244.476 95.375 244.179 96.2031 243.976 97.1562C243.788 98.0938 243.694 99.125 243.694 100.25V101.188C243.694 102.203 243.835 103.141 244.116 104C244.413 104.859 244.827 105.602 245.358 106.227C245.905 106.852 246.562 107.336 247.327 107.68C248.108 108.023 248.991 108.195 249.976 108.195C251.194 108.195 252.327 107.961 253.374 107.492C254.437 107.008 255.351 106.281 256.116 105.312L259.397 108.875C258.866 109.641 258.14 110.375 257.218 111.078C256.312 111.781 255.218 112.359 253.937 112.812C252.655 113.25 251.194 113.469 249.554 113.469ZM270.413 93.0547V113H263.663V87.6406H269.991L270.413 93.0547ZM269.429 99.4297H267.601C267.601 97.5547 267.843 95.8672 268.327 94.3672C268.812 92.8516 269.491 91.5625 270.366 90.5C271.241 89.4219 272.28 88.6016 273.483 88.0391C274.702 87.4609 276.062 87.1719 277.562 87.1719C278.749 87.1719 279.835 87.3438 280.819 87.6875C281.804 88.0312 282.647 88.5781 283.351 89.3281C284.069 90.0781 284.616 91.0703 284.991 92.3047C285.382 93.5391 285.577 95.0469 285.577 96.8281V113H278.78V96.8047C278.78 95.6797 278.624 94.8047 278.312 94.1797C277.999 93.5547 277.538 93.1172 276.929 92.8672C276.335 92.6016 275.601 92.4688 274.726 92.4688C273.819 92.4688 273.03 92.6484 272.358 93.0078C271.702 93.3672 271.155 93.8672 270.718 94.5078C270.296 95.1328 269.976 95.8672 269.757 96.7109C269.538 97.5547 269.429 98.4609 269.429 99.4297ZM301.187 108.195C302.015 108.195 302.749 108.039 303.39 107.727C304.03 107.398 304.53 106.945 304.89 106.367C305.265 105.773 305.46 105.078 305.476 104.281H311.827C311.812 106.062 311.335 107.648 310.397 109.039C309.46 110.414 308.202 111.5 306.624 112.297C305.046 113.078 303.28 113.469 301.327 113.469C299.358 113.469 297.64 113.141 296.171 112.484C294.718 111.828 293.507 110.922 292.538 109.766C291.569 108.594 290.843 107.234 290.358 105.688C289.874 104.125 289.632 102.453 289.632 100.672V99.9922C289.632 98.1953 289.874 96.5234 290.358 94.9766C290.843 93.4141 291.569 92.0547 292.538 90.8984C293.507 89.7266 294.718 88.8125 296.171 88.1562C297.624 87.5 299.327 87.1719 301.28 87.1719C303.358 87.1719 305.179 87.5703 306.741 88.3672C308.319 89.1641 309.554 90.3047 310.444 91.7891C311.351 93.2578 311.812 95 311.827 97.0156H305.476C305.46 96.1719 305.28 95.4062 304.937 94.7188C304.608 94.0312 304.124 93.4844 303.483 93.0781C302.858 92.6562 302.085 92.4453 301.163 92.4453C300.179 92.4453 299.374 92.6562 298.749 93.0781C298.124 93.4844 297.64 94.0469 297.296 94.7656C296.952 95.4688 296.71 96.2734 296.569 97.1797C296.444 98.0703 296.382 99.0078 296.382 99.9922V100.672C296.382 101.656 296.444 102.602 296.569 103.508C296.694 104.414 296.929 105.219 297.272 105.922C297.632 106.625 298.124 107.18 298.749 107.586C299.374 107.992 300.187 108.195 301.187 108.195ZM327.413 113.469C325.444 113.469 323.679 113.156 322.116 112.531C320.554 111.891 319.226 111.008 318.132 109.883C317.054 108.758 316.226 107.453 315.647 105.969C315.069 104.469 314.78 102.875 314.78 101.188V100.25C314.78 98.3281 315.054 96.5703 315.601 94.9766C316.147 93.3828 316.929 92 317.944 90.8281C318.976 89.6562 320.226 88.7578 321.694 88.1328C323.163 87.4922 324.819 87.1719 326.663 87.1719C328.46 87.1719 330.054 87.4688 331.444 88.0625C332.835 88.6562 333.999 89.5 334.937 90.5938C335.89 91.6875 336.608 93 337.093 94.5312C337.577 96.0469 337.819 97.7344 337.819 99.5938V102.406H317.663V97.9062H331.187V97.3906C331.187 96.4531 331.015 95.6172 330.671 94.8828C330.343 94.1328 329.843 93.5391 329.171 93.1016C328.499 92.6641 327.64 92.4453 326.593 92.4453C325.702 92.4453 324.937 92.6406 324.296 93.0312C323.655 93.4219 323.132 93.9688 322.726 94.6719C322.335 95.375 322.038 96.2031 321.835 97.1562C321.647 98.0938 321.554 99.125 321.554 100.25V101.188C321.554 102.203 321.694 103.141 321.976 104C322.272 104.859 322.687 105.602 323.218 106.227C323.765 106.852 324.421 107.336 325.187 107.68C325.968 108.023 326.851 108.195 327.835 108.195C329.054 108.195 330.187 107.961 331.233 107.492C332.296 107.008 333.21 106.281 333.976 105.312L337.257 108.875C336.726 109.641 335.999 110.375 335.077 111.078C334.171 111.781 333.077 112.359 331.796 112.812C330.515 113.25 329.054 113.469 327.413 113.469Z" fill="#FFB600"/>
<path d="M144.272 124.768C144.272 124.615 144.249 124.479 144.202 124.357C144.159 124.232 144.077 124.119 143.956 124.018C143.835 123.912 143.665 123.809 143.446 123.707C143.228 123.605 142.944 123.5 142.597 123.391C142.21 123.266 141.843 123.125 141.495 122.969C141.151 122.812 140.847 122.631 140.581 122.424C140.319 122.213 140.112 121.969 139.96 121.691C139.812 121.414 139.737 121.092 139.737 120.725C139.737 120.369 139.815 120.047 139.972 119.758C140.128 119.465 140.347 119.215 140.628 119.008C140.909 118.797 141.241 118.635 141.624 118.521C142.011 118.408 142.435 118.352 142.896 118.352C143.524 118.352 144.073 118.465 144.542 118.691C145.011 118.918 145.374 119.229 145.632 119.623C145.894 120.018 146.024 120.469 146.024 120.977H144.278C144.278 120.727 144.226 120.508 144.12 120.32C144.019 120.129 143.862 119.979 143.651 119.869C143.444 119.76 143.183 119.705 142.866 119.705C142.562 119.705 142.308 119.752 142.104 119.846C141.901 119.936 141.749 120.059 141.647 120.215C141.546 120.367 141.495 120.539 141.495 120.73C141.495 120.875 141.53 121.006 141.601 121.123C141.675 121.24 141.784 121.35 141.929 121.451C142.073 121.553 142.251 121.648 142.462 121.738C142.673 121.828 142.917 121.916 143.194 122.002C143.659 122.143 144.067 122.301 144.419 122.477C144.774 122.652 145.071 122.85 145.31 123.068C145.548 123.287 145.728 123.535 145.849 123.812C145.97 124.09 146.03 124.404 146.03 124.756C146.03 125.127 145.958 125.459 145.813 125.752C145.669 126.045 145.46 126.293 145.187 126.496C144.913 126.699 144.587 126.854 144.208 126.959C143.829 127.064 143.405 127.117 142.937 127.117C142.515 127.117 142.099 127.062 141.688 126.953C141.278 126.84 140.905 126.67 140.569 126.443C140.237 126.217 139.972 125.928 139.772 125.576C139.573 125.225 139.474 124.809 139.474 124.328H141.237C141.237 124.594 141.278 124.818 141.36 125.002C141.442 125.186 141.558 125.334 141.706 125.447C141.858 125.561 142.038 125.643 142.245 125.693C142.456 125.744 142.687 125.77 142.937 125.77C143.241 125.77 143.491 125.727 143.687 125.641C143.886 125.555 144.032 125.436 144.126 125.283C144.224 125.131 144.272 124.959 144.272 124.768ZM148.808 117.994V127H147.12V117.994H148.808ZM152.804 120.66L150.05 123.801L148.573 125.295L147.958 124.076L149.13 122.588L150.776 120.66H152.804ZM151.052 127L149.177 124.07L150.343 123.051L152.997 127H151.052ZM155.312 120.66V127H153.618V120.66H155.312ZM153.513 119.008C153.513 118.762 153.599 118.559 153.771 118.398C153.942 118.238 154.173 118.158 154.462 118.158C154.747 118.158 154.976 118.238 155.147 118.398C155.323 118.559 155.411 118.762 155.411 119.008C155.411 119.254 155.323 119.457 155.147 119.617C154.976 119.777 154.747 119.857 154.462 119.857C154.173 119.857 153.942 119.777 153.771 119.617C153.599 119.457 153.513 119.254 153.513 119.008ZM158.358 122.014V127H156.671V120.66H158.253L158.358 122.014ZM158.112 123.607H157.655C157.655 123.139 157.716 122.717 157.837 122.342C157.958 121.963 158.128 121.641 158.347 121.375C158.565 121.105 158.825 120.9 159.126 120.76C159.431 120.615 159.771 120.543 160.146 120.543C160.442 120.543 160.714 120.586 160.96 120.672C161.206 120.758 161.417 120.895 161.593 121.082C161.772 121.27 161.909 121.518 162.003 121.826C162.101 122.135 162.149 122.512 162.149 122.957V127H160.45V122.951C160.45 122.67 160.411 122.451 160.333 122.295C160.255 122.139 160.14 122.029 159.987 121.967C159.839 121.9 159.655 121.867 159.437 121.867C159.21 121.867 159.013 121.912 158.845 122.002C158.681 122.092 158.544 122.217 158.435 122.377C158.329 122.533 158.249 122.717 158.194 122.928C158.14 123.139 158.112 123.365 158.112 123.607ZM169.995 119.928L167.675 127H165.806L168.976 118.469H170.165L169.995 119.928ZM171.923 127L169.597 119.928L169.409 118.469H170.61L173.798 127H171.923ZM171.817 123.824V125.201H167.312V123.824H171.817ZM175.948 122.014V127H174.261V120.66H175.843L175.948 122.014ZM175.702 123.607H175.245C175.245 123.139 175.306 122.717 175.427 122.342C175.548 121.963 175.718 121.641 175.937 121.375C176.155 121.105 176.415 120.9 176.716 120.76C177.021 120.615 177.36 120.543 177.735 120.543C178.032 120.543 178.304 120.586 178.55 120.672C178.796 120.758 179.007 120.895 179.183 121.082C179.362 121.27 179.499 121.518 179.593 121.826C179.69 122.135 179.739 122.512 179.739 122.957V127H178.04V122.951C178.04 122.67 178.001 122.451 177.923 122.295C177.845 122.139 177.729 122.029 177.577 121.967C177.429 121.9 177.245 121.867 177.026 121.867C176.8 121.867 176.603 121.912 176.435 122.002C176.271 122.092 176.134 122.217 176.024 122.377C175.919 122.533 175.839 122.717 175.784 122.928C175.729 123.139 175.702 123.365 175.702 123.607ZM184.128 120.66V121.855H180.437V120.66H184.128ZM181.351 119.096H183.038V125.09C183.038 125.273 183.062 125.414 183.108 125.512C183.159 125.609 183.233 125.678 183.331 125.717C183.429 125.752 183.552 125.77 183.7 125.77C183.806 125.77 183.899 125.766 183.981 125.758C184.067 125.746 184.14 125.734 184.198 125.723L184.204 126.965C184.06 127.012 183.903 127.049 183.735 127.076C183.567 127.104 183.382 127.117 183.179 127.117C182.808 127.117 182.483 127.057 182.206 126.936C181.933 126.811 181.722 126.611 181.573 126.338C181.425 126.064 181.351 125.705 181.351 125.26V119.096ZM186.87 120.66V127H185.177V120.66H186.87ZM185.071 119.008C185.071 118.762 185.157 118.559 185.329 118.398C185.501 118.238 185.731 118.158 186.021 118.158C186.306 118.158 186.534 118.238 186.706 118.398C186.882 118.559 186.97 118.762 186.97 119.008C186.97 119.254 186.882 119.457 186.706 119.617C186.534 119.777 186.306 119.857 186.021 119.857C185.731 119.857 185.501 119.777 185.329 119.617C185.157 119.457 185.071 119.254 185.071 119.008ZM191.687 125.57V122.746C191.687 122.543 191.653 122.369 191.587 122.225C191.521 122.076 191.417 121.961 191.276 121.879C191.14 121.797 190.962 121.756 190.743 121.756C190.556 121.756 190.394 121.789 190.257 121.855C190.12 121.918 190.015 122.01 189.94 122.131C189.866 122.248 189.829 122.387 189.829 122.547H188.142C188.142 122.277 188.204 122.021 188.329 121.779C188.454 121.537 188.636 121.324 188.874 121.141C189.112 120.953 189.396 120.807 189.724 120.701C190.056 120.596 190.427 120.543 190.837 120.543C191.329 120.543 191.767 120.625 192.149 120.789C192.532 120.953 192.833 121.199 193.052 121.527C193.274 121.855 193.386 122.266 193.386 122.758V125.471C193.386 125.818 193.407 126.104 193.45 126.326C193.493 126.545 193.556 126.736 193.638 126.9V127H191.933C191.851 126.828 191.788 126.613 191.745 126.355C191.706 126.094 191.687 125.832 191.687 125.57ZM191.909 123.139L191.921 124.094H190.978C190.755 124.094 190.562 124.119 190.397 124.17C190.233 124.221 190.099 124.293 189.993 124.387C189.888 124.477 189.81 124.582 189.759 124.703C189.712 124.824 189.688 124.957 189.688 125.102C189.688 125.246 189.722 125.377 189.788 125.494C189.854 125.607 189.95 125.697 190.075 125.764C190.2 125.826 190.347 125.857 190.515 125.857C190.769 125.857 190.989 125.807 191.177 125.705C191.364 125.604 191.509 125.479 191.61 125.33C191.716 125.182 191.771 125.041 191.774 124.908L192.22 125.623C192.157 125.783 192.071 125.949 191.962 126.121C191.856 126.293 191.722 126.455 191.558 126.607C191.394 126.756 191.196 126.879 190.966 126.977C190.735 127.07 190.462 127.117 190.146 127.117C189.743 127.117 189.378 127.037 189.05 126.877C188.726 126.713 188.468 126.488 188.276 126.203C188.089 125.914 187.995 125.586 187.995 125.219C187.995 124.887 188.058 124.592 188.183 124.334C188.308 124.076 188.491 123.859 188.733 123.684C188.979 123.504 189.286 123.369 189.653 123.279C190.021 123.186 190.446 123.139 190.931 123.139H191.909ZM198.7 120.66H200.229V126.789C200.229 127.367 200.101 127.857 199.843 128.26C199.589 128.666 199.233 128.973 198.776 129.18C198.319 129.391 197.788 129.496 197.183 129.496C196.917 129.496 196.636 129.461 196.339 129.391C196.046 129.32 195.765 129.211 195.495 129.062C195.229 128.914 195.007 128.727 194.827 128.5L195.571 127.504C195.767 127.73 195.993 127.906 196.251 128.031C196.509 128.16 196.794 128.225 197.106 128.225C197.411 128.225 197.669 128.168 197.88 128.055C198.091 127.945 198.253 127.783 198.366 127.568C198.479 127.357 198.536 127.102 198.536 126.801V122.125L198.7 120.66ZM194.435 123.906V123.783C194.435 123.299 194.493 122.859 194.61 122.465C194.731 122.066 194.901 121.725 195.12 121.439C195.343 121.154 195.612 120.934 195.929 120.777C196.245 120.621 196.603 120.543 197.001 120.543C197.423 120.543 197.776 120.621 198.062 120.777C198.347 120.934 198.581 121.156 198.765 121.445C198.948 121.73 199.091 122.068 199.192 122.459C199.298 122.846 199.38 123.27 199.438 123.73V124C199.38 124.441 199.292 124.852 199.175 125.23C199.058 125.609 198.903 125.941 198.712 126.227C198.521 126.508 198.282 126.727 197.997 126.883C197.716 127.039 197.38 127.117 196.989 127.117C196.599 127.117 196.245 127.037 195.929 126.877C195.616 126.717 195.349 126.492 195.126 126.203C194.903 125.914 194.731 125.574 194.61 125.184C194.493 124.793 194.435 124.367 194.435 123.906ZM196.122 123.783V123.906C196.122 124.168 196.147 124.412 196.198 124.639C196.249 124.865 196.327 125.066 196.433 125.242C196.542 125.414 196.677 125.549 196.837 125.646C197.001 125.74 197.194 125.787 197.417 125.787C197.726 125.787 197.978 125.723 198.173 125.594C198.368 125.461 198.515 125.279 198.612 125.049C198.71 124.818 198.767 124.553 198.782 124.252V123.484C198.774 123.238 198.741 123.018 198.683 122.822C198.624 122.623 198.542 122.453 198.437 122.312C198.331 122.172 198.194 122.062 198.026 121.984C197.858 121.906 197.659 121.867 197.429 121.867C197.206 121.867 197.013 121.918 196.849 122.02C196.688 122.117 196.554 122.252 196.444 122.424C196.339 122.596 196.259 122.799 196.204 123.033C196.149 123.264 196.122 123.514 196.122 123.783ZM203.323 120.66V127H201.63V120.66H203.323ZM201.524 119.008C201.524 118.762 201.61 118.559 201.782 118.398C201.954 118.238 202.185 118.158 202.474 118.158C202.759 118.158 202.987 118.238 203.159 118.398C203.335 118.559 203.423 118.762 203.423 119.008C203.423 119.254 203.335 119.457 203.159 119.617C202.987 119.777 202.759 119.857 202.474 119.857C202.185 119.857 201.954 119.777 201.782 119.617C201.61 119.457 201.524 119.254 201.524 119.008ZM206.37 122.014V127H204.683V120.66H206.265L206.37 122.014ZM206.124 123.607H205.667C205.667 123.139 205.728 122.717 205.849 122.342C205.97 121.963 206.14 121.641 206.358 121.375C206.577 121.105 206.837 120.9 207.138 120.76C207.442 120.615 207.782 120.543 208.157 120.543C208.454 120.543 208.726 120.586 208.972 120.672C209.218 120.758 209.429 120.895 209.604 121.082C209.784 121.27 209.921 121.518 210.015 121.826C210.112 122.135 210.161 122.512 210.161 122.957V127H208.462V122.951C208.462 122.67 208.423 122.451 208.345 122.295C208.267 122.139 208.151 122.029 207.999 121.967C207.851 121.9 207.667 121.867 207.448 121.867C207.222 121.867 207.024 121.912 206.856 122.002C206.692 122.092 206.556 122.217 206.446 122.377C206.341 122.533 206.261 122.717 206.206 122.928C206.151 123.139 206.124 123.365 206.124 123.607ZM215.458 120.66H216.987V126.789C216.987 127.367 216.858 127.857 216.601 128.26C216.347 128.666 215.991 128.973 215.534 129.18C215.077 129.391 214.546 129.496 213.94 129.496C213.675 129.496 213.394 129.461 213.097 129.391C212.804 129.32 212.522 129.211 212.253 129.062C211.987 128.914 211.765 128.727 211.585 128.5L212.329 127.504C212.524 127.73 212.751 127.906 213.009 128.031C213.267 128.16 213.552 128.225 213.864 128.225C214.169 128.225 214.427 128.168 214.638 128.055C214.849 127.945 215.011 127.783 215.124 127.568C215.237 127.357 215.294 127.102 215.294 126.801V122.125L215.458 120.66ZM211.192 123.906V123.783C211.192 123.299 211.251 122.859 211.368 122.465C211.489 122.066 211.659 121.725 211.878 121.439C212.101 121.154 212.37 120.934 212.687 120.777C213.003 120.621 213.36 120.543 213.759 120.543C214.181 120.543 214.534 120.621 214.819 120.777C215.104 120.934 215.339 121.156 215.522 121.445C215.706 121.73 215.849 122.068 215.95 122.459C216.056 122.846 216.138 123.27 216.196 123.73V124C216.138 124.441 216.05 124.852 215.933 125.23C215.815 125.609 215.661 125.941 215.47 126.227C215.278 126.508 215.04 126.727 214.755 126.883C214.474 127.039 214.138 127.117 213.747 127.117C213.356 127.117 213.003 127.037 212.687 126.877C212.374 126.717 212.106 126.492 211.884 126.203C211.661 125.914 211.489 125.574 211.368 125.184C211.251 124.793 211.192 124.367 211.192 123.906ZM212.88 123.783V123.906C212.88 124.168 212.905 124.412 212.956 124.639C213.007 124.865 213.085 125.066 213.19 125.242C213.3 125.414 213.435 125.549 213.595 125.646C213.759 125.74 213.952 125.787 214.175 125.787C214.483 125.787 214.735 125.723 214.931 125.594C215.126 125.461 215.272 125.279 215.37 125.049C215.468 124.818 215.524 124.553 215.54 124.252V123.484C215.532 123.238 215.499 123.018 215.44 122.822C215.382 122.623 215.3 122.453 215.194 122.312C215.089 122.172 214.952 122.062 214.784 121.984C214.616 121.906 214.417 121.867 214.187 121.867C213.964 121.867 213.771 121.918 213.606 122.02C213.446 122.117 213.312 122.252 213.202 122.424C213.097 122.596 213.017 122.799 212.962 123.033C212.907 123.264 212.88 123.514 212.88 123.783ZM222.63 122.436L224.271 121.375C224.513 121.215 224.675 121.061 224.757 120.912C224.839 120.764 224.88 120.598 224.88 120.414C224.88 120.23 224.812 120.061 224.675 119.904C224.538 119.744 224.347 119.664 224.101 119.664C223.925 119.664 223.776 119.705 223.655 119.787C223.534 119.865 223.442 119.971 223.38 120.104C223.321 120.236 223.292 120.385 223.292 120.549C223.292 120.725 223.339 120.904 223.433 121.088C223.526 121.268 223.653 121.459 223.813 121.662C223.974 121.861 224.151 122.078 224.347 122.312L228.372 127H226.456L223.175 123.203C222.897 122.859 222.655 122.545 222.448 122.26C222.241 121.971 222.079 121.689 221.962 121.416C221.845 121.143 221.786 120.861 221.786 120.572C221.786 120.127 221.882 119.738 222.073 119.406C222.265 119.07 222.534 118.811 222.882 118.627C223.229 118.439 223.638 118.346 224.106 118.346C224.548 118.346 224.931 118.438 225.255 118.621C225.579 118.801 225.829 119.039 226.005 119.336C226.185 119.633 226.274 119.959 226.274 120.314C226.274 120.58 226.226 120.826 226.128 121.053C226.03 121.275 225.896 121.482 225.724 121.674C225.552 121.861 225.354 122.035 225.132 122.195L223.263 123.525C223.118 123.658 223.009 123.789 222.935 123.918C222.86 124.047 222.81 124.17 222.782 124.287C222.755 124.4 222.741 124.51 222.741 124.615C222.741 124.842 222.79 125.045 222.888 125.225C222.985 125.404 223.122 125.545 223.298 125.646C223.474 125.748 223.679 125.799 223.913 125.799C224.233 125.799 224.544 125.729 224.845 125.588C225.146 125.447 225.415 125.246 225.653 124.984C225.892 124.719 226.081 124.404 226.222 124.041C226.362 123.678 226.433 123.277 226.433 122.84H227.862C227.862 123.277 227.819 123.693 227.733 124.088C227.647 124.479 227.509 124.842 227.317 125.178C227.126 125.51 226.872 125.805 226.556 126.062C226.532 126.082 226.499 126.111 226.456 126.15C226.417 126.186 226.384 126.213 226.356 126.232C225.981 126.533 225.591 126.758 225.185 126.906C224.778 127.051 224.325 127.123 223.825 127.123C223.255 127.123 222.761 127.02 222.343 126.812C221.929 126.605 221.608 126.32 221.382 125.957C221.159 125.594 221.048 125.178 221.048 124.709C221.048 124.365 221.114 124.066 221.247 123.812C221.384 123.555 221.571 123.316 221.81 123.098C222.048 122.879 222.321 122.658 222.63 122.436ZM237.97 121.943V123.314H233.517V121.943H237.97ZM234.038 118.469V127H232.28V118.469H234.038ZM239.224 118.469V127H237.472V118.469H239.224ZM244.069 125.57V122.746C244.069 122.543 244.036 122.369 243.97 122.225C243.903 122.076 243.8 121.961 243.659 121.879C243.522 121.797 243.345 121.756 243.126 121.756C242.938 121.756 242.776 121.789 242.64 121.855C242.503 121.918 242.397 122.01 242.323 122.131C242.249 122.248 242.212 122.387 242.212 122.547H240.524C240.524 122.277 240.587 122.021 240.712 121.779C240.837 121.537 241.019 121.324 241.257 121.141C241.495 120.953 241.778 120.807 242.106 120.701C242.438 120.596 242.81 120.543 243.22 120.543C243.712 120.543 244.149 120.625 244.532 120.789C244.915 120.953 245.216 121.199 245.435 121.527C245.657 121.855 245.769 122.266 245.769 122.758V125.471C245.769 125.818 245.79 126.104 245.833 126.326C245.876 126.545 245.938 126.736 246.021 126.9V127H244.315C244.233 126.828 244.171 126.613 244.128 126.355C244.089 126.094 244.069 125.832 244.069 125.57ZM244.292 123.139L244.304 124.094H243.36C243.138 124.094 242.944 124.119 242.78 124.17C242.616 124.221 242.481 124.293 242.376 124.387C242.271 124.477 242.192 124.582 242.142 124.703C242.095 124.824 242.071 124.957 242.071 125.102C242.071 125.246 242.104 125.377 242.171 125.494C242.237 125.607 242.333 125.697 242.458 125.764C242.583 125.826 242.729 125.857 242.897 125.857C243.151 125.857 243.372 125.807 243.56 125.705C243.747 125.604 243.892 125.479 243.993 125.33C244.099 125.182 244.153 125.041 244.157 124.908L244.603 125.623C244.54 125.783 244.454 125.949 244.345 126.121C244.239 126.293 244.104 126.455 243.94 126.607C243.776 126.756 243.579 126.879 243.349 126.977C243.118 127.07 242.845 127.117 242.528 127.117C242.126 127.117 241.761 127.037 241.433 126.877C241.108 126.713 240.851 126.488 240.659 126.203C240.472 125.914 240.378 125.586 240.378 125.219C240.378 124.887 240.44 124.592 240.565 124.334C240.69 124.076 240.874 123.859 241.116 123.684C241.362 123.504 241.669 123.369 242.036 123.279C242.403 123.186 242.829 123.139 243.313 123.139H244.292ZM248.851 120.66V127H247.157V120.66H248.851ZM247.052 119.008C247.052 118.762 247.138 118.559 247.31 118.398C247.481 118.238 247.712 118.158 248.001 118.158C248.286 118.158 248.515 118.238 248.687 118.398C248.862 118.559 248.95 118.762 248.95 119.008C248.95 119.254 248.862 119.457 248.687 119.617C248.515 119.777 248.286 119.857 248.001 119.857C247.712 119.857 247.481 119.777 247.31 119.617C247.138 119.457 247.052 119.254 247.052 119.008ZM251.933 122.043V127H250.245V120.66H251.833L251.933 122.043ZM253.843 120.619L253.813 122.184C253.731 122.172 253.632 122.162 253.515 122.154C253.401 122.143 253.298 122.137 253.204 122.137C252.966 122.137 252.759 122.168 252.583 122.23C252.411 122.289 252.267 122.377 252.149 122.494C252.036 122.611 251.95 122.754 251.892 122.922C251.837 123.09 251.806 123.281 251.798 123.496L251.458 123.391C251.458 122.98 251.499 122.604 251.581 122.26C251.663 121.912 251.782 121.609 251.938 121.352C252.099 121.094 252.294 120.895 252.524 120.754C252.755 120.613 253.019 120.543 253.315 120.543C253.409 120.543 253.505 120.551 253.603 120.566C253.7 120.578 253.78 120.596 253.843 120.619ZM258.038 120.66V121.855H254.347V120.66H258.038ZM255.261 119.096H256.948V125.09C256.948 125.273 256.972 125.414 257.019 125.512C257.069 125.609 257.144 125.678 257.241 125.717C257.339 125.752 257.462 125.77 257.61 125.77C257.716 125.77 257.81 125.766 257.892 125.758C257.978 125.746 258.05 125.734 258.108 125.723L258.114 126.965C257.97 127.012 257.813 127.049 257.646 127.076C257.478 127.104 257.292 127.117 257.089 127.117C256.718 127.117 256.394 127.057 256.116 126.936C255.843 126.811 255.632 126.611 255.483 126.338C255.335 126.064 255.261 125.705 255.261 125.26V119.096ZM260.687 122.043V127H258.999V120.66H260.587L260.687 122.043ZM262.597 120.619L262.567 122.184C262.485 122.172 262.386 122.162 262.269 122.154C262.155 122.143 262.052 122.137 261.958 122.137C261.72 122.137 261.513 122.168 261.337 122.23C261.165 122.289 261.021 122.377 260.903 122.494C260.79 122.611 260.704 122.754 260.646 122.922C260.591 123.09 260.56 123.281 260.552 123.496L260.212 123.391C260.212 122.98 260.253 122.604 260.335 122.26C260.417 121.912 260.536 121.609 260.692 121.352C260.853 121.094 261.048 120.895 261.278 120.754C261.509 120.613 261.772 120.543 262.069 120.543C262.163 120.543 262.259 120.551 262.356 120.566C262.454 120.578 262.534 120.596 262.597 120.619ZM266.616 125.57V122.746C266.616 122.543 266.583 122.369 266.517 122.225C266.45 122.076 266.347 121.961 266.206 121.879C266.069 121.797 265.892 121.756 265.673 121.756C265.485 121.756 265.323 121.789 265.187 121.855C265.05 121.918 264.944 122.01 264.87 122.131C264.796 122.248 264.759 122.387 264.759 122.547H263.071C263.071 122.277 263.134 122.021 263.259 121.779C263.384 121.537 263.565 121.324 263.804 121.141C264.042 120.953 264.325 120.807 264.653 120.701C264.985 120.596 265.356 120.543 265.767 120.543C266.259 120.543 266.696 120.625 267.079 120.789C267.462 120.953 267.763 121.199 267.981 121.527C268.204 121.855 268.315 122.266 268.315 122.758V125.471C268.315 125.818 268.337 126.104 268.38 126.326C268.423 126.545 268.485 126.736 268.567 126.9V127H266.862C266.78 126.828 266.718 126.613 266.675 126.355C266.636 126.094 266.616 125.832 266.616 125.57ZM266.839 123.139L266.851 124.094H265.907C265.685 124.094 265.491 124.119 265.327 124.17C265.163 124.221 265.028 124.293 264.923 124.387C264.817 124.477 264.739 124.582 264.688 124.703C264.642 124.824 264.618 124.957 264.618 125.102C264.618 125.246 264.651 125.377 264.718 125.494C264.784 125.607 264.88 125.697 265.005 125.764C265.13 125.826 265.276 125.857 265.444 125.857C265.698 125.857 265.919 125.807 266.106 125.705C266.294 125.604 266.438 125.479 266.54 125.33C266.646 125.182 266.7 125.041 266.704 124.908L267.149 125.623C267.087 125.783 267.001 125.949 266.892 126.121C266.786 126.293 266.651 126.455 266.487 126.607C266.323 126.756 266.126 126.879 265.896 126.977C265.665 127.07 265.392 127.117 265.075 127.117C264.673 127.117 264.308 127.037 263.979 126.877C263.655 126.713 263.397 126.488 263.206 126.203C263.019 125.914 262.925 125.586 262.925 125.219C262.925 124.887 262.987 124.592 263.112 124.334C263.237 124.076 263.421 123.859 263.663 123.684C263.909 123.504 264.216 123.369 264.583 123.279C264.95 123.186 265.376 123.139 265.86 123.139H266.839ZM271.269 122.014V127H269.581V120.66H271.163L271.269 122.014ZM271.022 123.607H270.565C270.565 123.139 270.626 122.717 270.747 122.342C270.868 121.963 271.038 121.641 271.257 121.375C271.476 121.105 271.735 120.9 272.036 120.76C272.341 120.615 272.681 120.543 273.056 120.543C273.353 120.543 273.624 120.586 273.87 120.672C274.116 120.758 274.327 120.895 274.503 121.082C274.683 121.27 274.819 121.518 274.913 121.826C275.011 122.135 275.06 122.512 275.06 122.957V127H273.36V122.951C273.36 122.67 273.321 122.451 273.243 122.295C273.165 122.139 273.05 122.029 272.897 121.967C272.749 121.9 272.565 121.867 272.347 121.867C272.12 121.867 271.923 121.912 271.755 122.002C271.591 122.092 271.454 122.217 271.345 122.377C271.239 122.533 271.159 122.717 271.104 122.928C271.05 123.139 271.022 123.365 271.022 123.607ZM279.771 125.248C279.771 125.127 279.735 125.018 279.665 124.92C279.595 124.822 279.464 124.732 279.272 124.65C279.085 124.564 278.813 124.486 278.458 124.416C278.138 124.346 277.839 124.258 277.562 124.152C277.288 124.043 277.05 123.912 276.847 123.76C276.647 123.607 276.491 123.428 276.378 123.221C276.265 123.01 276.208 122.77 276.208 122.5C276.208 122.234 276.265 121.984 276.378 121.75C276.495 121.516 276.661 121.309 276.876 121.129C277.095 120.945 277.36 120.803 277.673 120.701C277.989 120.596 278.345 120.543 278.739 120.543C279.29 120.543 279.763 120.631 280.157 120.807C280.556 120.982 280.86 121.225 281.071 121.533C281.286 121.838 281.394 122.186 281.394 122.576H279.706C279.706 122.412 279.671 122.266 279.601 122.137C279.534 122.004 279.429 121.9 279.284 121.826C279.144 121.748 278.96 121.709 278.733 121.709C278.546 121.709 278.384 121.742 278.247 121.809C278.11 121.871 278.005 121.957 277.931 122.066C277.86 122.172 277.825 122.289 277.825 122.418C277.825 122.516 277.845 122.604 277.884 122.682C277.927 122.756 277.995 122.824 278.089 122.887C278.183 122.949 278.304 123.008 278.452 123.062C278.604 123.113 278.792 123.16 279.015 123.203C279.472 123.297 279.88 123.42 280.239 123.572C280.599 123.721 280.884 123.924 281.095 124.182C281.306 124.436 281.411 124.77 281.411 125.184C281.411 125.465 281.349 125.723 281.224 125.957C281.099 126.191 280.919 126.396 280.685 126.572C280.45 126.744 280.169 126.879 279.841 126.977C279.517 127.07 279.151 127.117 278.745 127.117C278.155 127.117 277.655 127.012 277.245 126.801C276.839 126.59 276.53 126.322 276.319 125.998C276.112 125.67 276.009 125.334 276.009 124.99H277.608C277.616 125.221 277.675 125.406 277.784 125.547C277.897 125.688 278.04 125.789 278.212 125.852C278.388 125.914 278.577 125.945 278.78 125.945C278.999 125.945 279.181 125.916 279.325 125.857C279.47 125.795 279.579 125.713 279.653 125.611C279.731 125.506 279.771 125.385 279.771 125.248ZM284.194 121.879V129.438H282.507V120.66H284.071L284.194 121.879ZM288.208 123.76V123.883C288.208 124.344 288.153 124.771 288.044 125.166C287.938 125.561 287.782 125.904 287.575 126.197C287.368 126.486 287.11 126.713 286.802 126.877C286.497 127.037 286.146 127.117 285.747 127.117C285.36 127.117 285.024 127.039 284.739 126.883C284.454 126.727 284.214 126.508 284.019 126.227C283.827 125.941 283.673 125.611 283.556 125.236C283.438 124.861 283.349 124.459 283.286 124.029V123.707C283.349 123.246 283.438 122.824 283.556 122.441C283.673 122.055 283.827 121.721 284.019 121.439C284.214 121.154 284.452 120.934 284.733 120.777C285.019 120.621 285.353 120.543 285.735 120.543C286.138 120.543 286.491 120.619 286.796 120.771C287.104 120.924 287.362 121.143 287.569 121.428C287.78 121.713 287.938 122.053 288.044 122.447C288.153 122.842 288.208 123.279 288.208 123.76ZM286.515 123.883V123.76C286.515 123.49 286.491 123.242 286.444 123.016C286.401 122.785 286.331 122.584 286.233 122.412C286.14 122.24 286.015 122.107 285.858 122.014C285.706 121.916 285.521 121.867 285.302 121.867C285.071 121.867 284.874 121.904 284.71 121.979C284.55 122.053 284.419 122.16 284.317 122.301C284.216 122.441 284.14 122.609 284.089 122.805C284.038 123 284.007 123.221 283.995 123.467V124.281C284.015 124.57 284.069 124.83 284.159 125.061C284.249 125.287 284.388 125.467 284.575 125.6C284.763 125.732 285.009 125.799 285.313 125.799C285.536 125.799 285.724 125.75 285.876 125.652C286.028 125.551 286.151 125.412 286.245 125.236C286.343 125.061 286.411 124.857 286.45 124.627C286.493 124.396 286.515 124.148 286.515 123.883ZM291.038 118V127H289.345V118H291.038ZM295.854 125.57V122.746C295.854 122.543 295.821 122.369 295.755 122.225C295.688 122.076 295.585 121.961 295.444 121.879C295.308 121.797 295.13 121.756 294.911 121.756C294.724 121.756 294.562 121.789 294.425 121.855C294.288 121.918 294.183 122.01 294.108 122.131C294.034 122.248 293.997 122.387 293.997 122.547H292.31C292.31 122.277 292.372 122.021 292.497 121.779C292.622 121.537 292.804 121.324 293.042 121.141C293.28 120.953 293.563 120.807 293.892 120.701C294.224 120.596 294.595 120.543 295.005 120.543C295.497 120.543 295.935 120.625 296.317 120.789C296.7 120.953 297.001 121.199 297.22 121.527C297.442 121.855 297.554 122.266 297.554 122.758V125.471C297.554 125.818 297.575 126.104 297.618 126.326C297.661 126.545 297.724 126.736 297.806 126.9V127H296.101C296.019 126.828 295.956 126.613 295.913 126.355C295.874 126.094 295.854 125.832 295.854 125.57ZM296.077 123.139L296.089 124.094H295.146C294.923 124.094 294.729 124.119 294.565 124.17C294.401 124.221 294.267 124.293 294.161 124.387C294.056 124.477 293.978 124.582 293.927 124.703C293.88 124.824 293.856 124.957 293.856 125.102C293.856 125.246 293.89 125.377 293.956 125.494C294.022 125.607 294.118 125.697 294.243 125.764C294.368 125.826 294.515 125.857 294.683 125.857C294.937 125.857 295.157 125.807 295.345 125.705C295.532 125.604 295.677 125.479 295.778 125.33C295.884 125.182 295.938 125.041 295.942 124.908L296.388 125.623C296.325 125.783 296.239 125.949 296.13 126.121C296.024 126.293 295.89 126.455 295.726 126.607C295.562 126.756 295.364 126.879 295.134 126.977C294.903 127.07 294.63 127.117 294.313 127.117C293.911 127.117 293.546 127.037 293.218 126.877C292.894 126.713 292.636 126.488 292.444 126.203C292.257 125.914 292.163 125.586 292.163 125.219C292.163 124.887 292.226 124.592 292.351 124.334C292.476 124.076 292.659 123.859 292.901 123.684C293.147 123.504 293.454 123.369 293.821 123.279C294.188 123.186 294.614 123.139 295.099 123.139H296.077ZM300.507 122.014V127H298.819V120.66H300.401L300.507 122.014ZM300.261 123.607H299.804C299.804 123.139 299.864 122.717 299.985 122.342C300.106 121.963 300.276 121.641 300.495 121.375C300.714 121.105 300.974 120.9 301.274 120.76C301.579 120.615 301.919 120.543 302.294 120.543C302.591 120.543 302.862 120.586 303.108 120.672C303.354 120.758 303.565 120.895 303.741 121.082C303.921 121.27 304.058 121.518 304.151 121.826C304.249 122.135 304.298 122.512 304.298 122.957V127H302.599V122.951C302.599 122.67 302.56 122.451 302.481 122.295C302.403 122.139 302.288 122.029 302.136 121.967C301.987 121.9 301.804 121.867 301.585 121.867C301.358 121.867 301.161 121.912 300.993 122.002C300.829 122.092 300.692 122.217 300.583 122.377C300.478 122.533 300.397 122.717 300.343 122.928C300.288 123.139 300.261 123.365 300.261 123.607ZM308.687 120.66V121.855H304.995V120.66H308.687ZM305.909 119.096H307.597V125.09C307.597 125.273 307.62 125.414 307.667 125.512C307.718 125.609 307.792 125.678 307.89 125.717C307.987 125.752 308.11 125.77 308.259 125.77C308.364 125.77 308.458 125.766 308.54 125.758C308.626 125.746 308.698 125.734 308.757 125.723L308.763 126.965C308.618 127.012 308.462 127.049 308.294 127.076C308.126 127.104 307.94 127.117 307.737 127.117C307.366 127.117 307.042 127.057 306.765 126.936C306.491 126.811 306.28 126.611 306.132 126.338C305.983 126.064 305.909 125.705 305.909 125.26V119.096ZM317.687 124.17H319.438C319.403 124.744 319.245 125.254 318.964 125.699C318.687 126.145 318.298 126.492 317.798 126.742C317.302 126.992 316.704 127.117 316.005 127.117C315.458 127.117 314.968 127.023 314.534 126.836C314.101 126.645 313.729 126.371 313.421 126.016C313.116 125.66 312.884 125.23 312.724 124.727C312.563 124.223 312.483 123.658 312.483 123.033V122.441C312.483 121.816 312.565 121.252 312.729 120.748C312.897 120.24 313.136 119.809 313.444 119.453C313.757 119.098 314.13 118.824 314.563 118.633C314.997 118.441 315.481 118.346 316.017 118.346C316.728 118.346 317.327 118.475 317.815 118.732C318.308 118.99 318.688 119.346 318.958 119.799C319.231 120.252 319.396 120.768 319.45 121.346H317.692C317.673 121.002 317.604 120.711 317.487 120.473C317.37 120.23 317.192 120.049 316.954 119.928C316.72 119.803 316.407 119.74 316.017 119.74C315.724 119.74 315.468 119.795 315.249 119.904C315.03 120.014 314.847 120.18 314.698 120.402C314.55 120.625 314.438 120.906 314.364 121.246C314.294 121.582 314.259 121.977 314.259 122.43V123.033C314.259 123.475 314.292 123.863 314.358 124.199C314.425 124.531 314.526 124.812 314.663 125.043C314.804 125.27 314.983 125.441 315.202 125.559C315.425 125.672 315.692 125.729 316.005 125.729C316.372 125.729 316.675 125.67 316.913 125.553C317.151 125.436 317.333 125.262 317.458 125.031C317.587 124.801 317.663 124.514 317.687 124.17ZM322.269 118V127H320.575V118H322.269ZM325.444 120.66V127H323.751V120.66H325.444ZM323.646 119.008C323.646 118.762 323.731 118.559 323.903 118.398C324.075 118.238 324.306 118.158 324.595 118.158C324.88 118.158 325.108 118.238 325.28 118.398C325.456 118.559 325.544 118.762 325.544 119.008C325.544 119.254 325.456 119.457 325.28 119.617C325.108 119.777 324.88 119.857 324.595 119.857C324.306 119.857 324.075 119.777 323.903 119.617C323.731 119.457 323.646 119.254 323.646 119.008ZM328.491 122.014V127H326.804V120.66H328.386L328.491 122.014ZM328.245 123.607H327.788C327.788 123.139 327.849 122.717 327.97 122.342C328.091 121.963 328.261 121.641 328.479 121.375C328.698 121.105 328.958 120.9 329.259 120.76C329.563 120.615 329.903 120.543 330.278 120.543C330.575 120.543 330.847 120.586 331.093 120.672C331.339 120.758 331.55 120.895 331.726 121.082C331.905 121.27 332.042 121.518 332.136 121.826C332.233 122.135 332.282 122.512 332.282 122.957V127H330.583V122.951C330.583 122.67 330.544 122.451 330.466 122.295C330.388 122.139 330.272 122.029 330.12 121.967C329.972 121.9 329.788 121.867 329.569 121.867C329.343 121.867 329.146 121.912 328.978 122.002C328.813 122.092 328.677 122.217 328.567 122.377C328.462 122.533 328.382 122.717 328.327 122.928C328.272 123.139 328.245 123.365 328.245 123.607ZM335.347 120.66V127H333.653V120.66H335.347ZM333.548 119.008C333.548 118.762 333.634 118.559 333.806 118.398C333.978 118.238 334.208 118.158 334.497 118.158C334.782 118.158 335.011 118.238 335.183 118.398C335.358 118.559 335.446 118.762 335.446 119.008C335.446 119.254 335.358 119.457 335.183 119.617C335.011 119.777 334.782 119.857 334.497 119.857C334.208 119.857 333.978 119.777 333.806 119.617C333.634 119.457 333.548 119.254 333.548 119.008ZM339.36 125.799C339.567 125.799 339.751 125.76 339.911 125.682C340.071 125.6 340.196 125.486 340.286 125.342C340.38 125.193 340.429 125.02 340.433 124.82H342.021C342.017 125.266 341.897 125.662 341.663 126.01C341.429 126.354 341.114 126.625 340.72 126.824C340.325 127.02 339.884 127.117 339.396 127.117C338.903 127.117 338.474 127.035 338.106 126.871C337.743 126.707 337.44 126.48 337.198 126.191C336.956 125.898 336.774 125.559 336.653 125.172C336.532 124.781 336.472 124.363 336.472 123.918V123.748C336.472 123.299 336.532 122.881 336.653 122.494C336.774 122.104 336.956 121.764 337.198 121.475C337.44 121.182 337.743 120.953 338.106 120.789C338.47 120.625 338.896 120.543 339.384 120.543C339.903 120.543 340.358 120.643 340.749 120.842C341.144 121.041 341.452 121.326 341.675 121.697C341.901 122.064 342.017 122.5 342.021 123.004H340.433C340.429 122.793 340.384 122.602 340.298 122.43C340.216 122.258 340.095 122.121 339.935 122.02C339.778 121.914 339.585 121.861 339.354 121.861C339.108 121.861 338.907 121.914 338.751 122.02C338.595 122.121 338.474 122.262 338.388 122.441C338.302 122.617 338.241 122.818 338.206 123.045C338.175 123.268 338.159 123.502 338.159 123.748V123.918C338.159 124.164 338.175 124.4 338.206 124.627C338.237 124.854 338.296 125.055 338.382 125.23C338.472 125.406 338.595 125.545 338.751 125.646C338.907 125.748 339.11 125.799 339.36 125.799Z" fill="#5B4A46"/>
<defs>
<linearGradient id="paint0_linear_1620_308" x1="17.6567" y1="77.5124" x2="40.2701" y2="108.727" gradientUnits="userSpaceOnUse">
<stop stop-color="#FFF100"/>
<stop offset="1" stop-color="#FF8900"/>
</linearGradient>
<linearGradient id="paint1_linear_1620_308" x1="40.1729" y1="43.8391" x2="26.9987" y2="80.0673" gradientUnits="userSpaceOnUse">
<stop stop-color="#FFF100"/>
<stop offset="1" stop-color="#FF8900"/>
</linearGradient>
<linearGradient id="paint2_linear_1620_308" x1="85.2043" y1="46.1785" x2="47.2057" y2="52.5845" gradientUnits="userSpaceOnUse">
<stop stop-color="#FFF100"/>
<stop offset="1" stop-color="#FF8900"/>
</linearGradient>
<linearGradient id="paint3_linear_1620_308" x1="103.721" y1="85.7671" x2="79.6469" y2="55.666" gradientUnits="userSpaceOnUse">
<stop stop-color="#FFF100"/>
<stop offset="1" stop-color="#FF8900"/>
</linearGradient>
<linearGradient id="paint4_linear_1620_308" x1="77.8002" y1="122.28" x2="92.9219" y2="86.8192" gradientUnits="userSpaceOnUse">
<stop stop-color="#FFF100"/>
<stop offset="1" stop-color="#FF8900"/>
</linearGradient>
<linearGradient id="paint5_linear_1620_308" x1="35.0065" y1="116.762" x2="73.3683" y2="113.127" gradientUnits="userSpaceOnUse">
<stop stop-color="#FFF100"/>
<stop offset="1" stop-color="#FF8900"/>
</linearGradient>
</defs>
</svg>
