<svg width="23" height="23" viewBox="0 0 23 23" fill="none" xmlns="http://www.w3.org/2000/svg">
<path d="M12.25 2H7C4.8998 2 3.8497 2 3.04754 2.40873C2.34193 2.76825 1.76825 3.34193 1.40873 4.04754C1 4.8497 1 5.8998 1 8V16C1 18.1002 1 19.1502 1.40873 19.9525C1.76825 20.6581 2.34193 21.2318 3.04754 21.5913C3.8497 22 4.8998 22 7 22H15C17.1002 22 18.1502 22 18.9525 21.5913C19.6581 21.2318 20.2318 20.6581 20.5913 19.9525C21 19.1502 21 18.1002 21 16V10.75" stroke="#554078" stroke-width="1.472" stroke-linecap="round" stroke-linejoin="round"/>
<path d="M1 16.9998L6.36611 11.6337C6.85427 11.1455 7.64573 11.1455 8.13389 11.6337L12.25 15.7498M12.25 15.7498L15.7411 12.2587C16.2293 11.7705 17.0207 11.7705 17.5089 12.2587L21 15.7498M12.25 15.7498L15.0625 18.5623" stroke="#554078" stroke-width="1.472" stroke-linecap="round" stroke-linejoin="round"/>
<path fill-rule="evenodd" clip-rule="evenodd" d="M18 4C17.1715 4 16.5 4.67155 16.5 5.5C16.5 6.32845 17.1715 7 18 7C18.8285 7 19.5 6.32845 19.5 5.5C19.5 4.67155 18.8285 4 18 4ZM17.5 5.5C17.5 5.22385 17.7239 5 18 5C18.2761 5 18.5 5.22385 18.5 5.5C18.5 5.77615 18.2761 6 18 6C17.7239 6 17.5 5.77615 17.5 5.5Z" fill="#554078" stroke="black" stroke-width="0.00064"/>
<path fill-rule="evenodd" clip-rule="evenodd" d="M22.915 5.14035C21.771 3.07593 19.9061 2 18 2C16.0939 2 14.229 3.07593 13.085 5.14035C12.9732 5.3422 12.9718 5.59105 13.0801 5.7938C14.2059 7.90065 16.0814 9 18 9C19.9186 9 21.7941 7.90065 22.9199 5.7938C23.0282 5.59105 23.0268 5.3422 22.915 5.14035ZM18 8C16.5305 8 15.0203 7.1862 14.0459 5.47435C15.0343 3.79807 16.5366 3 18 3C19.4634 3 20.9657 3.79807 21.9542 5.47435C20.9798 7.1862 19.4695 8 18 8Z" fill="#554078" stroke="black" stroke-width="0.00064"/>
</svg>
