<svg width="55" height="62" viewBox="0 0 55 62" fill="none" xmlns="http://www.w3.org/2000/svg">
<path d="M4.50815 16.6386L12.9999 12.0004L11.5 17L11.2714 19.3241C11.0962 21.1049 11.0712 22.8972 11.1966 24.6822L11.2975 26.1189C11.4317 28.0274 11.8691 29.9024 12.5933 31.6733L12.7994 32.1771C14.13 35.4307 16.2632 38.2941 19 40.5L21.5081 42.6387L17.5 41.5C15.1908 40.5998 13.0621 39.2922 11.215 37.6396L10.5 36.9998L8.63016 35.0125C7.55907 33.8741 6.68414 32.5659 6.04098 31.1413C4.70496 28.182 4.09271 24.9471 4.25486 21.7042L4.50815 16.6386Z" fill="url(#paint0_linear_2124_20)"/>
<path d="M26.1086 3.70792L34.7112 8.13709L29.7307 9.69931L27.6783 10.8135C26.1057 11.6672 24.6078 12.6517 23.2003 13.7567L22.0675 14.646C20.5626 15.8274 19.2555 17.2412 18.1956 18.834L17.894 19.2871C15.9466 22.2135 14.7724 25.5856 14.481 29.0886L14.117 32.3646L12.8118 28.4076C12.262 25.9909 12.1506 23.4951 12.483 21.0391L12.6116 20.0882L13.2083 17.4256C13.5501 15.9003 14.1424 14.4423 14.9612 13.1108C16.662 10.345 18.9968 8.02378 21.7726 6.33927L26.1086 3.70792Z" fill="url(#paint1_linear_2124_20)"/>
<path d="M50.8433 16.5235L51.2326 26.1916L47.4174 22.6292L45.436 21.3932C43.9178 20.4462 42.3226 19.6286 40.6672 18.9491L39.3349 18.4022C37.565 17.6756 35.6905 17.2358 33.7822 17.0992L33.2392 17.0603C29.7331 16.8094 26.2205 17.4508 23.0293 18.9248L19.9999 20.2238L22.7986 17.1369C24.6299 15.4668 26.7461 14.1391 29.0466 13.217L29.9373 12.86L32.5479 12.0659C34.0433 11.6111 35.6038 11.4074 37.1659 11.463C40.4108 11.5786 43.5815 12.4651 46.4158 14.0491L50.8433 16.5235Z" fill="url(#paint2_linear_2124_20)"/>
<path d="M51.0426 44.0174L42.7814 49.0548L44.0415 43.9894L44.1592 41.657C44.2494 39.8699 44.189 38.0784 43.9787 36.3014L43.8094 34.8712C43.5846 32.9712 43.0584 31.1192 42.2506 29.3848L42.0208 28.8913C40.5367 25.7049 38.2695 22.9463 35.4308 20.8732L32.8237 18.8564L36.8815 19.8029C39.2309 20.5922 41.4195 21.7968 43.3432 23.3596L44.0879 23.9646L46.0502 25.8606C47.1743 26.9467 48.1106 28.2117 48.8209 29.6041C50.2963 32.4964 51.0619 35.6985 51.0544 38.9454L51.0426 44.0174Z" fill="url(#paint3_linear_2124_20)"/>
<path d="M26.8205 57.9644L18.4707 53.0754L23.5286 51.7855L25.6384 50.7842C27.2549 50.017 28.8041 49.1152 30.2694 48.0882L31.4488 47.2616C33.0155 46.1635 34.3973 44.8227 35.542 43.2897L35.8677 42.8535C37.9709 40.037 39.3263 36.7336 39.8072 33.2515L40.3483 30.0001L41.437 34.0221C41.8549 36.465 41.8308 38.9632 41.3658 41.3976L41.1858 42.3401L40.4456 44.9664C40.0217 46.4709 39.3511 47.8947 38.4614 49.1798C36.6131 51.8494 34.1559 54.0405 31.2929 55.5721L26.8205 57.9644Z" fill="url(#paint4_linear_2124_20)"/>
<path d="M3.82794 43.2721L4.14075 33.6013L7.68758 37.4309L9.57413 38.8073C11.0197 39.862 12.5514 40.7931 14.1531 41.5909L15.4422 42.233C17.1548 43.086 18.9924 43.6606 20.8859 43.9352L21.4246 44.0134C24.9033 44.5179 28.4531 44.1329 31.7428 42.8942L34.8584 41.8184L31.8432 44.6942C29.8957 46.227 27.6887 47.3978 25.3274 48.1506L24.4132 48.4421L21.7519 49.0447C20.2274 49.3899 18.6562 49.4799 17.1023 49.3112C13.8744 48.9606 10.7763 47.8465 8.06429 46.0611L3.82794 43.2721Z" fill="url(#paint5_linear_2124_20)"/>
<path d="M28.5449 32.1997H23.9795L23.9551 29.6851H27.7881C28.4635 29.6851 29.0169 29.5996 29.4482 29.4287C29.8796 29.2497 30.201 28.9933 30.4126 28.6597C30.6323 28.3179 30.7422 27.9028 30.7422 27.4146C30.7422 26.8612 30.6364 26.4136 30.4248 26.0718C30.2214 25.73 29.8999 25.4818 29.4604 25.3271C29.0291 25.1725 28.4717 25.0952 27.7881 25.0952H25.249V40H21.5869V22.2266H27.7881C28.8216 22.2266 29.7453 22.3242 30.5591 22.5195C31.381 22.7148 32.0768 23.0119 32.6465 23.4106C33.2161 23.8094 33.6515 24.314 33.9526 24.9243C34.2537 25.5265 34.4043 26.2427 34.4043 27.0728C34.4043 27.8052 34.2375 28.4806 33.9038 29.0991C33.5783 29.7176 33.0615 30.2222 32.3535 30.6128C31.6536 31.0034 30.7381 31.2191 29.6069 31.2598L28.5449 32.1997ZM28.3862 40H22.9785L24.4067 37.1436H28.3862C29.0291 37.1436 29.554 37.0418 29.9609 36.8384C30.3678 36.6268 30.6689 36.342 30.8643 35.9839C31.0596 35.6258 31.1572 35.2148 31.1572 34.751C31.1572 34.2301 31.0677 33.7785 30.8887 33.396C30.7178 33.0135 30.4411 32.7205 30.0586 32.5171C29.6761 32.3055 29.1715 32.1997 28.5449 32.1997H25.0171L25.0415 29.6851H29.436L30.2783 30.6738C31.3607 30.6576 32.2314 30.8488 32.8906 31.2476C33.5579 31.6382 34.0422 32.1468 34.3433 32.7734C34.6525 33.4001 34.8071 34.0715 34.8071 34.7876C34.8071 35.9269 34.5589 36.8872 34.0625 37.6685C33.5661 38.4416 32.8377 39.0234 31.8774 39.4141C30.9253 39.8047 29.7616 40 28.3862 40Z" fill="#848688"/>
<path d="M29.1281 30.3059L29.1281 30.3059L29.1261 30.3076L27.5487 31.616C25.727 33.1272 24.6729 35.3712 24.6729 37.7381V38.1884C24.6729 38.6805 24.441 39.1437 24.0471 39.4385C23.7771 39.6407 23.4487 39.75 23.1113 39.75H22.6241C22.1719 39.75 21.7294 39.6189 21.3502 39.3726C20.9114 39.0875 20.5808 38.6635 20.4114 38.1684L20.1749 38.2494L20.4114 38.1684L20.3875 38.0983C20.2964 37.8323 20.25 37.553 20.25 37.2719V36.3338C20.25 35.7804 20.3061 35.2284 20.4173 34.6864L20.5233 34.1702C20.6417 33.5932 20.8429 33.0362 21.1205 32.5167C21.6076 31.6051 22.3176 30.8317 23.1844 30.2687L23.0482 30.059L23.1844 30.2687L23.2019 30.2573L24.5819 29.3609L28.2667 27.5657L28.9901 27.3308C29.4561 27.1794 29.881 26.9229 30.2319 26.581C30.5446 26.2763 30.7915 25.9107 30.9573 25.5068L31.4843 24.223L31.253 24.128L31.4843 24.223C31.6088 23.9196 31.6729 23.5949 31.6729 23.2671V21.304C31.6729 21.2742 31.697 21.25 31.7268 21.25C31.7447 21.25 31.7613 21.2588 31.7714 21.2735L32.3217 22.0778C32.4889 22.3222 32.5967 22.6023 32.6366 22.8957L32.75 23.7312V25.0714C32.75 25.643 32.6556 26.2106 32.4706 26.7513L32.3834 27.0061C32.3312 27.1587 32.2681 27.3073 32.1944 27.4508C31.9825 27.8639 31.6869 28.2283 31.3265 28.521L29.1281 30.3059Z" fill="#373435" stroke="white" stroke-width="0.5"/>
<defs>
<linearGradient id="paint0_linear_2124_20" x1="7.5" y1="28.5" x2="18" y2="43" gradientUnits="userSpaceOnUse">
<stop stop-color="#FFF100"/>
<stop offset="1" stop-color="#FF8900"/>
</linearGradient>
<linearGradient id="paint1_linear_2124_20" x1="17.9663" y1="12.8374" x2="11.8503" y2="29.6628" gradientUnits="userSpaceOnUse">
<stop stop-color="#FFF100"/>
<stop offset="1" stop-color="#FF8900"/>
</linearGradient>
<linearGradient id="paint2_linear_2124_20" x1="38.8858" y1="13.9424" x2="21.2325" y2="16.9195" gradientUnits="userSpaceOnUse">
<stop stop-color="#FFF100"/>
<stop offset="1" stop-color="#FF8900"/>
</linearGradient>
<linearGradient id="paint3_linear_2124_20" x1="47.4893" y1="32.3119" x2="36.3106" y2="18.3284" gradientUnits="userSpaceOnUse">
<stop stop-color="#FFF100"/>
<stop offset="1" stop-color="#FF8900"/>
</linearGradient>
<linearGradient id="paint4_linear_2124_20" x1="35.4459" y1="49.2899" x2="42.4651" y2="32.8208" gradientUnits="userSpaceOnUse">
<stop stop-color="#FFF100"/>
<stop offset="1" stop-color="#FF8900"/>
</linearGradient>
<linearGradient id="paint5_linear_2124_20" x1="15.5668" y1="46.7136" x2="33.3895" y2="45.0246" gradientUnits="userSpaceOnUse">
<stop stop-color="#FFF100"/>
<stop offset="1" stop-color="#FF8900"/>
</linearGradient>
</defs>
</svg>
