<svg width="120" height="135" viewBox="0 0 120 135" fill="none" xmlns="http://www.w3.org/2000/svg">
<path d="M105.907 68.3456C112.585 68.9853 118.54 64.2176 118.499 58.2364C118.499 55.5689 117.342 53.143 115.452 51.3301M4.54714 51.3301C2.65727 53.143 1.50021 55.5691 1.50021 58.2364C1.45886 64.2176 7.41375 68.9853 14.092 68.3456M46.7906 60.7934C46.7896 58.6787 45.0848 56.9656 42.9826 56.9666C40.8805 56.9677 39.1775 58.6827 39.1786 60.7974M73.2009 60.78C73.1999 58.6653 74.9032 56.9503 77.005 56.9493C79.1071 56.9482 80.812 58.6616 80.813 60.776M67.8362 64.8574C67.8339 59.9843 64.3242 59.5283 59.9951 59.5304C55.666 59.5326 52.1569 59.9922 52.1595 64.8653C52.1619 69.7383 55.6734 73.6867 60.0022 73.6846C64.3313 73.6825 67.8386 69.7304 67.8362 64.8574ZM101.078 80.8321L105.764 83.4102C107.256 84.2308 107.256 86.386 105.764 87.2069L101.078 89.785L98.5154 94.4985C97.6996 95.9992 95.5572 95.9992 94.7412 94.4985L92.1784 89.785L87.4929 87.2069C86.0011 86.3863 86.0011 84.2311 87.4929 83.4102L92.1784 80.8321L94.7412 76.1186C95.557 74.618 97.6994 74.618 98.5154 76.1186L101.078 80.8321Z" stroke="#8C73B3" stroke-width="3" stroke-miterlimit="10" stroke-linecap="round" stroke-linejoin="round"/>
<path d="M13.584 50.2475C13.0117 52.8804 12.7229 55.5677 12.7227 58.2628C12.7227 81.4896 33.8899 100.319 60.0011 100.319C72.1776 100.319 83.2778 96.223 91.6589 89.497M100.562 79.8789C104.826 73.5617 107.279 66.1675 107.279 58.2628C107.279 55.5627 106.989 52.8706 106.415 50.233M34.7829 30.714L39.4685 33.2921C40.9603 34.1127 40.9603 36.2679 39.4685 37.0888L34.7829 39.6668L32.2202 44.3803C31.4044 45.881 29.262 45.881 28.4459 44.3803L25.8832 39.6668L21.1976 37.0888C19.7058 36.2682 19.7058 34.113 21.1976 33.2921L25.8832 30.714L28.4459 26.0005C29.2617 24.4998 31.4041 24.4998 32.2202 26.0005L34.7829 30.714Z" stroke="#8C73B3" stroke-width="3" stroke-miterlimit="10" stroke-linecap="round" stroke-linejoin="round"/>
<path d="M45.233 98.2227C45.1361 98.9143 45.087 99.6119 45.0859 100.31C45.0859 108.597 51.7634 115.314 60.0008 115.314C68.2381 115.314 74.9156 108.597 74.9156 100.31C74.9156 99.6015 74.8633 98.9053 74.7685 98.2227" stroke="#8C73B3" stroke-width="3" stroke-miterlimit="10" stroke-linecap="round" stroke-linejoin="round"/>
<path d="M43.7572 132.851H92.1558C96.0659 132.851 99.0068 129.266 98.2682 125.403C95.9154 113.095 87.8382 102.839 76.9356 97.5369M43.0603 97.5369C32.1573 102.839 24.0802 113.095 21.7273 125.403C20.989 129.266 23.9299 132.851 27.8397 132.851H34.5968M34.8936 39.6046C36.7845 41.7263 39.5291 43.0622 42.585 43.0622C46.2443 43.0622 49.4569 41.1461 51.2913 38.2582C53.126 41.1458 56.3383 43.0622 59.9976 43.0622C63.657 43.0622 66.8696 41.1461 68.7042 38.2582C70.5389 41.1458 73.7512 43.0622 77.4106 43.0622C83.1147 43.0622 87.7385 38.4106 87.7385 32.6727C87.7385 31.9271 87.659 31.2002 87.5103 30.499C96.9916 34.1973 103.908 42.6278 106.421 50.2616C109.379 50.9736 112.411 51.3323 115.453 51.3303C115.453 39.1191 110.462 27.9463 102.2 19.332" stroke="#8C73B3" stroke-width="3" stroke-miterlimit="10" stroke-linecap="round" stroke-linejoin="round"/>
<path d="M95.2892 13.2771C85.7009 6.23248 73.4051 2 59.998 2C29.3709 2 4.54297 24.0855 4.54297 51.3294C7.70113 51.3294 10.6719 51.0756 13.572 50.2736C15.007 45.9148 17.8796 41.2963 21.8439 37.4456" stroke="#8C73B3" stroke-width="3" stroke-miterlimit="10" stroke-linecap="round" stroke-linejoin="round"/>
</svg>
