<svg width="140" height="133" viewBox="0 0 140 133" fill="none" xmlns="http://www.w3.org/2000/svg">
<mask id="path-1-outside-1_1573_1442" maskUnits="userSpaceOnUse" x="44.7422" y="36.8711" width="75" height="66" fill="black">
<rect fill="white" x="44.7422" y="36.8711" width="75" height="66"/>
<path d="M118.041 55.3512C117.994 55.3232 117.946 55.2986 117.895 55.2777L116.93 54.7897C115.628 54.1188 114.154 53.8553 112.701 54.0333C111.247 54.2113 109.88 54.8227 108.778 55.7879C106.755 57.4474 104.281 58.4622 101.675 58.7014C99.0696 58.9407 96.452 58.3933 94.1604 57.1299C93.9155 57.0363 93.6452 57.0325 93.3977 57.1192C93.1502 57.2059 92.9414 57.3775 92.8084 57.6036C92.6755 57.8296 92.6269 58.0955 92.6714 58.354C92.7158 58.6124 92.8505 58.8468 93.0513 59.0154C95.283 60.3345 97.8348 61.0137 100.427 60.9785C100.915 60.9785 101.414 60.9785 101.902 60.912C103.864 60.7454 105.776 60.2071 107.536 59.326H107.647C108.451 59.1913 109.275 59.2723 110.037 59.5607C110.799 59.8491 111.471 60.3345 111.984 60.9674C112.16 61.2028 112.423 61.3583 112.714 61.3999C113.005 61.4415 113.301 61.3657 113.536 61.1893C113.772 61.0128 113.927 60.75 113.969 60.4588C114.011 60.1676 113.935 59.8718 113.758 59.6365C112.921 58.5399 111.755 57.7394 110.431 57.3518C111.194 56.7331 112.119 56.3492 113.096 56.2468C114.073 56.1445 115.058 56.328 115.932 56.775L116.897 57.2519C117.149 57.4036 117.451 57.4489 117.737 57.378C118.022 57.307 118.268 57.1255 118.419 56.8735C118.571 56.6214 118.616 56.3194 118.545 56.034C118.474 55.7485 118.293 55.5029 118.041 55.3512ZM116.941 39.4397C104.819 36.1124 94.7594 38.1976 91.9644 44.5638C91.8452 44.8327 91.8376 45.1379 91.9435 45.4124C92.0493 45.6868 92.2598 45.908 92.5287 46.0273L92.5301 46.0278C92.6695 46.0902 92.8211 46.1205 92.9737 46.1165C93.1871 46.1161 93.3957 46.0541 93.5748 45.9381C93.7538 45.822 93.8955 45.6568 93.983 45.4622C96.3121 40.2272 105.507 38.6301 116.354 41.5803C116.495 41.6201 116.642 41.6316 116.787 41.6142C116.933 41.5967 117.073 41.5507 117.201 41.4787C117.328 41.4068 117.44 41.3103 117.53 41.1948C117.62 41.0794 117.687 40.9472 117.725 40.806C117.764 40.6648 117.775 40.5174 117.756 40.3721C117.738 40.2269 117.691 40.0867 117.618 39.9597C117.545 39.8327 117.448 39.7214 117.332 39.6321C117.215 39.5429 117.083 39.4775 116.941 39.4397ZM71.6886 57.5012L71.6792 57.4849C71.5237 57.2375 71.2769 57.0615 70.9924 56.995C70.7079 56.9286 70.4087 56.977 70.1597 57.1299C67.8597 58.3999 65.2303 58.9469 62.6146 58.6995C59.999 58.4522 57.5186 57.4221 55.4974 55.7436C54.3956 54.7934 53.0347 54.1947 51.5897 54.0247C50.1448 53.8547 48.682 54.1212 47.3898 54.7897L46.4249 55.2777C46.2841 55.3364 46.1569 55.4234 46.0513 55.5334C45.9457 55.6434 45.8639 55.774 45.811 55.9171C45.7581 56.0602 45.7353 56.2126 45.744 56.3649C45.7527 56.5171 45.7927 56.666 45.8615 56.8021C45.9303 56.9382 46.0265 57.0586 46.144 57.1559C46.2614 57.2532 46.3977 57.3252 46.5443 57.3674C46.6908 57.4096 46.8445 57.4211 46.9957 57.4013C47.1469 57.3814 47.2924 57.3306 47.4231 57.2519L48.388 56.775C49.2682 56.3186 50.2632 56.131 51.2491 56.2356C52.2351 56.3401 53.1686 56.7321 53.9336 57.3629C52.6126 57.7448 51.4497 58.542 50.6173 59.6365C50.5299 59.753 50.4664 59.8856 50.4302 60.0267C50.3941 60.1678 50.3861 60.3146 50.4067 60.4588C50.4273 60.603 50.4761 60.7417 50.5503 60.8671C50.6245 60.9924 50.7226 61.1019 50.8392 61.1893C50.9557 61.2766 51.0883 61.3402 51.2294 61.3764C51.3705 61.4125 51.5173 61.4205 51.6615 61.3999C51.8057 61.3793 51.9444 61.3305 52.0697 61.2563C52.195 61.1821 52.3045 61.084 52.3919 60.9674C52.9018 60.34 53.568 59.8579 54.3235 59.5697C55.0789 59.2816 55.897 59.1975 56.6952 59.326H56.795C58.559 60.2083 60.475 60.7466 62.4404 60.912C62.9284 60.912 63.4275 60.9785 63.9155 60.9785C66.5043 61.0151 69.0529 60.3358 71.2799 59.0154C71.5349 58.8688 71.7212 58.6269 71.7978 58.343C71.8745 58.059 71.8352 57.7562 71.6886 57.5012ZM72.356 44.5649L72.3555 44.5635C69.5384 38.1973 59.501 36.1454 47.3785 39.4395C47.237 39.4772 47.1044 39.5426 46.9883 39.6319C46.8722 39.7211 46.775 39.8324 46.7021 39.9594C46.6292 40.0864 46.5822 40.2266 46.5637 40.3718C46.5452 40.5171 46.5557 40.6646 46.5945 40.8058C46.6333 40.947 46.6996 41.0791 46.7896 41.1945C46.8797 41.31 46.9917 41.4065 47.1192 41.4784C47.2467 41.5504 47.3872 41.5964 47.5326 41.6139C47.678 41.6313 47.8254 41.6198 47.9663 41.58C58.8133 38.6298 68.0078 40.2269 70.3258 45.4619C70.4141 45.6582 70.5575 45.8246 70.7387 45.9408C70.9199 46.057 71.131 46.118 71.3462 46.1163C71.4986 46.1174 71.6496 46.0872 71.7898 46.0275C71.9231 45.9687 72.0434 45.8842 72.144 45.7788C72.2445 45.6735 72.3234 45.5493 72.3759 45.4135C72.4285 45.2777 72.4538 45.1328 72.4504 44.9872C72.447 44.8416 72.4149 44.6981 72.356 44.5649ZM94.6152 93.2978C92.9313 90.38 90.2725 88.1494 87.1065 86.9981C86.4478 86.7624 85.7449 86.6759 85.0486 86.745C84.3524 86.814 83.6801 87.0369 83.0805 87.3974C82.8127 87.547 82.5111 87.6255 82.2043 87.6255C81.8976 87.6255 81.5959 87.547 81.3281 87.3974C80.7302 87.0328 80.0583 86.8067 79.3616 86.7357C78.665 86.6647 77.9612 86.7506 77.3021 86.987C74.1361 88.1383 71.4774 90.3689 69.7935 93.2867C69.6961 93.4553 69.6448 93.6466 69.6448 93.8413C69.6448 94.036 69.6961 94.2272 69.7935 94.3958C71.0595 96.5663 72.8707 98.3682 75.0476 99.623C77.2246 100.878 79.6916 101.542 82.2043 101.55C84.7159 101.543 87.1823 100.881 89.3591 99.6278C91.536 98.375 93.3478 96.5753 94.6152 94.4069C94.7126 94.2383 94.7639 94.047 94.7639 93.8523C94.7639 93.6576 94.7126 93.4664 94.6152 93.2978ZM75.5089 97.3496C74.1154 96.4364 72.9249 95.2459 72.0117 93.8523C73.4384 91.6511 75.5454 89.9764 78.0119 89.0832C78.3611 88.9599 78.7333 88.9158 79.1016 88.9541C79.47 88.9925 79.8251 89.1124 80.1414 89.305C80.7551 89.6594 81.4513 89.8459 82.16 89.8459C82.8686 89.8459 83.5648 89.6594 84.1785 89.305C84.4948 89.1124 84.8499 88.9925 85.2183 88.9541C85.5866 88.9158 85.9588 88.9599 86.308 89.0832C88.7728 89.9794 90.8789 91.6534 92.3082 93.8523C88.6352 99.4569 81.1138 101.023 75.5089 97.3496ZM87.4404 78.6244C87.2394 78.4522 86.9835 78.3576 86.7189 78.3576C86.4543 78.3576 86.1984 78.4522 85.9974 78.6244C83.8807 80.7439 80.4469 80.7461 78.3274 78.6293L78.3225 78.6244C78.1103 78.4427 77.8374 78.3477 77.5582 78.3585C77.2791 78.3693 77.0143 78.485 76.8168 78.6825C76.6193 78.8801 76.5035 79.1448 76.4928 79.424C76.482 79.7031 76.5769 79.976 76.7586 80.1882C79.7355 83.1711 84.567 83.1764 87.5499 80.1996L87.5613 80.1882C87.7526 79.9648 87.8474 79.6745 87.8247 79.3812C87.802 79.088 87.6638 78.8157 87.4404 78.6244Z"/>
</mask>
<path d="M118.041 55.3512C117.994 55.3232 117.946 55.2986 117.895 55.2777L116.93 54.7897C115.628 54.1188 114.154 53.8553 112.701 54.0333C111.247 54.2113 109.88 54.8227 108.778 55.7879C106.755 57.4474 104.281 58.4622 101.675 58.7014C99.0696 58.9407 96.452 58.3933 94.1604 57.1299C93.9155 57.0363 93.6452 57.0325 93.3977 57.1192C93.1502 57.2059 92.9414 57.3775 92.8084 57.6036C92.6755 57.8296 92.6269 58.0955 92.6714 58.354C92.7158 58.6124 92.8505 58.8468 93.0513 59.0154C95.283 60.3345 97.8348 61.0137 100.427 60.9785C100.915 60.9785 101.414 60.9785 101.902 60.912C103.864 60.7454 105.776 60.2071 107.536 59.326H107.647C108.451 59.1913 109.275 59.2723 110.037 59.5607C110.799 59.8491 111.471 60.3345 111.984 60.9674C112.16 61.2028 112.423 61.3583 112.714 61.3999C113.005 61.4415 113.301 61.3657 113.536 61.1893C113.772 61.0128 113.927 60.75 113.969 60.4588C114.011 60.1676 113.935 59.8718 113.758 59.6365C112.921 58.5399 111.755 57.7394 110.431 57.3518C111.194 56.7331 112.119 56.3492 113.096 56.2468C114.073 56.1445 115.058 56.328 115.932 56.775L116.897 57.2519C117.149 57.4036 117.451 57.4489 117.737 57.378C118.022 57.307 118.268 57.1255 118.419 56.8735C118.571 56.6214 118.616 56.3194 118.545 56.034C118.474 55.7485 118.293 55.5029 118.041 55.3512ZM116.941 39.4397C104.819 36.1124 94.7594 38.1976 91.9644 44.5638C91.8452 44.8327 91.8376 45.1379 91.9435 45.4124C92.0493 45.6868 92.2598 45.908 92.5287 46.0273L92.5301 46.0278C92.6695 46.0902 92.8211 46.1205 92.9737 46.1165C93.1871 46.1161 93.3957 46.0541 93.5748 45.9381C93.7538 45.822 93.8955 45.6568 93.983 45.4622C96.3121 40.2272 105.507 38.6301 116.354 41.5803C116.495 41.6201 116.642 41.6316 116.787 41.6142C116.933 41.5967 117.073 41.5507 117.201 41.4787C117.328 41.4068 117.44 41.3103 117.53 41.1948C117.62 41.0794 117.687 40.9472 117.725 40.806C117.764 40.6648 117.775 40.5174 117.756 40.3721C117.738 40.2269 117.691 40.0867 117.618 39.9597C117.545 39.8327 117.448 39.7214 117.332 39.6321C117.215 39.5429 117.083 39.4775 116.941 39.4397ZM71.6886 57.5012L71.6792 57.4849C71.5237 57.2375 71.2769 57.0615 70.9924 56.995C70.7079 56.9286 70.4087 56.977 70.1597 57.1299C67.8597 58.3999 65.2303 58.9469 62.6146 58.6995C59.999 58.4522 57.5186 57.4221 55.4974 55.7436C54.3956 54.7934 53.0347 54.1947 51.5897 54.0247C50.1448 53.8547 48.682 54.1212 47.3898 54.7897L46.4249 55.2777C46.2841 55.3364 46.1569 55.4234 46.0513 55.5334C45.9457 55.6434 45.8639 55.774 45.811 55.9171C45.7581 56.0602 45.7353 56.2126 45.744 56.3649C45.7527 56.5171 45.7927 56.666 45.8615 56.8021C45.9303 56.9382 46.0265 57.0586 46.144 57.1559C46.2614 57.2532 46.3977 57.3252 46.5443 57.3674C46.6908 57.4096 46.8445 57.4211 46.9957 57.4013C47.1469 57.3814 47.2924 57.3306 47.4231 57.2519L48.388 56.775C49.2682 56.3186 50.2632 56.131 51.2491 56.2356C52.2351 56.3401 53.1686 56.7321 53.9336 57.3629C52.6126 57.7448 51.4497 58.542 50.6173 59.6365C50.5299 59.753 50.4664 59.8856 50.4302 60.0267C50.3941 60.1678 50.3861 60.3146 50.4067 60.4588C50.4273 60.603 50.4761 60.7417 50.5503 60.8671C50.6245 60.9924 50.7226 61.1019 50.8392 61.1893C50.9557 61.2766 51.0883 61.3402 51.2294 61.3764C51.3705 61.4125 51.5173 61.4205 51.6615 61.3999C51.8057 61.3793 51.9444 61.3305 52.0697 61.2563C52.195 61.1821 52.3045 61.084 52.3919 60.9674C52.9018 60.34 53.568 59.8579 54.3235 59.5697C55.0789 59.2816 55.897 59.1975 56.6952 59.326H56.795C58.559 60.2083 60.475 60.7466 62.4404 60.912C62.9284 60.912 63.4275 60.9785 63.9155 60.9785C66.5043 61.0151 69.0529 60.3358 71.2799 59.0154C71.5349 58.8688 71.7212 58.6269 71.7978 58.343C71.8745 58.059 71.8352 57.7562 71.6886 57.5012ZM72.356 44.5649L72.3555 44.5635C69.5384 38.1973 59.501 36.1454 47.3785 39.4395C47.237 39.4772 47.1044 39.5426 46.9883 39.6319C46.8722 39.7211 46.775 39.8324 46.7021 39.9594C46.6292 40.0864 46.5822 40.2266 46.5637 40.3718C46.5452 40.5171 46.5557 40.6646 46.5945 40.8058C46.6333 40.947 46.6996 41.0791 46.7896 41.1945C46.8797 41.31 46.9917 41.4065 47.1192 41.4784C47.2467 41.5504 47.3872 41.5964 47.5326 41.6139C47.678 41.6313 47.8254 41.6198 47.9663 41.58C58.8133 38.6298 68.0078 40.2269 70.3258 45.4619C70.4141 45.6582 70.5575 45.8246 70.7387 45.9408C70.9199 46.057 71.131 46.118 71.3462 46.1163C71.4986 46.1174 71.6496 46.0872 71.7898 46.0275C71.9231 45.9687 72.0434 45.8842 72.144 45.7788C72.2445 45.6735 72.3234 45.5493 72.3759 45.4135C72.4285 45.2777 72.4538 45.1328 72.4504 44.9872C72.447 44.8416 72.4149 44.6981 72.356 44.5649ZM94.6152 93.2978C92.9313 90.38 90.2725 88.1494 87.1065 86.9981C86.4478 86.7624 85.7449 86.6759 85.0486 86.745C84.3524 86.814 83.6801 87.0369 83.0805 87.3974C82.8127 87.547 82.5111 87.6255 82.2043 87.6255C81.8976 87.6255 81.5959 87.547 81.3281 87.3974C80.7302 87.0328 80.0583 86.8067 79.3616 86.7357C78.665 86.6647 77.9612 86.7506 77.3021 86.987C74.1361 88.1383 71.4774 90.3689 69.7935 93.2867C69.6961 93.4553 69.6448 93.6466 69.6448 93.8413C69.6448 94.036 69.6961 94.2272 69.7935 94.3958C71.0595 96.5663 72.8707 98.3682 75.0476 99.623C77.2246 100.878 79.6916 101.542 82.2043 101.55C84.7159 101.543 87.1823 100.881 89.3591 99.6278C91.536 98.375 93.3478 96.5753 94.6152 94.4069C94.7126 94.2383 94.7639 94.047 94.7639 93.8523C94.7639 93.6576 94.7126 93.4664 94.6152 93.2978ZM75.5089 97.3496C74.1154 96.4364 72.9249 95.2459 72.0117 93.8523C73.4384 91.6511 75.5454 89.9764 78.0119 89.0832C78.3611 88.9599 78.7333 88.9158 79.1016 88.9541C79.47 88.9925 79.8251 89.1124 80.1414 89.305C80.7551 89.6594 81.4513 89.8459 82.16 89.8459C82.8686 89.8459 83.5648 89.6594 84.1785 89.305C84.4948 89.1124 84.8499 88.9925 85.2183 88.9541C85.5866 88.9158 85.9588 88.9599 86.308 89.0832C88.7728 89.9794 90.8789 91.6534 92.3082 93.8523C88.6352 99.4569 81.1138 101.023 75.5089 97.3496ZM87.4404 78.6244C87.2394 78.4522 86.9835 78.3576 86.7189 78.3576C86.4543 78.3576 86.1984 78.4522 85.9974 78.6244C83.8807 80.7439 80.4469 80.7461 78.3274 78.6293L78.3225 78.6244C78.1103 78.4427 77.8374 78.3477 77.5582 78.3585C77.2791 78.3693 77.0143 78.485 76.8168 78.6825C76.6193 78.8801 76.5035 79.1448 76.4928 79.424C76.482 79.7031 76.5769 79.976 76.7586 80.1882C79.7355 83.1711 84.567 83.1764 87.5499 80.1996L87.5613 80.1882C87.7526 79.9648 87.8474 79.6745 87.8247 79.3812C87.802 79.088 87.6638 78.8157 87.4404 78.6244Z" fill="#8C73B3"/>
<path d="M118.041 55.3512C117.994 55.3232 117.946 55.2986 117.895 55.2777L116.93 54.7897C115.628 54.1188 114.154 53.8553 112.701 54.0333C111.247 54.2113 109.88 54.8227 108.778 55.7879C106.755 57.4474 104.281 58.4622 101.675 58.7014C99.0696 58.9407 96.452 58.3933 94.1604 57.1299C93.9155 57.0363 93.6452 57.0325 93.3977 57.1192C93.1502 57.2059 92.9414 57.3775 92.8084 57.6036C92.6755 57.8296 92.6269 58.0955 92.6714 58.354C92.7158 58.6124 92.8505 58.8468 93.0513 59.0154C95.283 60.3345 97.8348 61.0137 100.427 60.9785C100.915 60.9785 101.414 60.9785 101.902 60.912C103.864 60.7454 105.776 60.2071 107.536 59.326H107.647C108.451 59.1913 109.275 59.2723 110.037 59.5607C110.799 59.8491 111.471 60.3345 111.984 60.9674C112.16 61.2028 112.423 61.3583 112.714 61.3999C113.005 61.4415 113.301 61.3657 113.536 61.1893C113.772 61.0128 113.927 60.75 113.969 60.4588C114.011 60.1676 113.935 59.8718 113.758 59.6365C112.921 58.5399 111.755 57.7394 110.431 57.3518C111.194 56.7331 112.119 56.3492 113.096 56.2468C114.073 56.1445 115.058 56.328 115.932 56.775L116.897 57.2519C117.149 57.4036 117.451 57.4489 117.737 57.378C118.022 57.307 118.268 57.1255 118.419 56.8735C118.571 56.6214 118.616 56.3194 118.545 56.034C118.474 55.7485 118.293 55.5029 118.041 55.3512ZM116.941 39.4397C104.819 36.1124 94.7594 38.1976 91.9644 44.5638C91.8452 44.8327 91.8376 45.1379 91.9435 45.4124C92.0493 45.6868 92.2598 45.908 92.5287 46.0273L92.5301 46.0278C92.6695 46.0902 92.8211 46.1205 92.9737 46.1165C93.1871 46.1161 93.3957 46.0541 93.5748 45.9381C93.7538 45.822 93.8955 45.6568 93.983 45.4622C96.3121 40.2272 105.507 38.6301 116.354 41.5803C116.495 41.6201 116.642 41.6316 116.787 41.6142C116.933 41.5967 117.073 41.5507 117.201 41.4787C117.328 41.4068 117.44 41.3103 117.53 41.1948C117.62 41.0794 117.687 40.9472 117.725 40.806C117.764 40.6648 117.775 40.5174 117.756 40.3721C117.738 40.2269 117.691 40.0867 117.618 39.9597C117.545 39.8327 117.448 39.7214 117.332 39.6321C117.215 39.5429 117.083 39.4775 116.941 39.4397ZM71.6886 57.5012L71.6792 57.4849C71.5237 57.2375 71.2769 57.0615 70.9924 56.995C70.7079 56.9286 70.4087 56.977 70.1597 57.1299C67.8597 58.3999 65.2303 58.9469 62.6146 58.6995C59.999 58.4522 57.5186 57.4221 55.4974 55.7436C54.3956 54.7934 53.0347 54.1947 51.5897 54.0247C50.1448 53.8547 48.682 54.1212 47.3898 54.7897L46.4249 55.2777C46.2841 55.3364 46.1569 55.4234 46.0513 55.5334C45.9457 55.6434 45.8639 55.774 45.811 55.9171C45.7581 56.0602 45.7353 56.2126 45.744 56.3649C45.7527 56.5171 45.7927 56.666 45.8615 56.8021C45.9303 56.9382 46.0265 57.0586 46.144 57.1559C46.2614 57.2532 46.3977 57.3252 46.5443 57.3674C46.6908 57.4096 46.8445 57.4211 46.9957 57.4013C47.1469 57.3814 47.2924 57.3306 47.4231 57.2519L48.388 56.775C49.2682 56.3186 50.2632 56.131 51.2491 56.2356C52.2351 56.3401 53.1686 56.7321 53.9336 57.3629C52.6126 57.7448 51.4497 58.542 50.6173 59.6365C50.5299 59.753 50.4664 59.8856 50.4302 60.0267C50.3941 60.1678 50.3861 60.3146 50.4067 60.4588C50.4273 60.603 50.4761 60.7417 50.5503 60.8671C50.6245 60.9924 50.7226 61.1019 50.8392 61.1893C50.9557 61.2766 51.0883 61.3402 51.2294 61.3764C51.3705 61.4125 51.5173 61.4205 51.6615 61.3999C51.8057 61.3793 51.9444 61.3305 52.0697 61.2563C52.195 61.1821 52.3045 61.084 52.3919 60.9674C52.9018 60.34 53.568 59.8579 54.3235 59.5697C55.0789 59.2816 55.897 59.1975 56.6952 59.326H56.795C58.559 60.2083 60.475 60.7466 62.4404 60.912C62.9284 60.912 63.4275 60.9785 63.9155 60.9785C66.5043 61.0151 69.0529 60.3358 71.2799 59.0154C71.5349 58.8688 71.7212 58.6269 71.7978 58.343C71.8745 58.059 71.8352 57.7562 71.6886 57.5012ZM72.356 44.5649L72.3555 44.5635C69.5384 38.1973 59.501 36.1454 47.3785 39.4395C47.237 39.4772 47.1044 39.5426 46.9883 39.6319C46.8722 39.7211 46.775 39.8324 46.7021 39.9594C46.6292 40.0864 46.5822 40.2266 46.5637 40.3718C46.5452 40.5171 46.5557 40.6646 46.5945 40.8058C46.6333 40.947 46.6996 41.0791 46.7896 41.1945C46.8797 41.31 46.9917 41.4065 47.1192 41.4784C47.2467 41.5504 47.3872 41.5964 47.5326 41.6139C47.678 41.6313 47.8254 41.6198 47.9663 41.58C58.8133 38.6298 68.0078 40.2269 70.3258 45.4619C70.4141 45.6582 70.5575 45.8246 70.7387 45.9408C70.9199 46.057 71.131 46.118 71.3462 46.1163C71.4986 46.1174 71.6496 46.0872 71.7898 46.0275C71.9231 45.9687 72.0434 45.8842 72.144 45.7788C72.2445 45.6735 72.3234 45.5493 72.3759 45.4135C72.4285 45.2777 72.4538 45.1328 72.4504 44.9872C72.447 44.8416 72.4149 44.6981 72.356 44.5649ZM94.6152 93.2978C92.9313 90.38 90.2725 88.1494 87.1065 86.9981C86.4478 86.7624 85.7449 86.6759 85.0486 86.745C84.3524 86.814 83.6801 87.0369 83.0805 87.3974C82.8127 87.547 82.5111 87.6255 82.2043 87.6255C81.8976 87.6255 81.5959 87.547 81.3281 87.3974C80.7302 87.0328 80.0583 86.8067 79.3616 86.7357C78.665 86.6647 77.9612 86.7506 77.3021 86.987C74.1361 88.1383 71.4774 90.3689 69.7935 93.2867C69.6961 93.4553 69.6448 93.6466 69.6448 93.8413C69.6448 94.036 69.6961 94.2272 69.7935 94.3958C71.0595 96.5663 72.8707 98.3682 75.0476 99.623C77.2246 100.878 79.6916 101.542 82.2043 101.55C84.7159 101.543 87.1823 100.881 89.3591 99.6278C91.536 98.375 93.3478 96.5753 94.6152 94.4069C94.7126 94.2383 94.7639 94.047 94.7639 93.8523C94.7639 93.6576 94.7126 93.4664 94.6152 93.2978ZM75.5089 97.3496C74.1154 96.4364 72.9249 95.2459 72.0117 93.8523C73.4384 91.6511 75.5454 89.9764 78.0119 89.0832C78.3611 88.9599 78.7333 88.9158 79.1016 88.9541C79.47 88.9925 79.8251 89.1124 80.1414 89.305C80.7551 89.6594 81.4513 89.8459 82.16 89.8459C82.8686 89.8459 83.5648 89.6594 84.1785 89.305C84.4948 89.1124 84.8499 88.9925 85.2183 88.9541C85.5866 88.9158 85.9588 88.9599 86.308 89.0832C88.7728 89.9794 90.8789 91.6534 92.3082 93.8523C88.6352 99.4569 81.1138 101.023 75.5089 97.3496ZM87.4404 78.6244C87.2394 78.4522 86.9835 78.3576 86.7189 78.3576C86.4543 78.3576 86.1984 78.4522 85.9974 78.6244C83.8807 80.7439 80.4469 80.7461 78.3274 78.6293L78.3225 78.6244C78.1103 78.4427 77.8374 78.3477 77.5582 78.3585C77.2791 78.3693 77.0143 78.485 76.8168 78.6825C76.6193 78.8801 76.5035 79.1448 76.4928 79.424C76.482 79.7031 76.5769 79.976 76.7586 80.1882C79.7355 83.1711 84.567 83.1764 87.5499 80.1996L87.5613 80.1882C87.7526 79.9648 87.8474 79.6745 87.8247 79.3812C87.802 79.088 87.6638 78.8157 87.4404 78.6244Z" stroke="#8C73B3" mask="url(#path-1-outside-1_1573_1442)"/>
<mask id="path-2-outside-2_1573_1442" maskUnits="userSpaceOnUse" x="17.7578" y="0" width="118" height="133" fill="black">
<rect fill="white" x="17.7578" width="118" height="133"/>
<path d="M117.505 28.936C113.912 26.0856 101.978 16.9466 98.5172 14.318C98.9831 13.7857 99.4378 13.2089 99.8703 12.6544C102.399 9.32706 104.883 2.67244 104.983 2.40626C105.058 2.13805 105.029 1.85161 104.902 1.6038C104.775 1.35599 104.56 1.16494 104.299 1.06857C104.038 0.972208 103.75 0.977577 103.492 1.08362C103.235 1.18965 103.027 1.38861 102.909 1.64097C102.909 1.70752 100.436 8.29559 98.1069 11.3124C91.6186 19.7748 81.7143 25.3203 68.6602 27.6716L44.1823 32.7291C27.383 36.1848 16.5656 52.6045 20.021 69.4041C20.9955 74.1419 23.0633 78.5865 26.0595 82.3837C26.085 82.4106 26.1075 82.4402 26.1261 82.4724C28.2223 84.9457 30.4072 87.419 32.5145 89.7925C43.4725 102.17 53.8204 113.86 47.8423 123.454C46.9772 124.84 42.807 128.755 37.7384 128.467C37.4442 128.451 37.1557 128.552 36.9363 128.749C36.8276 128.846 36.7392 128.964 36.6761 129.095C36.6129 129.227 36.5763 129.369 36.5683 129.515C36.5603 129.661 36.581 129.806 36.6294 129.944C36.6777 130.082 36.7527 130.208 36.85 130.317C37.0466 130.537 37.3222 130.669 37.6164 130.685H38.3151C40.5499 130.598 42.7361 130.008 44.7105 128.957C46.6848 127.907 48.3962 126.423 49.7167 124.618C56.5821 113.616 45.6907 101.327 34.1893 88.3174C32.082 85.9439 29.9081 83.4928 27.8119 80.9973C17.9573 68.4864 20.1106 50.3556 32.6215 40.5006C34.8626 38.7353 37.3532 37.3123 40.0121 36.2783V70.6605C40.0215 75.1675 40.9533 79.6248 42.7501 83.7582C44.5469 87.8915 47.1706 91.6134 50.4598 94.6947L70.8784 113.749C73.3824 116.079 76.6751 117.374 80.095 117.376H84.2209C87.6679 117.38 90.9872 116.071 93.5041 113.716L106.314 101.848V106.851C106.298 115.644 109.032 124.222 114.133 131.384C114.237 131.529 114.373 131.647 114.531 131.728C114.69 131.809 114.865 131.851 115.043 131.85C115.27 131.855 115.492 131.785 115.675 131.65C115.914 131.48 116.076 131.223 116.126 130.934C116.176 130.645 116.11 130.348 115.941 130.108C111.104 123.307 108.513 115.163 108.532 106.817V100.44C108.527 100.244 108.47 100.052 108.366 99.8853L113.912 94.7058C114.018 94.6061 114.104 94.4863 114.164 94.3535C114.224 94.2206 114.257 94.0772 114.262 93.9315C114.266 93.7857 114.242 93.6405 114.191 93.5041C114.139 93.3677 114.061 93.2428 113.962 93.1364C113.862 93.0301 113.742 92.9445 113.609 92.8844C113.476 92.8244 113.333 92.7911 113.187 92.7865C113.041 92.7818 112.896 92.8059 112.76 92.8574C112.623 92.9089 112.498 92.9868 112.392 93.0865L91.9846 112.141C89.8796 114.111 87.1037 115.205 84.2209 115.202H80.095C77.2122 115.205 74.4364 114.111 72.3313 112.141L51.9127 93.0865C48.8435 90.2138 46.3952 86.743 44.7185 82.888C43.0418 79.033 42.1724 74.8754 42.1637 70.6716V35.5352C42.9734 35.2912 43.7941 35.0693 44.6259 34.903L69.0927 29.8566C80.9158 27.6384 90.2877 23.0134 97.02 15.9706C100.247 18.4328 112.547 27.7936 116.13 30.6773C118.353 32.4466 120.39 34.4386 122.208 36.6221C122.17 36.7178 122.148 36.819 122.141 36.9216V70.6716C122.141 70.9657 122.258 71.2478 122.466 71.4558C122.674 71.6638 122.956 71.7807 123.25 71.7807C123.544 71.7807 123.826 71.6638 124.034 71.4558C124.242 71.2478 124.359 70.9657 124.359 70.6716V39.4614C133.29 52.4024 134.524 69.161 127.587 83.271C127.46 83.5345 127.443 83.8372 127.539 84.1135C127.634 84.3897 127.835 84.617 128.097 84.7461C128.246 84.8293 128.415 84.8714 128.585 84.8681C128.791 84.8664 128.992 84.8074 129.167 84.6977C129.341 84.588 129.482 84.432 129.572 84.247C138.966 65.248 133.887 41.9569 117.505 28.936ZM28.189 7.46377C27.9578 7.28366 27.6647 7.20239 27.3737 7.23772C27.0828 7.27305 26.8177 7.4221 26.6363 7.65231C23.3393 12.0261 20.9979 17.0436 19.7637 22.3799C18.5294 27.7163 18.4299 33.2523 19.4715 38.6296C19.5164 38.89 19.6528 39.1258 19.8561 39.2946C20.0594 39.4633 20.3163 39.554 20.5806 39.5501H20.7802C20.9236 39.5247 21.0607 39.4713 21.1835 39.3929C21.3062 39.3146 21.4124 39.2128 21.4958 39.0934C21.5793 38.974 21.6384 38.8393 21.6698 38.6971C21.7012 38.5549 21.7043 38.4078 21.6789 38.2644L21.6786 38.2636C20.681 33.1914 20.762 27.9661 21.9161 22.9272C23.0702 17.8884 25.2718 13.1488 28.3776 9.01651C28.5577 8.78532 28.6391 8.4922 28.6037 8.20123C28.5684 7.91026 28.4193 7.64511 28.189 7.46377ZM27.6941 30.446L27.6902 30.4444C27.5521 30.3875 27.404 30.359 27.2547 30.3607C27.1054 30.3624 26.9579 30.3943 26.8212 30.4543C26.6845 30.5144 26.5613 30.6015 26.4591 30.7103C26.3568 30.8191 26.2776 30.9475 26.2262 31.0877C25.1256 33.7211 24.2969 36.46 23.7529 39.2618C23.6975 39.55 23.7587 39.8484 23.9229 40.0916C24.0871 40.3348 24.3411 40.503 24.6291 40.5594C24.6989 40.5702 24.7699 40.5702 24.8398 40.5594C25.1008 40.5641 25.3551 40.4766 25.558 40.3123C25.7609 40.1479 25.8993 39.9173 25.9489 39.661C26.4658 37.001 27.2498 34.3999 28.2891 31.8973C28.3453 31.7629 28.3745 31.6188 28.3751 31.4732C28.3756 31.3275 28.3474 31.1832 28.2922 31.0484C28.2369 30.9137 28.1556 30.7911 28.053 30.6878C27.9504 30.5844 27.8284 30.5023 27.6941 30.446Z"/>
</mask>
<path d="M117.505 28.936C113.912 26.0856 101.978 16.9466 98.5172 14.318C98.9831 13.7857 99.4378 13.2089 99.8703 12.6544C102.399 9.32706 104.883 2.67244 104.983 2.40626C105.058 2.13805 105.029 1.85161 104.902 1.6038C104.775 1.35599 104.56 1.16494 104.299 1.06857C104.038 0.972208 103.75 0.977577 103.492 1.08362C103.235 1.18965 103.027 1.38861 102.909 1.64097C102.909 1.70752 100.436 8.29559 98.1069 11.3124C91.6186 19.7748 81.7143 25.3203 68.6602 27.6716L44.1823 32.7291C27.383 36.1848 16.5656 52.6045 20.021 69.4041C20.9955 74.1419 23.0633 78.5865 26.0595 82.3837C26.085 82.4106 26.1075 82.4402 26.1261 82.4724C28.2223 84.9457 30.4072 87.419 32.5145 89.7925C43.4725 102.17 53.8204 113.86 47.8423 123.454C46.9772 124.84 42.807 128.755 37.7384 128.467C37.4442 128.451 37.1557 128.552 36.9363 128.749C36.8276 128.846 36.7392 128.964 36.6761 129.095C36.6129 129.227 36.5763 129.369 36.5683 129.515C36.5603 129.661 36.581 129.806 36.6294 129.944C36.6777 130.082 36.7527 130.208 36.85 130.317C37.0466 130.537 37.3222 130.669 37.6164 130.685H38.3151C40.5499 130.598 42.7361 130.008 44.7105 128.957C46.6848 127.907 48.3962 126.423 49.7167 124.618C56.5821 113.616 45.6907 101.327 34.1893 88.3174C32.082 85.9439 29.9081 83.4928 27.8119 80.9973C17.9573 68.4864 20.1106 50.3556 32.6215 40.5006C34.8626 38.7353 37.3532 37.3123 40.0121 36.2783V70.6605C40.0215 75.1675 40.9533 79.6248 42.7501 83.7582C44.5469 87.8915 47.1706 91.6134 50.4598 94.6947L70.8784 113.749C73.3824 116.079 76.6751 117.374 80.095 117.376H84.2209C87.6679 117.38 90.9872 116.071 93.5041 113.716L106.314 101.848V106.851C106.298 115.644 109.032 124.222 114.133 131.384C114.237 131.529 114.373 131.647 114.531 131.728C114.69 131.809 114.865 131.851 115.043 131.85C115.27 131.855 115.492 131.785 115.675 131.65C115.914 131.48 116.076 131.223 116.126 130.934C116.176 130.645 116.11 130.348 115.941 130.108C111.104 123.307 108.513 115.163 108.532 106.817V100.44C108.527 100.244 108.47 100.052 108.366 99.8853L113.912 94.7058C114.018 94.6061 114.104 94.4863 114.164 94.3535C114.224 94.2206 114.257 94.0772 114.262 93.9315C114.266 93.7857 114.242 93.6405 114.191 93.5041C114.139 93.3677 114.061 93.2428 113.962 93.1364C113.862 93.0301 113.742 92.9445 113.609 92.8844C113.476 92.8244 113.333 92.7911 113.187 92.7865C113.041 92.7818 112.896 92.8059 112.76 92.8574C112.623 92.9089 112.498 92.9868 112.392 93.0865L91.9846 112.141C89.8796 114.111 87.1037 115.205 84.2209 115.202H80.095C77.2122 115.205 74.4364 114.111 72.3313 112.141L51.9127 93.0865C48.8435 90.2138 46.3952 86.743 44.7185 82.888C43.0418 79.033 42.1724 74.8754 42.1637 70.6716V35.5352C42.9734 35.2912 43.7941 35.0693 44.6259 34.903L69.0927 29.8566C80.9158 27.6384 90.2877 23.0134 97.02 15.9706C100.247 18.4328 112.547 27.7936 116.13 30.6773C118.353 32.4466 120.39 34.4386 122.208 36.6221C122.17 36.7178 122.148 36.819 122.141 36.9216V70.6716C122.141 70.9657 122.258 71.2478 122.466 71.4558C122.674 71.6638 122.956 71.7807 123.25 71.7807C123.544 71.7807 123.826 71.6638 124.034 71.4558C124.242 71.2478 124.359 70.9657 124.359 70.6716V39.4614C133.29 52.4024 134.524 69.161 127.587 83.271C127.46 83.5345 127.443 83.8372 127.539 84.1135C127.634 84.3897 127.835 84.617 128.097 84.7461C128.246 84.8293 128.415 84.8714 128.585 84.8681C128.791 84.8664 128.992 84.8074 129.167 84.6977C129.341 84.588 129.482 84.432 129.572 84.247C138.966 65.248 133.887 41.9569 117.505 28.936ZM28.189 7.46377C27.9578 7.28366 27.6647 7.20239 27.3737 7.23772C27.0828 7.27305 26.8177 7.4221 26.6363 7.65231C23.3393 12.0261 20.9979 17.0436 19.7637 22.3799C18.5294 27.7163 18.4299 33.2523 19.4715 38.6296C19.5164 38.89 19.6528 39.1258 19.8561 39.2946C20.0594 39.4633 20.3163 39.554 20.5806 39.5501H20.7802C20.9236 39.5247 21.0607 39.4713 21.1835 39.3929C21.3062 39.3146 21.4124 39.2128 21.4958 39.0934C21.5793 38.974 21.6384 38.8393 21.6698 38.6971C21.7012 38.5549 21.7043 38.4078 21.6789 38.2644L21.6786 38.2636C20.681 33.1914 20.762 27.9661 21.9161 22.9272C23.0702 17.8884 25.2718 13.1488 28.3776 9.01651C28.5577 8.78532 28.6391 8.4922 28.6037 8.20123C28.5684 7.91026 28.4193 7.64511 28.189 7.46377ZM27.6941 30.446L27.6902 30.4444C27.5521 30.3875 27.404 30.359 27.2547 30.3607C27.1054 30.3624 26.9579 30.3943 26.8212 30.4543C26.6845 30.5144 26.5613 30.6015 26.4591 30.7103C26.3568 30.8191 26.2776 30.9475 26.2262 31.0877C25.1256 33.7211 24.2969 36.46 23.7529 39.2618C23.6975 39.55 23.7587 39.8484 23.9229 40.0916C24.0871 40.3348 24.3411 40.503 24.6291 40.5594C24.6989 40.5702 24.7699 40.5702 24.8398 40.5594C25.1008 40.5641 25.3551 40.4766 25.558 40.3123C25.7609 40.1479 25.8993 39.9173 25.9489 39.661C26.4658 37.001 27.2498 34.3999 28.2891 31.8973C28.3453 31.7629 28.3745 31.6188 28.3751 31.4732C28.3756 31.3275 28.3474 31.1832 28.2922 31.0484C28.2369 30.9137 28.1556 30.7911 28.053 30.6878C27.9504 30.5844 27.8284 30.5023 27.6941 30.446Z" fill="#8C73B3"/>
<path d="M117.505 28.936C113.912 26.0856 101.978 16.9466 98.5172 14.318C98.9831 13.7857 99.4378 13.2089 99.8703 12.6544C102.399 9.32706 104.883 2.67244 104.983 2.40626C105.058 2.13805 105.029 1.85161 104.902 1.6038C104.775 1.35599 104.56 1.16494 104.299 1.06857C104.038 0.972208 103.75 0.977577 103.492 1.08362C103.235 1.18965 103.027 1.38861 102.909 1.64097C102.909 1.70752 100.436 8.29559 98.1069 11.3124C91.6186 19.7748 81.7143 25.3203 68.6602 27.6716L44.1823 32.7291C27.383 36.1848 16.5656 52.6045 20.021 69.4041C20.9955 74.1419 23.0633 78.5865 26.0595 82.3837C26.085 82.4106 26.1075 82.4402 26.1261 82.4724C28.2223 84.9457 30.4072 87.419 32.5145 89.7925C43.4725 102.17 53.8204 113.86 47.8423 123.454C46.9772 124.84 42.807 128.755 37.7384 128.467C37.4442 128.451 37.1557 128.552 36.9363 128.749C36.8276 128.846 36.7392 128.964 36.6761 129.095C36.6129 129.227 36.5763 129.369 36.5683 129.515C36.5603 129.661 36.581 129.806 36.6294 129.944C36.6777 130.082 36.7527 130.208 36.85 130.317C37.0466 130.537 37.3222 130.669 37.6164 130.685H38.3151C40.5499 130.598 42.7361 130.008 44.7105 128.957C46.6848 127.907 48.3962 126.423 49.7167 124.618C56.5821 113.616 45.6907 101.327 34.1893 88.3174C32.082 85.9439 29.9081 83.4928 27.8119 80.9973C17.9573 68.4864 20.1106 50.3556 32.6215 40.5006C34.8626 38.7353 37.3532 37.3123 40.0121 36.2783V70.6605C40.0215 75.1675 40.9533 79.6248 42.7501 83.7582C44.5469 87.8915 47.1706 91.6134 50.4598 94.6947L70.8784 113.749C73.3824 116.079 76.6751 117.374 80.095 117.376H84.2209C87.6679 117.38 90.9872 116.071 93.5041 113.716L106.314 101.848V106.851C106.298 115.644 109.032 124.222 114.133 131.384C114.237 131.529 114.373 131.647 114.531 131.728C114.69 131.809 114.865 131.851 115.043 131.85C115.27 131.855 115.492 131.785 115.675 131.65C115.914 131.48 116.076 131.223 116.126 130.934C116.176 130.645 116.11 130.348 115.941 130.108C111.104 123.307 108.513 115.163 108.532 106.817V100.44C108.527 100.244 108.47 100.052 108.366 99.8853L113.912 94.7058C114.018 94.6061 114.104 94.4863 114.164 94.3535C114.224 94.2206 114.257 94.0772 114.262 93.9315C114.266 93.7857 114.242 93.6405 114.191 93.5041C114.139 93.3677 114.061 93.2428 113.962 93.1364C113.862 93.0301 113.742 92.9445 113.609 92.8844C113.476 92.8244 113.333 92.7911 113.187 92.7865C113.041 92.7818 112.896 92.8059 112.76 92.8574C112.623 92.9089 112.498 92.9868 112.392 93.0865L91.9846 112.141C89.8796 114.111 87.1037 115.205 84.2209 115.202H80.095C77.2122 115.205 74.4364 114.111 72.3313 112.141L51.9127 93.0865C48.8435 90.2138 46.3952 86.743 44.7185 82.888C43.0418 79.033 42.1724 74.8754 42.1637 70.6716V35.5352C42.9734 35.2912 43.7941 35.0693 44.6259 34.903L69.0927 29.8566C80.9158 27.6384 90.2877 23.0134 97.02 15.9706C100.247 18.4328 112.547 27.7936 116.13 30.6773C118.353 32.4466 120.39 34.4386 122.208 36.6221C122.17 36.7178 122.148 36.819 122.141 36.9216V70.6716C122.141 70.9657 122.258 71.2478 122.466 71.4558C122.674 71.6638 122.956 71.7807 123.25 71.7807C123.544 71.7807 123.826 71.6638 124.034 71.4558C124.242 71.2478 124.359 70.9657 124.359 70.6716V39.4614C133.29 52.4024 134.524 69.161 127.587 83.271C127.46 83.5345 127.443 83.8372 127.539 84.1135C127.634 84.3897 127.835 84.617 128.097 84.7461C128.246 84.8293 128.415 84.8714 128.585 84.8681C128.791 84.8664 128.992 84.8074 129.167 84.6977C129.341 84.588 129.482 84.432 129.572 84.247C138.966 65.248 133.887 41.9569 117.505 28.936ZM28.189 7.46377C27.9578 7.28366 27.6647 7.20239 27.3737 7.23772C27.0828 7.27305 26.8177 7.4221 26.6363 7.65231C23.3393 12.0261 20.9979 17.0436 19.7637 22.3799C18.5294 27.7163 18.4299 33.2523 19.4715 38.6296C19.5164 38.89 19.6528 39.1258 19.8561 39.2946C20.0594 39.4633 20.3163 39.554 20.5806 39.5501H20.7802C20.9236 39.5247 21.0607 39.4713 21.1835 39.3929C21.3062 39.3146 21.4124 39.2128 21.4958 39.0934C21.5793 38.974 21.6384 38.8393 21.6698 38.6971C21.7012 38.5549 21.7043 38.4078 21.6789 38.2644L21.6786 38.2636C20.681 33.1914 20.762 27.9661 21.9161 22.9272C23.0702 17.8884 25.2718 13.1488 28.3776 9.01651C28.5577 8.78532 28.6391 8.4922 28.6037 8.20123C28.5684 7.91026 28.4193 7.64511 28.189 7.46377ZM27.6941 30.446L27.6902 30.4444C27.5521 30.3875 27.404 30.359 27.2547 30.3607C27.1054 30.3624 26.9579 30.3943 26.8212 30.4543C26.6845 30.5144 26.5613 30.6015 26.4591 30.7103C26.3568 30.8191 26.2776 30.9475 26.2262 31.0877C25.1256 33.7211 24.2969 36.46 23.7529 39.2618C23.6975 39.55 23.7587 39.8484 23.9229 40.0916C24.0871 40.3348 24.3411 40.503 24.6291 40.5594C24.6989 40.5702 24.7699 40.5702 24.8398 40.5594C25.1008 40.5641 25.3551 40.4766 25.558 40.3123C25.7609 40.1479 25.8993 39.9173 25.9489 39.661C26.4658 37.001 27.2498 34.3999 28.2891 31.8973C28.3453 31.7629 28.3745 31.6188 28.3751 31.4732C28.3756 31.3275 28.3474 31.1832 28.2922 31.0484C28.2369 30.9137 28.1556 30.7911 28.053 30.6878C27.9504 30.5844 27.8284 30.5023 27.6941 30.446Z" stroke="#8C73B3" mask="url(#path-2-outside-2_1573_1442)"/>
<path d="M87.0609 4.37708L87.0609 4.37707C87.2027 4.26781 87.3646 4.18755 87.5374 4.14088C87.7103 4.09421 87.8906 4.08205 88.0681 4.10508C88.2456 4.1281 88.4168 4.18586 88.5719 4.27505C88.5719 4.27507 88.572 4.27509 88.572 4.2751L87.0609 4.37708ZM87.0609 4.37708C86.9192 4.48634 86.8003 4.62246 86.7111 4.77767L86.7105 4.77869C86.0869 5.87615 85.3963 6.93416 84.6426 7.94671M87.0609 4.37708L88.9725 4.62487C89.0818 4.76665 89.162 4.92857 89.2087 5.10137C89.2554 5.27417 89.2675 5.45448 89.2445 5.632C89.2215 5.80899 89.164 5.97975 89.0753 6.13457C88.4059 7.33282 87.6592 8.48627 86.8401 9.58762L86.8359 9.59336L86.8358 9.5933C86.7036 9.76081 86.5338 9.89485 86.3402 9.98456C86.1485 10.0734 85.9386 10.1163 85.7274 10.1099C85.437 10.1126 85.1532 10.0221 84.9179 9.8516L84.9146 9.84919C84.7718 9.74208 84.6515 9.60791 84.5606 9.45434C84.4697 9.30075 84.4099 9.13076 84.3846 8.95407C84.3594 8.7774 84.3692 8.59748 84.4135 8.42457C84.4578 8.2518 84.5356 8.08943 84.6426 7.94671M84.6426 7.94671C84.6426 7.94661 84.6427 7.94651 84.6428 7.94641L84.8428 8.09642L84.6423 7.94714C84.6424 7.947 84.6425 7.94685 84.6426 7.94671ZM24.7294 102.891L24.8291 102.662C31.0792 105.381 35.6803 108.402 38.5896 111.712C41.505 115.028 42.7228 118.636 42.1905 122.5C42.1472 122.829 41.9852 123.131 41.7351 123.348C41.4849 123.566 41.1639 123.685 40.8324 123.682H40.8336V123.432L40.8315 123.682L24.7294 102.891ZM24.7294 102.891L24.8291 102.662L14.1938 98.0377C14.1935 98.0376 14.1932 98.0374 14.1929 98.0373C8.50721 95.5344 4.89945 91.4764 3.70033 86.3315C3.66017 86.1576 3.58616 85.9933 3.48253 85.848C3.37885 85.7026 3.24754 85.5791 3.09611 85.4844C2.94468 85.3898 2.77609 85.3259 2.59997 85.2964C2.42386 85.2669 2.24365 85.2724 2.06965 85.3126C1.89567 85.3527 1.73128 85.4268 1.58589 85.5304L1.58588 85.5304C1.4405 85.6341 1.31696 85.7654 1.22232 85.9168L1.22232 85.9169C1.12767 86.0683 1.06378 86.2369 1.03429 86.413C1.00481 86.5891 1.01029 86.7693 1.05045 86.9433L1.05055 86.9437C2.03024 91.1553 4.91389 96.9166 13.0824 100.536L13.0838 100.536L23.7312 105.173L23.7313 105.173C29.439 107.656 33.6015 110.334 36.2231 113.177C38.8387 116.014 39.9136 119.006 39.4769 122.144L24.7294 102.891ZM111.351 71.5541L111.355 71.5517C111.654 71.3499 112.021 71.2752 112.375 71.344C112.729 71.4128 113.042 71.6194 113.243 71.9186M111.351 71.5541L113.243 71.9186M111.351 71.5541L111.349 71.5558C111.017 71.7877 110.682 72.0228 110.356 72.2696L110.356 72.27C110.07 72.4883 109.882 72.8112 109.833 73.1679C109.785 73.5247 109.88 73.886 110.098 74.1727L110.099 74.174C110.227 74.3403 110.391 74.4746 110.58 74.5666C110.768 74.6584 110.975 74.7054 111.185 74.7041M111.351 71.5541L111.185 74.7041M113.243 71.9186C113.343 72.0667 113.413 72.233 113.449 72.408C113.485 72.5831 113.485 72.7635 113.451 72.9389C113.417 73.1143 113.349 73.2813 113.25 73.4303C113.152 73.5793 113.025 73.7074 112.877 73.8073L112.875 73.8081C112.579 74.0054 112.285 74.2128 112.002 74.4304L111.999 74.4323C111.765 74.6084 111.479 74.7039 111.185 74.7041M113.243 71.9186L111.185 74.7041M111.185 74.7041C111.185 74.7041 111.184 74.7041 111.184 74.7041V74.4541L111.186 74.704C111.186 74.704 111.185 74.7041 111.185 74.7041ZM66.2244 18.9855L66.22 18.9863C66.0445 19.0189 65.8771 19.0857 65.7275 19.1829C65.5778 19.2802 65.4487 19.4059 65.3477 19.5531C65.2466 19.7002 65.1755 19.8658 65.1385 20.0404C65.1014 20.215 65.0991 20.3952 65.1317 20.5707L65.1321 20.5732L65.1321 20.5732L65.1329 20.5772C65.1937 20.8913 65.3633 21.1739 65.6118 21.3752C65.8604 21.5766 66.1721 21.6838 66.4919 21.6781L66.4919 21.6783L66.5021 21.6777L66.6906 21.6666L66.7041 21.6658L66.7173 21.6636C72.7423 20.6521 78.361 17.9654 82.9307 13.9107C83.2088 13.6851 83.3867 13.3587 83.4256 13.0025C83.4647 12.6442 83.3599 12.2851 83.1343 12.004C83.0141 11.8542 82.8635 11.7316 82.6924 11.6442L82.5787 11.8669L82.6924 11.6442C82.5214 11.5569 82.3337 11.5068 82.1419 11.4973C81.9501 11.4878 81.7584 11.5191 81.5795 11.5891C81.4036 11.6579 81.2441 11.7627 81.111 11.8966C76.9101 15.6062 71.7523 18.0624 66.2244 18.9855Z" fill="#8C73B3" stroke="#8C73B3" stroke-width="0.5"/>
<path d="M126.02 95.9011L128.732 92.9429L136.7 100.401L136.701 100.402C136.966 100.647 137.317 100.777 137.677 100.763C138.038 100.749 138.378 100.592 138.623 100.327C138.868 100.062 138.998 99.7109 138.984 99.3504C138.97 98.9898 138.813 98.6496 138.549 98.4045L138.548 98.4043L130.073 90.5822L124.082 83.8756L118.242 66.1793L118.242 66.178C118.147 65.8967 117.963 65.6541 117.718 65.4872C117.472 65.3203 117.179 65.2383 116.882 65.2538L116.882 65.2537L116.875 65.2543C105.981 66.1617 97.5868 75.2421 97.5356 86.1731C97.5274 86.4824 97.6249 86.7854 97.8122 87.0318C98.0001 87.2791 98.2671 87.4546 98.5687 87.529L98.5688 87.529L116.552 91.9528L123.688 97.4591L136.7 109.551C136.7 109.551 136.7 109.551 136.7 109.551C136.95 109.786 137.281 109.917 137.624 109.918L137.625 109.918C137.898 109.917 138.163 109.834 138.388 109.681C138.613 109.527 138.786 109.309 138.886 109.056C138.985 108.803 139.006 108.525 138.947 108.26C138.887 107.994 138.748 107.753 138.55 107.567L138.549 107.566L126.02 95.9011ZM120.505 85.0991L118.63 79.4219L118.63 79.4217C118.574 79.2521 118.485 79.0953 118.368 78.9602C118.251 78.8251 118.109 78.7143 117.949 78.6342C117.79 78.5541 117.616 78.5062 117.438 78.4932C117.26 78.4803 117.081 78.5026 116.911 78.5588C116.742 78.615 116.585 78.704 116.45 78.8208C116.315 78.9377 116.204 79.0799 116.124 79.2396C116.043 79.3992 115.996 79.573 115.983 79.7512C115.97 79.9293 115.992 80.1082 116.048 80.2777C116.048 80.2777 116.048 80.2777 116.048 80.2778L118.397 87.3686L116.702 89.1932L104.953 86.2882C105.458 82.9098 106.907 79.7407 109.133 77.1457C109.369 76.8719 109.486 76.5157 109.459 76.1554C109.433 75.7949 109.264 75.4599 108.99 75.2239C108.716 74.988 108.36 74.8704 107.999 74.8972C107.639 74.9239 107.304 75.0928 107.068 75.3665L107.067 75.3672C104.569 78.2872 102.923 81.8361 102.305 85.6254L100.287 85.1298C100.816 76.4302 107.387 69.2953 116.014 68.0533L121.347 84.1962L120.505 85.0991ZM123.909 94.1907L119.172 90.5377L122.882 86.5049L126.873 90.9662L123.909 94.1907Z" fill="#8C73B3" stroke="#8C73B3" stroke-width="0.5"/>
</svg>
