<svg width="128" height="135" viewBox="0 0 128 135" fill="none" xmlns="http://www.w3.org/2000/svg">
<path d="M42.9466 33.2879C38.4129 40.03 36.0338 47.9293 36.2857 55.674C36.4607 61.0523 38.7113 68.3044 40.1493 72.5016C40.5035 73.5381 40.5765 74.6499 40.3609 75.7238C40.1453 76.7976 39.6487 77.7951 38.9218 78.6145L34.6908 83.3893C33.4702 84.5848 33.6905 86.6074 35.1399 87.5122L41.002 90.6778L42.3693 101.931M101.368 22.5862C94.6949 17.9077 86.5679 15.1621 77.7995 15.1621C63.8483 15.1621 52.6145 21.2876 45.3655 30.05M110.861 118.391C109.093 116.982 107.074 115.513 104.771 114.003L100.079 90.8055C111.404 83.4861 118.9 70.7505 118.9 56.2629C118.9 43.7753 113.331 32.5884 104.541 25.0503M51.1332 110.326L69.8107 107.37L71.0811 119.922L52.1166 132.849H122.977C122.977 132.849 121.594 127.917 113.903 120.969M47.5982 71.4882H54.4872C56.7856 71.4882 58.6489 69.6249 58.6489 67.3265M38.2786 42.6798L116.417 70.3616M115.416 39.683L58.5956 19.5531" stroke="#8C73B3" stroke-width="2.5" stroke-miterlimit="10"/>
<path d="M38.2734 42.6814L57.2174 49.3787C64.7959 52.0578 73.0923 47.9613 75.5725 40.3155C77.9632 32.9452 74.0445 25.0124 66.7383 22.4325L58.5905 19.5547" stroke="#8C73B3" stroke-width="2.5" stroke-miterlimit="10"/>
<path d="M100.075 90.8059L86.4944 80.5452C91.2126 81.4739 95.9312 77.6861 97.0338 72.0849C97.7507 68.4433 96.7626 64.9315 94.6869 62.6648L87.8572 60.2168C84.1269 60.8163 80.8439 64.1703 79.9479 68.7211L79.8711 69.1551" stroke="#8C73B3" stroke-width="2.5" stroke-miterlimit="2"/>
<path d="M111.66 32.9693C117.492 33.7775 122.639 32.2021 125.076 28.2945C128.977 22.0379 124.452 12.1721 114.969 6.25903C105.486 0.34569 94.6357 0.624313 90.7342 6.88092C88.9298 9.7748 88.9311 13.441 90.3889 17.1306M66.5619 107.887L73.1114 106.782C79.4601 105.71 84.1077 100.212 84.1077 93.7734M79.1754 83.8491L78.3408 85.6435C78.0376 86.2293 77.7577 86.8274 77.4329 87.4015M75.3699 90.7764C74.6166 91.859 73.8351 92.9239 72.9789 93.9281M70.2982 96.8375C69.3584 97.7628 68.384 98.6544 67.3613 99.4881M64.1991 101.865C63.1112 102.612 61.9909 103.31 60.8414 103.958M3.69846 124.628L49.3503 97.8333L50.1126 99.1322C53.8007 105.416 51.6965 113.499 45.413 117.187L32.0161 125.05L26.7579 121.304L8.15589 132.222C6.05884 133.453 3.36073 132.751 2.12989 130.654C0.89904 128.556 1.60114 125.859 3.69846 124.628Z" stroke="#8C73B3" stroke-width="2.5" stroke-miterlimit="10"/>
</svg>
