<svg width="204" height="234" viewBox="0 0 204 234" fill="none" xmlns="http://www.w3.org/2000/svg">
<path d="M52.9334 35.7748L71.2119 25.7867L67.9832 36.5529L67.246 44.0489C67.0319 46.2257 67.0013 48.4166 67.1545 50.5985L67.6122 57.1159C67.8578 60.6121 68.6586 64.0467 69.9848 67.2908L71.0536 69.9053C73.738 76.4719 78.042 82.2513 83.5642 86.7043L84.1262 87.1575L89.5248 91.7628L80.8974 89.3109L78.1034 88.2212C74.9807 87.0033 72.1021 85.2345 69.6047 82.9991L65.8301 79.6204L61.8061 75.3417C59.5002 72.8898 57.6167 70.0725 56.2322 67.0044V67.0044C53.3566 60.6321 52.0389 53.6667 52.388 46.6838L52.9334 35.7748Z" fill="url(#paint0_linear_1611_148)"/>
<path d="M99.4151 7.98459L117.932 17.5223L107.212 20.8864L100.597 24.479C98.6739 25.5232 96.8424 26.7274 95.1216 28.0788L89.9891 32.1099C87.2317 34.2755 84.8369 36.8668 82.8948 39.7865L81.335 42.1314C77.4045 48.0403 75.0345 54.849 74.4463 61.9221L74.3867 62.639L73.6032 69.6935L70.7938 61.1725L70.1284 58.2462C69.3851 54.9772 69.2345 51.6013 69.6838 48.2791L70.3629 43.2576L71.6473 37.5239C72.383 34.2395 73.658 31.0998 75.4203 28.2326V28.2326C79.0813 22.2767 84.107 17.2783 90.0819 13.6509L99.4151 7.98459Z" fill="url(#paint1_linear_1611_148)"/>
<path d="M152.658 35.5418L153.497 56.3612L145.284 48.6899L138.899 44.705C137.042 43.5461 135.091 42.5456 133.066 41.714L127.034 39.2364C123.789 37.904 120.353 37.0973 116.855 36.8467L114.052 36.646C106.974 36.139 99.8826 37.4343 93.441 40.4109L92.79 40.7117L86.2693 43.5088L92.2933 36.8615L94.5102 34.8389C96.9858 32.5802 99.8469 30.7845 102.957 29.5372L107.659 27.6519L113.279 25.9419C116.497 24.9627 119.856 24.524 123.218 24.6439V24.6439C130.202 24.893 137.028 26.8022 143.129 30.2135L152.658 35.5418Z" fill="url(#paint2_linear_1611_148)"/>
<path d="M153.085 94.7782L135.303 105.626L138.015 94.7182L138.395 87.1957C138.505 85.0111 138.432 82.8211 138.175 80.6489L137.407 74.161C136.996 70.6803 136.032 67.2876 134.553 64.1104L133.361 61.55C130.367 55.1187 125.793 49.5509 120.065 45.3661L119.482 44.9403L113.871 40.5974L122.605 42.6354L125.448 43.5907C128.625 44.6584 131.584 46.288 134.185 48.4019L138.116 51.5968L142.339 55.6789C144.759 58.0181 146.775 60.7425 148.304 63.7411V63.7411C151.479 69.9692 153.127 76.8639 153.111 83.8555L153.085 94.7782Z" fill="url(#paint3_linear_1611_148)"/>
<path d="M100.951 124.766L82.979 114.238L93.8654 111.46L100.665 108.231C102.641 107.292 104.535 106.189 106.327 104.933L111.67 101.186C114.54 99.173 117.072 96.715 119.169 93.9046L120.854 91.6482C125.098 85.9605 127.834 79.2896 128.805 72.2582L128.903 71.5458L130.068 64.5438L132.411 73.2052L132.917 76.1635C133.482 79.4681 133.449 82.8474 132.82 86.1406L131.87 91.1182L130.277 96.7744C129.364 100.014 127.921 103.08 126.006 105.848V105.848C122.028 111.597 116.739 116.316 110.577 119.614L100.951 124.766Z" fill="url(#paint4_linear_1611_148)"/>
<path d="M51.4551 93.1543L52.1277 72.3286L59.7622 80.5758L65.8418 85.0137C67.6098 86.3043 69.4832 87.4437 71.4422 88.42L77.2799 91.3291C80.419 92.8935 83.7871 93.9473 87.2576 94.451L90.0392 94.8548C97.062 95.8741 104.228 95.0968 110.868 92.5955L111.539 92.3426L118.246 90.0261L111.756 96.2188L109.398 98.0752C106.765 100.148 103.782 101.732 100.589 102.75L95.7636 104.289L90.0347 105.587C86.7539 106.33 83.3724 106.524 80.0279 106.16V106.16C73.0798 105.405 66.411 103.005 60.5733 99.1603L51.4551 93.1543Z" fill="url(#paint5_linear_1611_148)"/>
<path d="M105.198 71.02H94.7891L94.7334 65.2866H103.473C105.013 65.2866 106.274 65.0918 107.258 64.7021C108.241 64.2939 108.974 63.7095 109.457 62.9487C109.958 62.1694 110.208 61.2231 110.208 60.1099C110.208 58.8481 109.967 57.8276 109.484 57.0483C109.021 56.269 108.288 55.7031 107.286 55.3506C106.302 54.998 105.031 54.8218 103.473 54.8218H97.6836V88.8047H89.334V48.2812H103.473C105.829 48.2812 107.935 48.5039 109.791 48.9492C111.665 49.3945 113.251 50.0718 114.55 50.981C115.849 51.8901 116.841 53.0405 117.528 54.4321C118.214 55.8052 118.558 57.438 118.558 59.3306C118.558 61.0005 118.177 62.5405 117.417 63.9507C116.674 65.3608 115.496 66.5112 113.882 67.4019C112.286 68.2925 110.199 68.7842 107.62 68.877L105.198 71.02ZM104.836 88.8047H92.5068L95.7632 82.292H104.836C106.302 82.292 107.499 82.0601 108.427 81.5962C109.354 81.1138 110.041 80.4644 110.486 79.6479C110.932 78.8315 111.154 77.8945 111.154 76.8369C111.154 75.6494 110.95 74.6196 110.542 73.7476C110.152 72.8755 109.521 72.2075 108.649 71.7437C107.777 71.2612 106.627 71.02 105.198 71.02H97.1548L97.2104 65.2866H107.23L109.15 67.541C111.618 67.5039 113.604 67.9399 115.106 68.8491C116.628 69.7397 117.732 70.8994 118.418 72.3281C119.124 73.7568 119.476 75.2876 119.476 76.9204C119.476 79.5181 118.91 81.7075 117.778 83.4888C116.646 85.2515 114.986 86.5781 112.796 87.4688C110.625 88.3594 107.972 88.8047 104.836 88.8047Z" fill="#848688"/>
<path d="M107.465 68.5676L107.463 68.5693L104.008 71.5113C99.9113 74.9987 97.5512 80.1076 97.5512 85.4873V86.5924C97.5512 87.7954 96.992 88.9301 96.0381 89.6631C95.3615 90.1829 94.5321 90.4647 93.6789 90.4647H92.6648C91.5619 90.4647 90.4837 90.1382 89.5661 89.5265C88.5325 88.8374 87.7581 87.8235 87.3652 86.645L87.2887 86.4153C87.0748 85.7738 86.9658 85.102 86.9658 84.4257V82.2409C86.9658 80.9399 87.0943 79.6422 87.3495 78.3665L87.5944 77.1416C87.8631 75.7984 88.3243 74.4925 88.957 73.2773C90.0796 71.121 91.7356 69.2704 93.7579 67.9222L96.8814 65.8399L104.547 62.0071C104.992 61.7846 105.452 61.5939 105.924 61.4366L106.834 61.1332C107.858 60.792 108.788 60.2172 109.551 59.4542C110.217 58.7886 110.74 57.9948 111.09 57.1208L112.294 54.1109C112.554 53.4601 112.688 52.7655 112.688 52.0646V47.4857C112.688 47.2477 112.881 47.0547 113.119 47.0547C113.263 47.0547 113.398 47.1267 113.477 47.2466L114.733 49.1305C115.129 49.7233 115.383 50.3987 115.476 51.105L115.739 53.094V56.214C115.739 57.572 115.52 58.9212 115.091 60.2095L114.894 60.7999C114.773 61.1631 114.626 61.5173 114.455 61.8598C113.956 62.8583 113.255 63.7427 112.398 64.4573L107.465 68.5676Z" fill="#373435" stroke="white" stroke-width="0.5"/>
<path d="M11.2695 173.609H5.07812L5.11719 169.039H11.2695C12.806 169.039 14.1016 168.694 15.1562 168.004C16.2109 167.301 17.0052 166.279 17.5391 164.938C18.0859 163.596 18.3594 161.975 18.3594 160.074V158.688C18.3594 157.229 18.2031 155.947 17.8906 154.84C17.5911 153.733 17.1419 152.802 16.543 152.047C15.944 151.292 15.2083 150.725 14.3359 150.348C13.4635 149.957 12.4609 149.762 11.3281 149.762H4.96094V145.172H11.3281C13.2292 145.172 14.9674 145.497 16.543 146.148C18.1315 146.786 19.5052 147.704 20.6641 148.902C21.8229 150.1 22.7148 151.533 23.3398 153.199C23.9779 154.853 24.2969 156.695 24.2969 158.727V160.074C24.2969 162.092 23.9779 163.935 23.3398 165.602C22.7148 167.268 21.8229 168.701 20.6641 169.898C19.5182 171.083 18.1445 172.001 16.543 172.652C14.9544 173.29 13.1966 173.609 11.2695 173.609ZM8.39844 145.172V173.609H2.53906V145.172H8.39844ZM28.5547 145.172H39.1602C41.3346 145.172 43.2031 145.497 44.7656 146.148C46.3411 146.799 47.5521 147.763 48.3984 149.039C49.2448 150.315 49.668 151.884 49.668 153.746C49.668 155.27 49.4076 156.578 48.8867 157.672C48.3789 158.753 47.6562 159.658 46.7188 160.387C45.7943 161.103 44.707 161.676 43.457 162.105L41.6016 163.082H32.3828L32.3438 158.512H39.1992C40.2279 158.512 41.0807 158.329 41.7578 157.965C42.4349 157.6 42.9427 157.092 43.2812 156.441C43.6328 155.79 43.8086 155.035 43.8086 154.176C43.8086 153.264 43.6393 152.477 43.3008 151.812C42.9622 151.148 42.4479 150.641 41.7578 150.289C41.0677 149.938 40.2018 149.762 39.1602 149.762H34.4141V173.609H28.5547V145.172ZM44.4531 173.609L37.9688 160.934L44.1602 160.895L50.7227 173.336V173.609H44.4531ZM54.1016 170.895C54.1016 170.061 54.388 169.365 54.9609 168.805C55.5469 168.245 56.3216 167.965 57.2852 167.965C58.2487 167.965 59.0169 168.245 59.5898 168.805C60.1758 169.365 60.4688 170.061 60.4688 170.895C60.4688 171.728 60.1758 172.424 59.5898 172.984C59.0169 173.544 58.2487 173.824 57.2852 173.824C56.3216 173.824 55.5469 173.544 54.9609 172.984C54.388 172.424 54.1016 171.728 54.1016 170.895ZM86.875 161.129H79.5703L79.5312 157.105H85.6641C86.7448 157.105 87.6302 156.969 88.3203 156.695C89.0104 156.409 89.5247 155.999 89.8633 155.465C90.2148 154.918 90.3906 154.254 90.3906 153.473C90.3906 152.587 90.2214 151.871 89.8828 151.324C89.5573 150.777 89.043 150.38 88.3398 150.133C87.6497 149.885 86.7578 149.762 85.6641 149.762H81.6016V173.609H75.7422V145.172H85.6641C87.3177 145.172 88.7956 145.328 90.0977 145.641C91.4128 145.953 92.526 146.428 93.4375 147.066C94.349 147.704 95.0456 148.512 95.5273 149.488C96.0091 150.452 96.25 151.598 96.25 152.926C96.25 154.098 95.9831 155.178 95.4492 156.168C94.9284 157.158 94.1016 157.965 92.9688 158.59C91.849 159.215 90.3841 159.56 88.5742 159.625L86.875 161.129ZM86.6211 173.609H77.9688L80.2539 169.039H86.6211C87.6497 169.039 88.4896 168.876 89.1406 168.551C89.7917 168.212 90.2734 167.757 90.5859 167.184C90.8984 166.611 91.0547 165.953 91.0547 165.211C91.0547 164.378 90.9115 163.655 90.625 163.043C90.3516 162.431 89.9089 161.962 89.2969 161.637C88.6849 161.298 87.8776 161.129 86.875 161.129H81.2305L81.2695 157.105H88.3008L89.6484 158.688C91.3802 158.661 92.7734 158.967 93.8281 159.605C94.8958 160.23 95.6706 161.044 96.1523 162.047C96.6471 163.049 96.8945 164.124 96.8945 165.27C96.8945 167.092 96.4974 168.629 95.7031 169.879C94.9089 171.116 93.7435 172.047 92.207 172.672C90.6836 173.297 88.8216 173.609 86.6211 173.609ZM112.344 168.844V159.43C112.344 158.753 112.233 158.173 112.012 157.691C111.79 157.197 111.445 156.812 110.977 156.539C110.521 156.266 109.928 156.129 109.199 156.129C108.574 156.129 108.034 156.24 107.578 156.461C107.122 156.669 106.771 156.975 106.523 157.379C106.276 157.77 106.152 158.232 106.152 158.766H100.527C100.527 157.867 100.736 157.014 101.152 156.207C101.569 155.4 102.174 154.69 102.969 154.078C103.763 153.453 104.707 152.965 105.801 152.613C106.908 152.262 108.145 152.086 109.512 152.086C111.152 152.086 112.611 152.359 113.887 152.906C115.163 153.453 116.165 154.273 116.895 155.367C117.637 156.461 118.008 157.828 118.008 159.469V168.512C118.008 169.671 118.079 170.621 118.223 171.363C118.366 172.092 118.574 172.73 118.848 173.277V173.609H113.164C112.891 173.036 112.682 172.32 112.539 171.461C112.409 170.589 112.344 169.716 112.344 168.844ZM113.086 160.738L113.125 163.922H109.98C109.238 163.922 108.594 164.007 108.047 164.176C107.5 164.345 107.051 164.586 106.699 164.898C106.348 165.198 106.087 165.549 105.918 165.953C105.762 166.357 105.684 166.799 105.684 167.281C105.684 167.763 105.794 168.199 106.016 168.59C106.237 168.967 106.556 169.267 106.973 169.488C107.389 169.697 107.878 169.801 108.438 169.801C109.284 169.801 110.02 169.632 110.645 169.293C111.27 168.954 111.751 168.538 112.09 168.043C112.441 167.548 112.624 167.079 112.637 166.637L114.121 169.02C113.913 169.553 113.626 170.107 113.262 170.68C112.91 171.253 112.461 171.793 111.914 172.301C111.367 172.796 110.71 173.206 109.941 173.531C109.173 173.844 108.262 174 107.207 174C105.866 174 104.648 173.733 103.555 173.199C102.474 172.652 101.615 171.904 100.977 170.953C100.352 169.99 100.039 168.896 100.039 167.672C100.039 166.565 100.247 165.582 100.664 164.723C101.081 163.863 101.693 163.141 102.5 162.555C103.32 161.956 104.342 161.507 105.566 161.207C106.79 160.895 108.21 160.738 109.824 160.738H113.086ZM127.969 157.086V173.609H122.344V152.477H127.637L127.969 157.086ZM134.336 152.34L134.238 157.555C133.965 157.516 133.633 157.483 133.242 157.457C132.865 157.418 132.52 157.398 132.207 157.398C131.413 157.398 130.723 157.503 130.137 157.711C129.564 157.906 129.082 158.199 128.691 158.59C128.314 158.98 128.027 159.456 127.832 160.016C127.65 160.576 127.546 161.214 127.52 161.93L126.387 161.578C126.387 160.211 126.523 158.954 126.797 157.809C127.07 156.65 127.467 155.641 127.988 154.781C128.522 153.922 129.173 153.258 129.941 152.789C130.71 152.32 131.589 152.086 132.578 152.086C132.891 152.086 133.21 152.112 133.535 152.164C133.861 152.203 134.128 152.262 134.336 152.34ZM149.082 169V143.609H154.746V173.609H149.648L149.082 169ZM135.723 163.297V162.887C135.723 161.272 135.905 159.807 136.27 158.492C136.634 157.164 137.168 156.025 137.871 155.074C138.574 154.124 139.44 153.388 140.469 152.867C141.497 152.346 142.669 152.086 143.984 152.086C145.221 152.086 146.302 152.346 147.227 152.867C148.164 153.388 148.958 154.13 149.609 155.094C150.273 156.044 150.807 157.171 151.211 158.473C151.615 159.762 151.908 161.174 152.09 162.711V163.609C151.908 165.081 151.615 166.448 151.211 167.711C150.807 168.974 150.273 170.081 149.609 171.031C148.958 171.969 148.164 172.698 147.227 173.219C146.289 173.74 145.195 174 143.945 174C142.63 174 141.458 173.733 140.43 173.199C139.414 172.665 138.555 171.917 137.852 170.953C137.161 169.99 136.634 168.857 136.27 167.555C135.905 166.253 135.723 164.833 135.723 163.297ZM141.348 162.887V163.297C141.348 164.169 141.413 164.983 141.543 165.738C141.686 166.493 141.914 167.164 142.227 167.75C142.552 168.323 142.969 168.772 143.477 169.098C143.997 169.41 144.629 169.566 145.371 169.566C146.335 169.566 147.129 169.352 147.754 168.922C148.379 168.479 148.854 167.874 149.18 167.105C149.518 166.337 149.714 165.452 149.766 164.449V161.891C149.727 161.07 149.609 160.335 149.414 159.684C149.232 159.02 148.958 158.453 148.594 157.984C148.242 157.516 147.799 157.151 147.266 156.891C146.745 156.63 146.126 156.5 145.41 156.5C144.681 156.5 144.056 156.669 143.535 157.008C143.014 157.333 142.591 157.783 142.266 158.355C141.953 158.928 141.719 159.605 141.562 160.387C141.419 161.155 141.348 161.988 141.348 162.887ZM168.867 174C167.227 174 165.755 173.74 164.453 173.219C163.151 172.685 162.044 171.949 161.133 171.012C160.234 170.074 159.544 168.987 159.062 167.75C158.581 166.5 158.34 165.172 158.34 163.766V162.984C158.34 161.383 158.568 159.918 159.023 158.59C159.479 157.262 160.13 156.109 160.977 155.133C161.836 154.156 162.878 153.408 164.102 152.887C165.326 152.353 166.706 152.086 168.242 152.086C169.74 152.086 171.068 152.333 172.227 152.828C173.385 153.323 174.355 154.026 175.137 154.938C175.931 155.849 176.53 156.943 176.934 158.219C177.337 159.482 177.539 160.888 177.539 162.438V164.781H160.742V161.031H172.012V160.602C172.012 159.82 171.868 159.124 171.582 158.512C171.309 157.887 170.892 157.392 170.332 157.027C169.772 156.663 169.056 156.48 168.184 156.48C167.441 156.48 166.803 156.643 166.27 156.969C165.736 157.294 165.299 157.75 164.961 158.336C164.635 158.922 164.388 159.612 164.219 160.406C164.062 161.188 163.984 162.047 163.984 162.984V163.766C163.984 164.612 164.102 165.393 164.336 166.109C164.583 166.826 164.928 167.444 165.371 167.965C165.827 168.486 166.374 168.889 167.012 169.176C167.663 169.462 168.398 169.605 169.219 169.605C170.234 169.605 171.178 169.41 172.051 169.02C172.936 168.616 173.698 168.01 174.336 167.203L177.07 170.172C176.628 170.81 176.022 171.422 175.254 172.008C174.499 172.594 173.587 173.076 172.52 173.453C171.452 173.818 170.234 174 168.867 174ZM184.512 143.609V146.578C184.512 147.424 184.349 148.297 184.023 149.195C183.711 150.094 183.288 150.947 182.754 151.754C182.22 152.548 181.634 153.225 180.996 153.785L178.359 152.262C178.841 151.493 179.251 150.66 179.59 149.762C179.928 148.85 180.098 147.796 180.098 146.598V143.609H184.512ZM196.191 167.77C196.191 167.366 196.074 167.001 195.84 166.676C195.605 166.35 195.169 166.051 194.531 165.777C193.906 165.491 193.001 165.23 191.816 164.996C190.749 164.762 189.753 164.469 188.828 164.117C187.917 163.753 187.122 163.316 186.445 162.809C185.781 162.301 185.26 161.702 184.883 161.012C184.505 160.309 184.316 159.508 184.316 158.609C184.316 157.724 184.505 156.891 184.883 156.109C185.273 155.328 185.827 154.638 186.543 154.039C187.272 153.427 188.158 152.952 189.199 152.613C190.254 152.262 191.439 152.086 192.754 152.086C194.59 152.086 196.165 152.379 197.48 152.965C198.809 153.551 199.824 154.358 200.527 155.387C201.243 156.402 201.602 157.561 201.602 158.863H195.977C195.977 158.316 195.859 157.828 195.625 157.398C195.404 156.956 195.052 156.611 194.57 156.363C194.102 156.103 193.49 155.973 192.734 155.973C192.109 155.973 191.569 156.083 191.113 156.305C190.658 156.513 190.306 156.799 190.059 157.164C189.824 157.516 189.707 157.906 189.707 158.336C189.707 158.661 189.772 158.954 189.902 159.215C190.046 159.462 190.273 159.69 190.586 159.898C190.898 160.107 191.302 160.302 191.797 160.484C192.305 160.654 192.93 160.81 193.672 160.953C195.195 161.266 196.556 161.676 197.754 162.184C198.952 162.678 199.902 163.355 200.605 164.215C201.309 165.061 201.66 166.174 201.66 167.555C201.66 168.492 201.452 169.352 201.035 170.133C200.618 170.914 200.02 171.598 199.238 172.184C198.457 172.757 197.52 173.206 196.426 173.531C195.345 173.844 194.128 174 192.773 174C190.807 174 189.141 173.648 187.773 172.945C186.419 172.242 185.391 171.35 184.688 170.27C183.997 169.176 183.652 168.056 183.652 166.91H188.984C189.01 167.678 189.206 168.297 189.57 168.766C189.948 169.234 190.423 169.573 190.996 169.781C191.582 169.99 192.214 170.094 192.891 170.094C193.62 170.094 194.225 169.996 194.707 169.801C195.189 169.592 195.553 169.319 195.801 168.98C196.061 168.629 196.191 168.225 196.191 167.77Z" fill="#848688"/>
<path d="M3.04688 182.484H15.7734C18.3828 182.484 20.625 182.875 22.5 183.656C24.3906 184.438 25.8438 185.594 26.8594 187.125C27.875 188.656 28.3828 190.539 28.3828 192.773C28.3828 194.602 28.0703 196.172 27.4453 197.484C26.8359 198.781 25.9688 199.867 24.8438 200.742C23.7344 201.602 22.4297 202.289 20.9297 202.805L18.7031 203.977H7.64062L7.59375 198.492H15.8203C17.0547 198.492 18.0781 198.273 18.8906 197.836C19.7031 197.398 20.3125 196.789 20.7188 196.008C21.1406 195.227 21.3516 194.32 21.3516 193.289C21.3516 192.195 21.1484 191.25 20.7422 190.453C20.3359 189.656 19.7188 189.047 18.8906 188.625C18.0625 188.203 17.0234 187.992 15.7734 187.992H10.0781V216.609H3.04688V182.484ZM22.125 216.609L14.3438 201.398L21.7734 201.352L29.6484 216.281V216.609H22.125ZM47.0625 210.891V199.594C47.0625 198.781 46.9297 198.086 46.6641 197.508C46.3984 196.914 45.9844 196.453 45.4219 196.125C44.875 195.797 44.1641 195.633 43.2891 195.633C42.5391 195.633 41.8906 195.766 41.3438 196.031C40.7969 196.281 40.375 196.648 40.0781 197.133C39.7812 197.602 39.6328 198.156 39.6328 198.797H32.8828C32.8828 197.719 33.1328 196.695 33.6328 195.727C34.1328 194.758 34.8594 193.906 35.8125 193.172C36.7656 192.422 37.8984 191.836 39.2109 191.414C40.5391 190.992 42.0234 190.781 43.6641 190.781C45.6328 190.781 47.3828 191.109 48.9141 191.766C50.4453 192.422 51.6484 193.406 52.5234 194.719C53.4141 196.031 53.8594 197.672 53.8594 199.641V210.492C53.8594 211.883 53.9453 213.023 54.1172 213.914C54.2891 214.789 54.5391 215.555 54.8672 216.211V216.609H48.0469C47.7188 215.922 47.4688 215.062 47.2969 214.031C47.1406 212.984 47.0625 211.938 47.0625 210.891ZM47.9531 201.164L48 204.984H44.2266C43.3359 204.984 42.5625 205.086 41.9062 205.289C41.25 205.492 40.7109 205.781 40.2891 206.156C39.8672 206.516 39.5547 206.938 39.3516 207.422C39.1641 207.906 39.0703 208.438 39.0703 209.016C39.0703 209.594 39.2031 210.117 39.4688 210.586C39.7344 211.039 40.1172 211.398 40.6172 211.664C41.1172 211.914 41.7031 212.039 42.375 212.039C43.3906 212.039 44.2734 211.836 45.0234 211.43C45.7734 211.023 46.3516 210.523 46.7578 209.93C47.1797 209.336 47.3984 208.773 47.4141 208.242L49.1953 211.102C48.9453 211.742 48.6016 212.406 48.1641 213.094C47.7422 213.781 47.2031 214.43 46.5469 215.039C45.8906 215.633 45.1016 216.125 44.1797 216.516C43.2578 216.891 42.1641 217.078 40.8984 217.078C39.2891 217.078 37.8281 216.758 36.5156 216.117C35.2188 215.461 34.1875 214.562 33.4219 213.422C32.6719 212.266 32.2969 210.953 32.2969 209.484C32.2969 208.156 32.5469 206.977 33.0469 205.945C33.5469 204.914 34.2812 204.047 35.25 203.344C36.2344 202.625 37.4609 202.086 38.9297 201.727C40.3984 201.352 42.1016 201.164 44.0391 201.164H47.9531ZM74.0391 211.078V180.609H80.8359V216.609H74.7188L74.0391 211.078ZM58.0078 204.234V203.742C58.0078 201.805 58.2266 200.047 58.6641 198.469C59.1016 196.875 59.7422 195.508 60.5859 194.367C61.4297 193.227 62.4688 192.344 63.7031 191.719C64.9375 191.094 66.3438 190.781 67.9219 190.781C69.4062 190.781 70.7031 191.094 71.8125 191.719C72.9375 192.344 73.8906 193.234 74.6719 194.391C75.4688 195.531 76.1094 196.883 76.5938 198.445C77.0781 199.992 77.4297 201.688 77.6484 203.531V204.609C77.4297 206.375 77.0781 208.016 76.5938 209.531C76.1094 211.047 75.4688 212.375 74.6719 213.516C73.8906 214.641 72.9375 215.516 71.8125 216.141C70.6875 216.766 69.375 217.078 67.875 217.078C66.2969 217.078 64.8906 216.758 63.6562 216.117C62.4375 215.477 61.4062 214.578 60.5625 213.422C59.7344 212.266 59.1016 210.906 58.6641 209.344C58.2266 207.781 58.0078 206.078 58.0078 204.234ZM64.7578 203.742V204.234C64.7578 205.281 64.8359 206.258 64.9922 207.164C65.1641 208.07 65.4375 208.875 65.8125 209.578C66.2031 210.266 66.7031 210.805 67.3125 211.195C67.9375 211.57 68.6953 211.758 69.5859 211.758C70.7422 211.758 71.6953 211.5 72.4453 210.984C73.1953 210.453 73.7656 209.727 74.1562 208.805C74.5625 207.883 74.7969 206.82 74.8594 205.617V202.547C74.8125 201.562 74.6719 200.68 74.4375 199.898C74.2188 199.102 73.8906 198.422 73.4531 197.859C73.0312 197.297 72.5 196.859 71.8594 196.547C71.2344 196.234 70.4922 196.078 69.6328 196.078C68.7578 196.078 68.0078 196.281 67.3828 196.688C66.7578 197.078 66.25 197.617 65.8594 198.305C65.4844 198.992 65.2031 199.805 65.0156 200.742C64.8438 201.664 64.7578 202.664 64.7578 203.742ZM93.2344 191.25V216.609H86.4609V191.25H93.2344ZM86.0391 184.641C86.0391 183.656 86.3828 182.844 87.0703 182.203C87.7578 181.562 88.6797 181.242 89.8359 181.242C90.9766 181.242 91.8906 181.562 92.5781 182.203C93.2812 182.844 93.6328 183.656 93.6328 184.641C93.6328 185.625 93.2812 186.438 92.5781 187.078C91.8906 187.719 90.9766 188.039 89.8359 188.039C88.6797 188.039 87.7578 187.719 87.0703 187.078C86.3828 186.438 86.0391 185.625 86.0391 184.641ZM110.484 217.078C108.516 217.078 106.75 216.766 105.188 216.141C103.625 215.5 102.297 214.617 101.203 213.492C100.125 212.367 99.2969 211.062 98.7188 209.578C98.1406 208.078 97.8516 206.484 97.8516 204.797V203.859C97.8516 201.938 98.125 200.18 98.6719 198.586C99.2188 196.992 100 195.609 101.016 194.438C102.047 193.266 103.297 192.367 104.766 191.742C106.234 191.102 107.891 190.781 109.734 190.781C111.531 190.781 113.125 191.078 114.516 191.672C115.906 192.266 117.07 193.109 118.008 194.203C118.961 195.297 119.68 196.609 120.164 198.141C120.648 199.656 120.891 201.344 120.891 203.203V206.016H100.734V201.516H114.258V201C114.258 200.062 114.086 199.227 113.742 198.492C113.414 197.742 112.914 197.148 112.242 196.711C111.57 196.273 110.711 196.055 109.664 196.055C108.773 196.055 108.008 196.25 107.367 196.641C106.727 197.031 106.203 197.578 105.797 198.281C105.406 198.984 105.109 199.812 104.906 200.766C104.719 201.703 104.625 202.734 104.625 203.859V204.797C104.625 205.812 104.766 206.75 105.047 207.609C105.344 208.469 105.758 209.211 106.289 209.836C106.836 210.461 107.492 210.945 108.258 211.289C109.039 211.633 109.922 211.805 110.906 211.805C112.125 211.805 113.258 211.57 114.305 211.102C115.367 210.617 116.281 209.891 117.047 208.922L120.328 212.484C119.797 213.25 119.07 213.984 118.148 214.688C117.242 215.391 116.148 215.969 114.867 216.422C113.586 216.859 112.125 217.078 110.484 217.078ZM131.344 196.664V216.609H124.594V191.25H130.922L131.344 196.664ZM130.359 203.039H128.531C128.531 201.164 128.773 199.477 129.258 197.977C129.742 196.461 130.422 195.172 131.297 194.109C132.172 193.031 133.211 192.211 134.414 191.648C135.633 191.07 136.992 190.781 138.492 190.781C139.68 190.781 140.766 190.953 141.75 191.297C142.734 191.641 143.578 192.188 144.281 192.938C145 193.688 145.547 194.68 145.922 195.914C146.312 197.148 146.508 198.656 146.508 200.438V216.609H139.711V200.414C139.711 199.289 139.555 198.414 139.242 197.789C138.93 197.164 138.469 196.727 137.859 196.477C137.266 196.211 136.531 196.078 135.656 196.078C134.75 196.078 133.961 196.258 133.289 196.617C132.633 196.977 132.086 197.477 131.648 198.117C131.227 198.742 130.906 199.477 130.688 200.32C130.469 201.164 130.359 202.07 130.359 203.039ZM162.117 211.805C162.945 211.805 163.68 211.648 164.32 211.336C164.961 211.008 165.461 210.555 165.82 209.977C166.195 209.383 166.391 208.688 166.406 207.891H172.758C172.742 209.672 172.266 211.258 171.328 212.648C170.391 214.023 169.133 215.109 167.555 215.906C165.977 216.688 164.211 217.078 162.258 217.078C160.289 217.078 158.57 216.75 157.102 216.094C155.648 215.438 154.438 214.531 153.469 213.375C152.5 212.203 151.773 210.844 151.289 209.297C150.805 207.734 150.562 206.062 150.562 204.281V203.602C150.562 201.805 150.805 200.133 151.289 198.586C151.773 197.023 152.5 195.664 153.469 194.508C154.438 193.336 155.648 192.422 157.102 191.766C158.555 191.109 160.258 190.781 162.211 190.781C164.289 190.781 166.109 191.18 167.672 191.977C169.25 192.773 170.484 193.914 171.375 195.398C172.281 196.867 172.742 198.609 172.758 200.625H166.406C166.391 199.781 166.211 199.016 165.867 198.328C165.539 197.641 165.055 197.094 164.414 196.688C163.789 196.266 163.016 196.055 162.094 196.055C161.109 196.055 160.305 196.266 159.68 196.688C159.055 197.094 158.57 197.656 158.227 198.375C157.883 199.078 157.641 199.883 157.5 200.789C157.375 201.68 157.312 202.617 157.312 203.602V204.281C157.312 205.266 157.375 206.211 157.5 207.117C157.625 208.023 157.859 208.828 158.203 209.531C158.562 210.234 159.055 210.789 159.68 211.195C160.305 211.602 161.117 211.805 162.117 211.805ZM188.344 217.078C186.375 217.078 184.609 216.766 183.047 216.141C181.484 215.5 180.156 214.617 179.062 213.492C177.984 212.367 177.156 211.062 176.578 209.578C176 208.078 175.711 206.484 175.711 204.797V203.859C175.711 201.938 175.984 200.18 176.531 198.586C177.078 196.992 177.859 195.609 178.875 194.438C179.906 193.266 181.156 192.367 182.625 191.742C184.094 191.102 185.75 190.781 187.594 190.781C189.391 190.781 190.984 191.078 192.375 191.672C193.766 192.266 194.93 193.109 195.867 194.203C196.82 195.297 197.539 196.609 198.023 198.141C198.508 199.656 198.75 201.344 198.75 203.203V206.016H178.594V201.516H192.117V201C192.117 200.062 191.945 199.227 191.602 198.492C191.273 197.742 190.773 197.148 190.102 196.711C189.43 196.273 188.57 196.055 187.523 196.055C186.633 196.055 185.867 196.25 185.227 196.641C184.586 197.031 184.062 197.578 183.656 198.281C183.266 198.984 182.969 199.812 182.766 200.766C182.578 201.703 182.484 202.734 182.484 203.859V204.797C182.484 205.812 182.625 206.75 182.906 207.609C183.203 208.469 183.617 209.211 184.148 209.836C184.695 210.461 185.352 210.945 186.117 211.289C186.898 211.633 187.781 211.805 188.766 211.805C189.984 211.805 191.117 211.57 192.164 211.102C193.227 210.617 194.141 209.891 194.906 208.922L198.188 212.484C197.656 213.25 196.93 213.984 196.008 214.688C195.102 215.391 194.008 215.969 192.727 216.422C191.445 216.859 189.984 217.078 188.344 217.078Z" fill="#FFB600"/>
<path d="M5.20312 228.377C5.20312 228.225 5.17969 228.088 5.13281 227.967C5.08984 227.842 5.00781 227.729 4.88672 227.627C4.76562 227.521 4.5957 227.418 4.37695 227.316C4.1582 227.215 3.875 227.109 3.52734 227C3.14062 226.875 2.77344 226.734 2.42578 226.578C2.08203 226.422 1.77734 226.24 1.51172 226.033C1.25 225.822 1.04297 225.578 0.890625 225.301C0.742188 225.023 0.667969 224.701 0.667969 224.334C0.667969 223.979 0.746094 223.656 0.902344 223.367C1.05859 223.074 1.27734 222.824 1.55859 222.617C1.83984 222.406 2.17188 222.244 2.55469 222.131C2.94141 222.018 3.36523 221.961 3.82617 221.961C4.45508 221.961 5.00391 222.074 5.47266 222.301C5.94141 222.527 6.30469 222.838 6.5625 223.232C6.82422 223.627 6.95508 224.078 6.95508 224.586H5.20898C5.20898 224.336 5.15625 224.117 5.05078 223.93C4.94922 223.738 4.79297 223.588 4.58203 223.479C4.375 223.369 4.11328 223.314 3.79688 223.314C3.49219 223.314 3.23828 223.361 3.03516 223.455C2.83203 223.545 2.67969 223.668 2.57812 223.824C2.47656 223.977 2.42578 224.148 2.42578 224.34C2.42578 224.484 2.46094 224.615 2.53125 224.732C2.60547 224.85 2.71484 224.959 2.85938 225.061C3.00391 225.162 3.18164 225.258 3.39258 225.348C3.60352 225.438 3.84766 225.525 4.125 225.611C4.58984 225.752 4.99805 225.91 5.34961 226.086C5.70508 226.262 6.00195 226.459 6.24023 226.678C6.47852 226.896 6.6582 227.145 6.7793 227.422C6.90039 227.699 6.96094 228.014 6.96094 228.365C6.96094 228.736 6.88867 229.068 6.74414 229.361C6.59961 229.654 6.39062 229.902 6.11719 230.105C5.84375 230.309 5.51758 230.463 5.13867 230.568C4.75977 230.674 4.33594 230.727 3.86719 230.727C3.44531 230.727 3.0293 230.672 2.61914 230.562C2.20898 230.449 1.83594 230.279 1.5 230.053C1.16797 229.826 0.902344 229.537 0.703125 229.186C0.503906 228.834 0.404297 228.418 0.404297 227.938H2.16797C2.16797 228.203 2.20898 228.428 2.29102 228.611C2.37305 228.795 2.48828 228.943 2.63672 229.057C2.78906 229.17 2.96875 229.252 3.17578 229.303C3.38672 229.354 3.61719 229.379 3.86719 229.379C4.17188 229.379 4.42188 229.336 4.61719 229.25C4.81641 229.164 4.96289 229.045 5.05664 228.893C5.1543 228.74 5.20312 228.568 5.20312 228.377ZM9.73828 221.604V230.609H8.05078V221.604H9.73828ZM13.7344 224.27L10.9805 227.41L9.50391 228.904L8.88867 227.686L10.0605 226.197L11.707 224.27H13.7344ZM11.9824 230.609L10.1074 227.68L11.2734 226.66L13.9277 230.609H11.9824ZM16.2422 224.27V230.609H14.5488V224.27H16.2422ZM14.4434 222.617C14.4434 222.371 14.5293 222.168 14.7012 222.008C14.873 221.848 15.1035 221.768 15.3926 221.768C15.6777 221.768 15.9062 221.848 16.0781 222.008C16.2539 222.168 16.3418 222.371 16.3418 222.617C16.3418 222.863 16.2539 223.066 16.0781 223.227C15.9062 223.387 15.6777 223.467 15.3926 223.467C15.1035 223.467 14.873 223.387 14.7012 223.227C14.5293 223.066 14.4434 222.863 14.4434 222.617ZM19.2891 225.623V230.609H17.6016V224.27H19.1836L19.2891 225.623ZM19.043 227.217H18.5859C18.5859 226.748 18.6465 226.326 18.7676 225.951C18.8887 225.572 19.0586 225.25 19.2773 224.984C19.4961 224.715 19.7559 224.51 20.0566 224.369C20.3613 224.225 20.7012 224.152 21.0762 224.152C21.373 224.152 21.6445 224.195 21.8906 224.281C22.1367 224.367 22.3477 224.504 22.5234 224.691C22.7031 224.879 22.8398 225.127 22.9336 225.436C23.0312 225.744 23.0801 226.121 23.0801 226.566V230.609H21.3809V226.561C21.3809 226.279 21.3418 226.061 21.2637 225.904C21.1855 225.748 21.0703 225.639 20.918 225.576C20.7695 225.51 20.5859 225.477 20.3672 225.477C20.1406 225.477 19.9434 225.521 19.7754 225.611C19.6113 225.701 19.4746 225.826 19.3652 225.986C19.2598 226.143 19.1797 226.326 19.125 226.537C19.0703 226.748 19.043 226.975 19.043 227.217ZM30.9258 223.537L28.6055 230.609H26.7363L29.9062 222.078H31.0957L30.9258 223.537ZM32.8535 230.609L30.5273 223.537L30.3398 222.078H31.541L34.7285 230.609H32.8535ZM32.748 227.434V228.811H28.2422V227.434H32.748ZM36.8789 225.623V230.609H35.1914V224.27H36.7734L36.8789 225.623ZM36.6328 227.217H36.1758C36.1758 226.748 36.2363 226.326 36.3574 225.951C36.4785 225.572 36.6484 225.25 36.8672 224.984C37.0859 224.715 37.3457 224.51 37.6465 224.369C37.9512 224.225 38.291 224.152 38.666 224.152C38.9629 224.152 39.2344 224.195 39.4805 224.281C39.7266 224.367 39.9375 224.504 40.1133 224.691C40.293 224.879 40.4297 225.127 40.5234 225.436C40.6211 225.744 40.6699 226.121 40.6699 226.566V230.609H38.9707V226.561C38.9707 226.279 38.9316 226.061 38.8535 225.904C38.7754 225.748 38.6602 225.639 38.5078 225.576C38.3594 225.51 38.1758 225.477 37.957 225.477C37.7305 225.477 37.5332 225.521 37.3652 225.611C37.2012 225.701 37.0645 225.826 36.9551 225.986C36.8496 226.143 36.7695 226.326 36.7148 226.537C36.6602 226.748 36.6328 226.975 36.6328 227.217ZM45.0586 224.27V225.465H41.3672V224.27H45.0586ZM42.2812 222.705H43.9688V228.699C43.9688 228.883 43.9922 229.023 44.0391 229.121C44.0898 229.219 44.1641 229.287 44.2617 229.326C44.3594 229.361 44.4824 229.379 44.6309 229.379C44.7363 229.379 44.8301 229.375 44.9121 229.367C44.998 229.355 45.0703 229.344 45.1289 229.332L45.1348 230.574C44.9902 230.621 44.834 230.658 44.666 230.686C44.498 230.713 44.3125 230.727 44.1094 230.727C43.7383 230.727 43.4141 230.666 43.1367 230.545C42.8633 230.42 42.6523 230.221 42.5039 229.947C42.3555 229.674 42.2812 229.314 42.2812 228.869V222.705ZM47.8008 224.27V230.609H46.1074V224.27H47.8008ZM46.002 222.617C46.002 222.371 46.0879 222.168 46.2598 222.008C46.4316 221.848 46.6621 221.768 46.9512 221.768C47.2363 221.768 47.4648 221.848 47.6367 222.008C47.8125 222.168 47.9004 222.371 47.9004 222.617C47.9004 222.863 47.8125 223.066 47.6367 223.227C47.4648 223.387 47.2363 223.467 46.9512 223.467C46.6621 223.467 46.4316 223.387 46.2598 223.227C46.0879 223.066 46.002 222.863 46.002 222.617ZM52.6172 229.18V226.355C52.6172 226.152 52.584 225.979 52.5176 225.834C52.4512 225.686 52.3477 225.57 52.207 225.488C52.0703 225.406 51.8926 225.365 51.6738 225.365C51.4863 225.365 51.3242 225.398 51.1875 225.465C51.0508 225.527 50.9453 225.619 50.8711 225.74C50.7969 225.857 50.7598 225.996 50.7598 226.156H49.0723C49.0723 225.887 49.1348 225.631 49.2598 225.389C49.3848 225.146 49.5664 224.934 49.8047 224.75C50.043 224.562 50.3262 224.416 50.6543 224.311C50.9863 224.205 51.3574 224.152 51.7676 224.152C52.2598 224.152 52.6973 224.234 53.0801 224.398C53.4629 224.562 53.7637 224.809 53.9824 225.137C54.2051 225.465 54.3164 225.875 54.3164 226.367V229.08C54.3164 229.428 54.3379 229.713 54.3809 229.936C54.4238 230.154 54.4863 230.346 54.5684 230.51V230.609H52.8633C52.7812 230.438 52.7188 230.223 52.6758 229.965C52.6367 229.703 52.6172 229.441 52.6172 229.18ZM52.8398 226.748L52.8516 227.703H51.9082C51.6855 227.703 51.4922 227.729 51.3281 227.779C51.1641 227.83 51.0293 227.902 50.9238 227.996C50.8184 228.086 50.7402 228.191 50.6895 228.312C50.6426 228.434 50.6191 228.566 50.6191 228.711C50.6191 228.855 50.6523 228.986 50.7188 229.104C50.7852 229.217 50.8809 229.307 51.0059 229.373C51.1309 229.436 51.2773 229.467 51.4453 229.467C51.6992 229.467 51.9199 229.416 52.1074 229.314C52.2949 229.213 52.4395 229.088 52.541 228.939C52.6465 228.791 52.7012 228.65 52.7051 228.518L53.1504 229.232C53.0879 229.393 53.002 229.559 52.8926 229.73C52.7871 229.902 52.6523 230.064 52.4883 230.217C52.3242 230.365 52.127 230.488 51.8965 230.586C51.666 230.68 51.3926 230.727 51.0762 230.727C50.6738 230.727 50.3086 230.646 49.9805 230.486C49.6562 230.322 49.3984 230.098 49.207 229.812C49.0195 229.523 48.9258 229.195 48.9258 228.828C48.9258 228.496 48.9883 228.201 49.1133 227.943C49.2383 227.686 49.4219 227.469 49.6641 227.293C49.9102 227.113 50.2168 226.979 50.584 226.889C50.9512 226.795 51.377 226.748 51.8613 226.748H52.8398ZM59.6309 224.27H61.1602V230.398C61.1602 230.977 61.0312 231.467 60.7734 231.869C60.5195 232.275 60.1641 232.582 59.707 232.789C59.25 233 58.7188 233.105 58.1133 233.105C57.8477 233.105 57.5664 233.07 57.2695 233C56.9766 232.93 56.6953 232.82 56.4258 232.672C56.1602 232.523 55.9375 232.336 55.7578 232.109L56.502 231.113C56.6973 231.34 56.9238 231.516 57.1816 231.641C57.4395 231.77 57.7246 231.834 58.0371 231.834C58.3418 231.834 58.5996 231.777 58.8105 231.664C59.0215 231.555 59.1836 231.393 59.2969 231.178C59.4102 230.967 59.4668 230.711 59.4668 230.41V225.734L59.6309 224.27ZM55.3652 227.516V227.393C55.3652 226.908 55.4238 226.469 55.541 226.074C55.6621 225.676 55.832 225.334 56.0508 225.049C56.2734 224.764 56.543 224.543 56.8594 224.387C57.1758 224.23 57.5332 224.152 57.9316 224.152C58.3535 224.152 58.707 224.23 58.9922 224.387C59.2773 224.543 59.5117 224.766 59.6953 225.055C59.8789 225.34 60.0215 225.678 60.123 226.068C60.2285 226.455 60.3105 226.879 60.3691 227.34V227.609C60.3105 228.051 60.2227 228.461 60.1055 228.84C59.9883 229.219 59.834 229.551 59.6426 229.836C59.4512 230.117 59.2129 230.336 58.9277 230.492C58.6465 230.648 58.3105 230.727 57.9199 230.727C57.5293 230.727 57.1758 230.646 56.8594 230.486C56.5469 230.326 56.2793 230.102 56.0566 229.812C55.834 229.523 55.6621 229.184 55.541 228.793C55.4238 228.402 55.3652 227.977 55.3652 227.516ZM57.0527 227.393V227.516C57.0527 227.777 57.0781 228.021 57.1289 228.248C57.1797 228.475 57.2578 228.676 57.3633 228.852C57.4727 229.023 57.6074 229.158 57.7676 229.256C57.9316 229.35 58.125 229.396 58.3477 229.396C58.6562 229.396 58.9082 229.332 59.1035 229.203C59.2988 229.07 59.4453 228.889 59.543 228.658C59.6406 228.428 59.6973 228.162 59.7129 227.861V227.094C59.7051 226.848 59.6719 226.627 59.6133 226.432C59.5547 226.232 59.4727 226.062 59.3672 225.922C59.2617 225.781 59.125 225.672 58.957 225.594C58.7891 225.516 58.5898 225.477 58.3594 225.477C58.1367 225.477 57.9434 225.527 57.7793 225.629C57.6191 225.727 57.4844 225.861 57.375 226.033C57.2695 226.205 57.1895 226.408 57.1348 226.643C57.0801 226.873 57.0527 227.123 57.0527 227.393ZM64.2539 224.27V230.609H62.5605V224.27H64.2539ZM62.4551 222.617C62.4551 222.371 62.541 222.168 62.7129 222.008C62.8848 221.848 63.1152 221.768 63.4043 221.768C63.6895 221.768 63.918 221.848 64.0898 222.008C64.2656 222.168 64.3535 222.371 64.3535 222.617C64.3535 222.863 64.2656 223.066 64.0898 223.227C63.918 223.387 63.6895 223.467 63.4043 223.467C63.1152 223.467 62.8848 223.387 62.7129 223.227C62.541 223.066 62.4551 222.863 62.4551 222.617ZM67.3008 225.623V230.609H65.6133V224.27H67.1953L67.3008 225.623ZM67.0547 227.217H66.5977C66.5977 226.748 66.6582 226.326 66.7793 225.951C66.9004 225.572 67.0703 225.25 67.2891 224.984C67.5078 224.715 67.7676 224.51 68.0684 224.369C68.373 224.225 68.7129 224.152 69.0879 224.152C69.3848 224.152 69.6562 224.195 69.9023 224.281C70.1484 224.367 70.3594 224.504 70.5352 224.691C70.7148 224.879 70.8516 225.127 70.9453 225.436C71.043 225.744 71.0918 226.121 71.0918 226.566V230.609H69.3926V226.561C69.3926 226.279 69.3535 226.061 69.2754 225.904C69.1973 225.748 69.082 225.639 68.9297 225.576C68.7812 225.51 68.5977 225.477 68.3789 225.477C68.1523 225.477 67.9551 225.521 67.7871 225.611C67.623 225.701 67.4863 225.826 67.377 225.986C67.2715 226.143 67.1914 226.326 67.1367 226.537C67.082 226.748 67.0547 226.975 67.0547 227.217ZM76.3887 224.27H77.918V230.398C77.918 230.977 77.7891 231.467 77.5312 231.869C77.2773 232.275 76.9219 232.582 76.4648 232.789C76.0078 233 75.4766 233.105 74.8711 233.105C74.6055 233.105 74.3242 233.07 74.0273 233C73.7344 232.93 73.4531 232.82 73.1836 232.672C72.918 232.523 72.6953 232.336 72.5156 232.109L73.2598 231.113C73.4551 231.34 73.6816 231.516 73.9395 231.641C74.1973 231.77 74.4824 231.834 74.7949 231.834C75.0996 231.834 75.3574 231.777 75.5684 231.664C75.7793 231.555 75.9414 231.393 76.0547 231.178C76.168 230.967 76.2246 230.711 76.2246 230.41V225.734L76.3887 224.27ZM72.123 227.516V227.393C72.123 226.908 72.1816 226.469 72.2988 226.074C72.4199 225.676 72.5898 225.334 72.8086 225.049C73.0312 224.764 73.3008 224.543 73.6172 224.387C73.9336 224.23 74.291 224.152 74.6895 224.152C75.1113 224.152 75.4648 224.23 75.75 224.387C76.0352 224.543 76.2695 224.766 76.4531 225.055C76.6367 225.34 76.7793 225.678 76.8809 226.068C76.9863 226.455 77.0684 226.879 77.127 227.34V227.609C77.0684 228.051 76.9805 228.461 76.8633 228.84C76.7461 229.219 76.5918 229.551 76.4004 229.836C76.209 230.117 75.9707 230.336 75.6855 230.492C75.4043 230.648 75.0684 230.727 74.6777 230.727C74.2871 230.727 73.9336 230.646 73.6172 230.486C73.3047 230.326 73.0371 230.102 72.8145 229.812C72.5918 229.523 72.4199 229.184 72.2988 228.793C72.1816 228.402 72.123 227.977 72.123 227.516ZM73.8105 227.393V227.516C73.8105 227.777 73.8359 228.021 73.8867 228.248C73.9375 228.475 74.0156 228.676 74.1211 228.852C74.2305 229.023 74.3652 229.158 74.5254 229.256C74.6895 229.35 74.8828 229.396 75.1055 229.396C75.4141 229.396 75.666 229.332 75.8613 229.203C76.0566 229.07 76.2031 228.889 76.3008 228.658C76.3984 228.428 76.4551 228.162 76.4707 227.861V227.094C76.4629 226.848 76.4297 226.627 76.3711 226.432C76.3125 226.232 76.2305 226.062 76.125 225.922C76.0195 225.781 75.8828 225.672 75.7148 225.594C75.5469 225.516 75.3477 225.477 75.1172 225.477C74.8945 225.477 74.7012 225.527 74.5371 225.629C74.377 225.727 74.2422 225.861 74.1328 226.033C74.0273 226.205 73.9473 226.408 73.8926 226.643C73.8379 226.873 73.8105 227.123 73.8105 227.393ZM83.5605 226.045L85.2012 224.984C85.4434 224.824 85.6055 224.67 85.6875 224.521C85.7695 224.373 85.8105 224.207 85.8105 224.023C85.8105 223.84 85.7422 223.67 85.6055 223.514C85.4688 223.354 85.2773 223.273 85.0312 223.273C84.8555 223.273 84.707 223.314 84.5859 223.396C84.4648 223.475 84.373 223.58 84.3105 223.713C84.252 223.846 84.2227 223.994 84.2227 224.158C84.2227 224.334 84.2695 224.514 84.3633 224.697C84.457 224.877 84.584 225.068 84.7441 225.271C84.9043 225.471 85.082 225.688 85.2773 225.922L89.3027 230.609H87.3867L84.1055 226.812C83.8281 226.469 83.5859 226.154 83.3789 225.869C83.1719 225.58 83.0098 225.299 82.8926 225.025C82.7754 224.752 82.7168 224.471 82.7168 224.182C82.7168 223.736 82.8125 223.348 83.0039 223.016C83.1953 222.68 83.4648 222.42 83.8125 222.236C84.1602 222.049 84.5684 221.955 85.0371 221.955C85.4785 221.955 85.8613 222.047 86.1855 222.23C86.5098 222.41 86.7598 222.648 86.9355 222.945C87.1152 223.242 87.2051 223.568 87.2051 223.924C87.2051 224.189 87.1562 224.436 87.0586 224.662C86.9609 224.885 86.8262 225.092 86.6543 225.283C86.4824 225.471 86.2852 225.645 86.0625 225.805L84.1934 227.135C84.0488 227.268 83.9395 227.398 83.8652 227.527C83.791 227.656 83.7402 227.779 83.7129 227.896C83.6855 228.01 83.6719 228.119 83.6719 228.225C83.6719 228.451 83.7207 228.654 83.8184 228.834C83.916 229.014 84.0527 229.154 84.2285 229.256C84.4043 229.357 84.6094 229.408 84.8438 229.408C85.1641 229.408 85.4746 229.338 85.7754 229.197C86.0762 229.057 86.3457 228.855 86.584 228.594C86.8223 228.328 87.0117 228.014 87.1523 227.65C87.293 227.287 87.3633 226.887 87.3633 226.449H88.793C88.793 226.887 88.75 227.303 88.6641 227.697C88.5781 228.088 88.4395 228.451 88.248 228.787C88.0566 229.119 87.8027 229.414 87.4863 229.672C87.4629 229.691 87.4297 229.721 87.3867 229.76C87.3477 229.795 87.3145 229.822 87.2871 229.842C86.9121 230.143 86.5215 230.367 86.1152 230.516C85.709 230.66 85.2559 230.732 84.7559 230.732C84.1855 230.732 83.6914 230.629 83.2734 230.422C82.8594 230.215 82.5391 229.93 82.3125 229.566C82.0898 229.203 81.9785 228.787 81.9785 228.318C81.9785 227.975 82.0449 227.676 82.1777 227.422C82.3145 227.164 82.502 226.926 82.7402 226.707C82.9785 226.488 83.252 226.268 83.5605 226.045ZM98.9004 225.553V226.924H94.4473V225.553H98.9004ZM94.9688 222.078V230.609H93.2109V222.078H94.9688ZM100.154 222.078V230.609H98.4023V222.078H100.154ZM105 229.18V226.355C105 226.152 104.967 225.979 104.9 225.834C104.834 225.686 104.73 225.57 104.59 225.488C104.453 225.406 104.275 225.365 104.057 225.365C103.869 225.365 103.707 225.398 103.57 225.465C103.434 225.527 103.328 225.619 103.254 225.74C103.18 225.857 103.143 225.996 103.143 226.156H101.455C101.455 225.887 101.518 225.631 101.643 225.389C101.768 225.146 101.949 224.934 102.188 224.75C102.426 224.562 102.709 224.416 103.037 224.311C103.369 224.205 103.74 224.152 104.15 224.152C104.643 224.152 105.08 224.234 105.463 224.398C105.846 224.562 106.146 224.809 106.365 225.137C106.588 225.465 106.699 225.875 106.699 226.367V229.08C106.699 229.428 106.721 229.713 106.764 229.936C106.807 230.154 106.869 230.346 106.951 230.51V230.609H105.246C105.164 230.438 105.102 230.223 105.059 229.965C105.02 229.703 105 229.441 105 229.18ZM105.223 226.748L105.234 227.703H104.291C104.068 227.703 103.875 227.729 103.711 227.779C103.547 227.83 103.412 227.902 103.307 227.996C103.201 228.086 103.123 228.191 103.072 228.312C103.025 228.434 103.002 228.566 103.002 228.711C103.002 228.855 103.035 228.986 103.102 229.104C103.168 229.217 103.264 229.307 103.389 229.373C103.514 229.436 103.66 229.467 103.828 229.467C104.082 229.467 104.303 229.416 104.49 229.314C104.678 229.213 104.822 229.088 104.924 228.939C105.029 228.791 105.084 228.65 105.088 228.518L105.533 229.232C105.471 229.393 105.385 229.559 105.275 229.73C105.17 229.902 105.035 230.064 104.871 230.217C104.707 230.365 104.51 230.488 104.279 230.586C104.049 230.68 103.775 230.727 103.459 230.727C103.057 230.727 102.691 230.646 102.363 230.486C102.039 230.322 101.781 230.098 101.59 229.812C101.402 229.523 101.309 229.195 101.309 228.828C101.309 228.496 101.371 228.201 101.496 227.943C101.621 227.686 101.805 227.469 102.047 227.293C102.293 227.113 102.6 226.979 102.967 226.889C103.334 226.795 103.76 226.748 104.244 226.748H105.223ZM109.781 224.27V230.609H108.088V224.27H109.781ZM107.982 222.617C107.982 222.371 108.068 222.168 108.24 222.008C108.412 221.848 108.643 221.768 108.932 221.768C109.217 221.768 109.445 221.848 109.617 222.008C109.793 222.168 109.881 222.371 109.881 222.617C109.881 222.863 109.793 223.066 109.617 223.227C109.445 223.387 109.217 223.467 108.932 223.467C108.643 223.467 108.412 223.387 108.24 223.227C108.068 223.066 107.982 222.863 107.982 222.617ZM112.863 225.652V230.609H111.176V224.27H112.764L112.863 225.652ZM114.773 224.229L114.744 225.793C114.662 225.781 114.562 225.771 114.445 225.764C114.332 225.752 114.229 225.746 114.135 225.746C113.896 225.746 113.689 225.777 113.514 225.84C113.342 225.898 113.197 225.986 113.08 226.104C112.967 226.221 112.881 226.363 112.822 226.531C112.768 226.699 112.736 226.891 112.729 227.105L112.389 227C112.389 226.59 112.43 226.213 112.512 225.869C112.594 225.521 112.713 225.219 112.869 224.961C113.029 224.703 113.225 224.504 113.455 224.363C113.686 224.223 113.949 224.152 114.246 224.152C114.34 224.152 114.436 224.16 114.533 224.176C114.631 224.188 114.711 224.205 114.773 224.229ZM118.969 224.27V225.465H115.277V224.27H118.969ZM116.191 222.705H117.879V228.699C117.879 228.883 117.902 229.023 117.949 229.121C118 229.219 118.074 229.287 118.172 229.326C118.27 229.361 118.393 229.379 118.541 229.379C118.646 229.379 118.74 229.375 118.822 229.367C118.908 229.355 118.98 229.344 119.039 229.332L119.045 230.574C118.9 230.621 118.744 230.658 118.576 230.686C118.408 230.713 118.223 230.727 118.02 230.727C117.648 230.727 117.324 230.666 117.047 230.545C116.773 230.42 116.562 230.221 116.414 229.947C116.266 229.674 116.191 229.314 116.191 228.869V222.705ZM121.617 225.652V230.609H119.93V224.27H121.518L121.617 225.652ZM123.527 224.229L123.498 225.793C123.416 225.781 123.316 225.771 123.199 225.764C123.086 225.752 122.982 225.746 122.889 225.746C122.65 225.746 122.443 225.777 122.268 225.84C122.096 225.898 121.951 225.986 121.834 226.104C121.721 226.221 121.635 226.363 121.576 226.531C121.521 226.699 121.49 226.891 121.482 227.105L121.143 227C121.143 226.59 121.184 226.213 121.266 225.869C121.348 225.521 121.467 225.219 121.623 224.961C121.783 224.703 121.979 224.504 122.209 224.363C122.439 224.223 122.703 224.152 123 224.152C123.094 224.152 123.189 224.16 123.287 224.176C123.385 224.188 123.465 224.205 123.527 224.229ZM127.547 229.18V226.355C127.547 226.152 127.514 225.979 127.447 225.834C127.381 225.686 127.277 225.57 127.137 225.488C127 225.406 126.822 225.365 126.604 225.365C126.416 225.365 126.254 225.398 126.117 225.465C125.98 225.527 125.875 225.619 125.801 225.74C125.727 225.857 125.689 225.996 125.689 226.156H124.002C124.002 225.887 124.064 225.631 124.189 225.389C124.314 225.146 124.496 224.934 124.734 224.75C124.973 224.562 125.256 224.416 125.584 224.311C125.916 224.205 126.287 224.152 126.697 224.152C127.189 224.152 127.627 224.234 128.01 224.398C128.393 224.562 128.693 224.809 128.912 225.137C129.135 225.465 129.246 225.875 129.246 226.367V229.08C129.246 229.428 129.268 229.713 129.311 229.936C129.354 230.154 129.416 230.346 129.498 230.51V230.609H127.793C127.711 230.438 127.648 230.223 127.605 229.965C127.566 229.703 127.547 229.441 127.547 229.18ZM127.77 226.748L127.781 227.703H126.838C126.615 227.703 126.422 227.729 126.258 227.779C126.094 227.83 125.959 227.902 125.854 227.996C125.748 228.086 125.67 228.191 125.619 228.312C125.572 228.434 125.549 228.566 125.549 228.711C125.549 228.855 125.582 228.986 125.648 229.104C125.715 229.217 125.811 229.307 125.936 229.373C126.061 229.436 126.207 229.467 126.375 229.467C126.629 229.467 126.85 229.416 127.037 229.314C127.225 229.213 127.369 229.088 127.471 228.939C127.576 228.791 127.631 228.65 127.635 228.518L128.08 229.232C128.018 229.393 127.932 229.559 127.822 229.73C127.717 229.902 127.582 230.064 127.418 230.217C127.254 230.365 127.057 230.488 126.826 230.586C126.596 230.68 126.322 230.727 126.006 230.727C125.604 230.727 125.238 230.646 124.91 230.486C124.586 230.322 124.328 230.098 124.137 229.812C123.949 229.523 123.855 229.195 123.855 228.828C123.855 228.496 123.918 228.201 124.043 227.943C124.168 227.686 124.352 227.469 124.594 227.293C124.84 227.113 125.146 226.979 125.514 226.889C125.881 226.795 126.307 226.748 126.791 226.748H127.77ZM132.199 225.623V230.609H130.512V224.27H132.094L132.199 225.623ZM131.953 227.217H131.496C131.496 226.748 131.557 226.326 131.678 225.951C131.799 225.572 131.969 225.25 132.188 224.984C132.406 224.715 132.666 224.51 132.967 224.369C133.271 224.225 133.611 224.152 133.986 224.152C134.283 224.152 134.555 224.195 134.801 224.281C135.047 224.367 135.258 224.504 135.434 224.691C135.613 224.879 135.75 225.127 135.844 225.436C135.941 225.744 135.99 226.121 135.99 226.566V230.609H134.291V226.561C134.291 226.279 134.252 226.061 134.174 225.904C134.096 225.748 133.98 225.639 133.828 225.576C133.68 225.51 133.496 225.477 133.277 225.477C133.051 225.477 132.854 225.521 132.686 225.611C132.521 225.701 132.385 225.826 132.275 225.986C132.17 226.143 132.09 226.326 132.035 226.537C131.98 226.748 131.953 226.975 131.953 227.217ZM140.701 228.857C140.701 228.736 140.666 228.627 140.596 228.529C140.525 228.432 140.395 228.342 140.203 228.26C140.016 228.174 139.744 228.096 139.389 228.025C139.068 227.955 138.77 227.867 138.492 227.762C138.219 227.652 137.98 227.521 137.777 227.369C137.578 227.217 137.422 227.037 137.309 226.83C137.195 226.619 137.139 226.379 137.139 226.109C137.139 225.844 137.195 225.594 137.309 225.359C137.426 225.125 137.592 224.918 137.807 224.738C138.025 224.555 138.291 224.412 138.604 224.311C138.92 224.205 139.275 224.152 139.67 224.152C140.221 224.152 140.693 224.24 141.088 224.416C141.486 224.592 141.791 224.834 142.002 225.143C142.217 225.447 142.324 225.795 142.324 226.186H140.637C140.637 226.021 140.602 225.875 140.531 225.746C140.465 225.613 140.359 225.51 140.215 225.436C140.074 225.357 139.891 225.318 139.664 225.318C139.477 225.318 139.314 225.352 139.178 225.418C139.041 225.48 138.936 225.566 138.861 225.676C138.791 225.781 138.756 225.898 138.756 226.027C138.756 226.125 138.775 226.213 138.814 226.291C138.857 226.365 138.926 226.434 139.02 226.496C139.113 226.559 139.234 226.617 139.383 226.672C139.535 226.723 139.723 226.77 139.945 226.812C140.402 226.906 140.811 227.029 141.17 227.182C141.529 227.33 141.814 227.533 142.025 227.791C142.236 228.045 142.342 228.379 142.342 228.793C142.342 229.074 142.279 229.332 142.154 229.566C142.029 229.801 141.85 230.006 141.615 230.182C141.381 230.354 141.1 230.488 140.771 230.586C140.447 230.68 140.082 230.727 139.676 230.727C139.086 230.727 138.586 230.621 138.176 230.41C137.77 230.199 137.461 229.932 137.25 229.607C137.043 229.279 136.939 228.943 136.939 228.6H138.539C138.547 228.83 138.605 229.016 138.715 229.156C138.828 229.297 138.971 229.398 139.143 229.461C139.318 229.523 139.508 229.555 139.711 229.555C139.93 229.555 140.111 229.525 140.256 229.467C140.4 229.404 140.51 229.322 140.584 229.221C140.662 229.115 140.701 228.994 140.701 228.857ZM145.125 225.488V233.047H143.438V224.27H145.002L145.125 225.488ZM149.139 227.369V227.492C149.139 227.953 149.084 228.381 148.975 228.775C148.869 229.17 148.713 229.514 148.506 229.807C148.299 230.096 148.041 230.322 147.732 230.486C147.428 230.646 147.076 230.727 146.678 230.727C146.291 230.727 145.955 230.648 145.67 230.492C145.385 230.336 145.145 230.117 144.949 229.836C144.758 229.551 144.604 229.221 144.486 228.846C144.369 228.471 144.279 228.068 144.217 227.639V227.316C144.279 226.855 144.369 226.434 144.486 226.051C144.604 225.664 144.758 225.33 144.949 225.049C145.145 224.764 145.383 224.543 145.664 224.387C145.949 224.23 146.283 224.152 146.666 224.152C147.068 224.152 147.422 224.229 147.727 224.381C148.035 224.533 148.293 224.752 148.5 225.037C148.711 225.322 148.869 225.662 148.975 226.057C149.084 226.451 149.139 226.889 149.139 227.369ZM147.445 227.492V227.369C147.445 227.1 147.422 226.852 147.375 226.625C147.332 226.395 147.262 226.193 147.164 226.021C147.07 225.85 146.945 225.717 146.789 225.623C146.637 225.525 146.451 225.477 146.232 225.477C146.002 225.477 145.805 225.514 145.641 225.588C145.48 225.662 145.35 225.77 145.248 225.91C145.146 226.051 145.07 226.219 145.02 226.414C144.969 226.609 144.938 226.83 144.926 227.076V227.891C144.945 228.18 145 228.439 145.09 228.67C145.18 228.896 145.318 229.076 145.506 229.209C145.693 229.342 145.939 229.408 146.244 229.408C146.467 229.408 146.654 229.359 146.807 229.262C146.959 229.16 147.082 229.021 147.176 228.846C147.273 228.67 147.342 228.467 147.381 228.236C147.424 228.006 147.445 227.758 147.445 227.492ZM151.969 221.609V230.609H150.275V221.609H151.969ZM156.785 229.18V226.355C156.785 226.152 156.752 225.979 156.686 225.834C156.619 225.686 156.516 225.57 156.375 225.488C156.238 225.406 156.061 225.365 155.842 225.365C155.654 225.365 155.492 225.398 155.355 225.465C155.219 225.527 155.113 225.619 155.039 225.74C154.965 225.857 154.928 225.996 154.928 226.156H153.24C153.24 225.887 153.303 225.631 153.428 225.389C153.553 225.146 153.734 224.934 153.973 224.75C154.211 224.562 154.494 224.416 154.822 224.311C155.154 224.205 155.525 224.152 155.936 224.152C156.428 224.152 156.865 224.234 157.248 224.398C157.631 224.562 157.932 224.809 158.15 225.137C158.373 225.465 158.484 225.875 158.484 226.367V229.08C158.484 229.428 158.506 229.713 158.549 229.936C158.592 230.154 158.654 230.346 158.736 230.51V230.609H157.031C156.949 230.438 156.887 230.223 156.844 229.965C156.805 229.703 156.785 229.441 156.785 229.18ZM157.008 226.748L157.02 227.703H156.076C155.854 227.703 155.66 227.729 155.496 227.779C155.332 227.83 155.197 227.902 155.092 227.996C154.986 228.086 154.908 228.191 154.857 228.312C154.811 228.434 154.787 228.566 154.787 228.711C154.787 228.855 154.82 228.986 154.887 229.104C154.953 229.217 155.049 229.307 155.174 229.373C155.299 229.436 155.445 229.467 155.613 229.467C155.867 229.467 156.088 229.416 156.275 229.314C156.463 229.213 156.607 229.088 156.709 228.939C156.814 228.791 156.869 228.65 156.873 228.518L157.318 229.232C157.256 229.393 157.17 229.559 157.061 229.73C156.955 229.902 156.82 230.064 156.656 230.217C156.492 230.365 156.295 230.488 156.064 230.586C155.834 230.68 155.561 230.727 155.244 230.727C154.842 230.727 154.477 230.646 154.148 230.486C153.824 230.322 153.566 230.098 153.375 229.812C153.188 229.523 153.094 229.195 153.094 228.828C153.094 228.496 153.156 228.201 153.281 227.943C153.406 227.686 153.59 227.469 153.832 227.293C154.078 227.113 154.385 226.979 154.752 226.889C155.119 226.795 155.545 226.748 156.029 226.748H157.008ZM161.438 225.623V230.609H159.75V224.27H161.332L161.438 225.623ZM161.191 227.217H160.734C160.734 226.748 160.795 226.326 160.916 225.951C161.037 225.572 161.207 225.25 161.426 224.984C161.645 224.715 161.904 224.51 162.205 224.369C162.51 224.225 162.85 224.152 163.225 224.152C163.521 224.152 163.793 224.195 164.039 224.281C164.285 224.367 164.496 224.504 164.672 224.691C164.852 224.879 164.988 225.127 165.082 225.436C165.18 225.744 165.229 226.121 165.229 226.566V230.609H163.529V226.561C163.529 226.279 163.49 226.061 163.412 225.904C163.334 225.748 163.219 225.639 163.066 225.576C162.918 225.51 162.734 225.477 162.516 225.477C162.289 225.477 162.092 225.521 161.924 225.611C161.76 225.701 161.623 225.826 161.514 225.986C161.408 226.143 161.328 226.326 161.273 226.537C161.219 226.748 161.191 226.975 161.191 227.217ZM169.617 224.27V225.465H165.926V224.27H169.617ZM166.84 222.705H168.527V228.699C168.527 228.883 168.551 229.023 168.598 229.121C168.648 229.219 168.723 229.287 168.82 229.326C168.918 229.361 169.041 229.379 169.189 229.379C169.295 229.379 169.389 229.375 169.471 229.367C169.557 229.355 169.629 229.344 169.688 229.332L169.693 230.574C169.549 230.621 169.393 230.658 169.225 230.686C169.057 230.713 168.871 230.727 168.668 230.727C168.297 230.727 167.973 230.666 167.695 230.545C167.422 230.42 167.211 230.221 167.062 229.947C166.914 229.674 166.84 229.314 166.84 228.869V222.705ZM178.617 227.779H180.369C180.334 228.354 180.176 228.863 179.895 229.309C179.617 229.754 179.229 230.102 178.729 230.352C178.232 230.602 177.635 230.727 176.936 230.727C176.389 230.727 175.898 230.633 175.465 230.445C175.031 230.254 174.66 229.98 174.352 229.625C174.047 229.27 173.814 228.84 173.654 228.336C173.494 227.832 173.414 227.268 173.414 226.643V226.051C173.414 225.426 173.496 224.861 173.66 224.357C173.828 223.85 174.066 223.418 174.375 223.062C174.688 222.707 175.061 222.434 175.494 222.242C175.928 222.051 176.412 221.955 176.947 221.955C177.658 221.955 178.258 222.084 178.746 222.342C179.238 222.6 179.619 222.955 179.889 223.408C180.162 223.861 180.326 224.377 180.381 224.955H178.623C178.604 224.611 178.535 224.32 178.418 224.082C178.301 223.84 178.123 223.658 177.885 223.537C177.65 223.412 177.338 223.35 176.947 223.35C176.654 223.35 176.398 223.404 176.18 223.514C175.961 223.623 175.777 223.789 175.629 224.012C175.48 224.234 175.369 224.516 175.295 224.855C175.225 225.191 175.189 225.586 175.189 226.039V226.643C175.189 227.084 175.223 227.473 175.289 227.809C175.355 228.141 175.457 228.422 175.594 228.652C175.734 228.879 175.914 229.051 176.133 229.168C176.355 229.281 176.623 229.338 176.936 229.338C177.303 229.338 177.605 229.279 177.844 229.162C178.082 229.045 178.264 228.871 178.389 228.641C178.518 228.41 178.594 228.123 178.617 227.779ZM183.199 221.609V230.609H181.506V221.609H183.199ZM186.375 224.27V230.609H184.682V224.27H186.375ZM184.576 222.617C184.576 222.371 184.662 222.168 184.834 222.008C185.006 221.848 185.236 221.768 185.525 221.768C185.811 221.768 186.039 221.848 186.211 222.008C186.387 222.168 186.475 222.371 186.475 222.617C186.475 222.863 186.387 223.066 186.211 223.227C186.039 223.387 185.811 223.467 185.525 223.467C185.236 223.467 185.006 223.387 184.834 223.227C184.662 223.066 184.576 222.863 184.576 222.617ZM189.422 225.623V230.609H187.734V224.27H189.316L189.422 225.623ZM189.176 227.217H188.719C188.719 226.748 188.779 226.326 188.9 225.951C189.021 225.572 189.191 225.25 189.41 224.984C189.629 224.715 189.889 224.51 190.189 224.369C190.494 224.225 190.834 224.152 191.209 224.152C191.506 224.152 191.777 224.195 192.023 224.281C192.27 224.367 192.48 224.504 192.656 224.691C192.836 224.879 192.973 225.127 193.066 225.436C193.164 225.744 193.213 226.121 193.213 226.566V230.609H191.514V226.561C191.514 226.279 191.475 226.061 191.396 225.904C191.318 225.748 191.203 225.639 191.051 225.576C190.902 225.51 190.719 225.477 190.5 225.477C190.273 225.477 190.076 225.521 189.908 225.611C189.744 225.701 189.607 225.826 189.498 225.986C189.393 226.143 189.312 226.326 189.258 226.537C189.203 226.748 189.176 226.975 189.176 227.217ZM196.277 224.27V230.609H194.584V224.27H196.277ZM194.479 222.617C194.479 222.371 194.564 222.168 194.736 222.008C194.908 221.848 195.139 221.768 195.428 221.768C195.713 221.768 195.941 221.848 196.113 222.008C196.289 222.168 196.377 222.371 196.377 222.617C196.377 222.863 196.289 223.066 196.113 223.227C195.941 223.387 195.713 223.467 195.428 223.467C195.139 223.467 194.908 223.387 194.736 223.227C194.564 223.066 194.479 222.863 194.479 222.617ZM200.291 229.408C200.498 229.408 200.682 229.369 200.842 229.291C201.002 229.209 201.127 229.096 201.217 228.951C201.311 228.803 201.359 228.629 201.363 228.43H202.951C202.947 228.875 202.828 229.271 202.594 229.619C202.359 229.963 202.045 230.234 201.65 230.434C201.256 230.629 200.814 230.727 200.326 230.727C199.834 230.727 199.404 230.645 199.037 230.48C198.674 230.316 198.371 230.09 198.129 229.801C197.887 229.508 197.705 229.168 197.584 228.781C197.463 228.391 197.402 227.973 197.402 227.527V227.357C197.402 226.908 197.463 226.49 197.584 226.104C197.705 225.713 197.887 225.373 198.129 225.084C198.371 224.791 198.674 224.562 199.037 224.398C199.4 224.234 199.826 224.152 200.314 224.152C200.834 224.152 201.289 224.252 201.68 224.451C202.074 224.65 202.383 224.936 202.605 225.307C202.832 225.674 202.947 226.109 202.951 226.613H201.363C201.359 226.402 201.314 226.211 201.229 226.039C201.146 225.867 201.025 225.73 200.865 225.629C200.709 225.523 200.516 225.471 200.285 225.471C200.039 225.471 199.838 225.523 199.682 225.629C199.525 225.73 199.404 225.871 199.318 226.051C199.232 226.227 199.172 226.428 199.137 226.654C199.105 226.877 199.09 227.111 199.09 227.357V227.527C199.09 227.773 199.105 228.01 199.137 228.236C199.168 228.463 199.227 228.664 199.312 228.84C199.402 229.016 199.525 229.154 199.682 229.256C199.838 229.357 200.041 229.408 200.291 229.408Z" fill="#5B4A46"/>
<defs>
<linearGradient id="paint0_linear_1611_148" x1="59.373" y1="61.3171" x2="81.9864" y2="92.5317" gradientUnits="userSpaceOnUse">
<stop stop-color="#FFF100"/>
<stop offset="1" stop-color="#FF8900"/>
</linearGradient>
<linearGradient id="paint1_linear_1611_148" x1="81.8888" y1="27.6438" x2="68.7146" y2="63.872" gradientUnits="userSpaceOnUse">
<stop stop-color="#FFF100"/>
<stop offset="1" stop-color="#FF8900"/>
</linearGradient>
<linearGradient id="paint2_linear_1611_148" x1="126.92" y1="29.9832" x2="88.9216" y2="36.3892" gradientUnits="userSpaceOnUse">
<stop stop-color="#FFF100"/>
<stop offset="1" stop-color="#FF8900"/>
</linearGradient>
<linearGradient id="paint3_linear_1611_148" x1="145.437" y1="69.5717" x2="121.363" y2="39.4707" gradientUnits="userSpaceOnUse">
<stop stop-color="#FFF100"/>
<stop offset="1" stop-color="#FF8900"/>
</linearGradient>
<linearGradient id="paint4_linear_1611_148" x1="119.516" y1="106.085" x2="134.637" y2="70.6239" gradientUnits="userSpaceOnUse">
<stop stop-color="#FFF100"/>
<stop offset="1" stop-color="#FF8900"/>
</linearGradient>
<linearGradient id="paint5_linear_1611_148" x1="76.7223" y1="100.566" x2="115.084" y2="96.9313" gradientUnits="userSpaceOnUse">
<stop stop-color="#FFF100"/>
<stop offset="1" stop-color="#FF8900"/>
</linearGradient>
</defs>
</svg>
