<svg width="30" height="30" viewBox="0 0 30 30" fill="none" xmlns="http://www.w3.org/2000/svg">
<path fill-rule="evenodd" clip-rule="evenodd" d="M18.7129 4.17963C16.2708 3.60679 13.7293 3.60679 11.2872 4.17963C7.76053 5.00687 5.00688 7.76052 4.17963 11.2872C3.60679 13.7293 3.60679 16.2708 4.17963 18.7129C5.00688 22.2395 7.76053 24.9931 11.2872 25.8204C13.7293 26.3933 16.2708 26.3933 18.7129 25.8204C22.2395 24.9931 24.9931 22.2395 25.8204 18.7129C26.3933 16.2708 26.3933 13.7293 25.8204 11.2872C24.9931 7.76053 22.2395 5.00687 18.7129 4.17963ZM10.6922 15C10.6922 12.6209 12.6209 10.6922 15 10.6922C17.3791 10.6922 19.3078 12.6209 19.3078 15C19.3078 17.3791 17.3791 19.3078 15 19.3078C12.6209 19.3078 10.6922 17.3791 10.6922 15ZM15 12.1282C13.4139 12.1282 12.1281 13.4139 12.1281 15C12.1281 16.5861 13.4139 17.8719 15 17.8719C16.586 17.8719 17.8719 16.5861 17.8719 15C17.8719 13.4139 16.586 12.1282 15 12.1282ZM19.7864 10.8119C20.4473 10.8119 20.983 10.2761 20.983 9.61528C20.983 8.9544 20.4473 8.41867 19.7864 8.41867C19.1255 8.41867 18.5898 8.9544 18.5898 9.61528C18.5898 10.2761 19.1255 10.8119 19.7864 10.8119Z" fill="#725B98"/>
</svg>
