<svg width="42" height="41" viewBox="0 0 42 41" fill="none" xmlns="http://www.w3.org/2000/svg">
<g clip-path="url(#clip0_1573_1464)">
<path d="M1.16656 27.3678C1.15023 31.7506 4.69166 35.3185 9.07444 35.3349C13.4572 35.3512 17.0251 31.8098 17.0415 27.427C17.0578 23.0442 13.5164 19.4763 9.13357 19.46C7.82108 19.4551 6.60887 19.7943 5.51303 20.3527C6.94232 14.1705 12.4986 9.55056 19.108 9.57518C20.2017 9.57925 21.0956 8.69195 21.0997 7.59821C21.1038 6.50446 20.2165 5.61053 19.1227 5.60645C9.26344 5.56973 1.21801 13.5554 1.18129 23.4147L1.16656 27.3678ZM20.9945 27.4417C20.9782 31.8245 24.5196 35.3924 28.9024 35.4087C33.2852 35.425 36.8531 31.8836 36.8694 27.5008C36.8858 23.1181 33.3443 19.5502 28.9616 19.5338C27.6491 19.5289 26.4369 19.8682 25.341 20.4266C26.7703 14.2444 32.3266 9.62442 38.936 9.64904C40.0297 9.65311 40.9236 8.76581 40.9277 7.67207C40.9318 6.57832 40.0445 5.68439 38.9507 5.68031C29.0914 5.64359 21.046 13.6293 21.0093 23.4886L20.9945 27.4417Z" fill="#6C5C89"/>
</g>
<defs>
<clipPath id="clip0_1573_1464">
<rect width="40" height="40" fill="white" transform="translate(40.9609 40.5703) rotate(-179.787)"/>
</clipPath>
</defs>
</svg>
