<svg width="44" height="45" viewBox="0 0 44 45" fill="none" xmlns="http://www.w3.org/2000/svg">
<rect x="0.5" y="1.12305" width="43" height="43" rx="21.5" fill="#FDF2FF"/>
<rect x="0.5" y="1.12305" width="43" height="43" rx="21.5" stroke="#B298DC"/>
<path d="M34 17.2891L29.2523 19.9267C26.6053 21.3972 25.2819 22.1325 23.8803 22.4208C22.6397 22.6759 21.3603 22.6759 20.1197 22.4208C18.7182 22.1325 17.3947 21.3972 14.7477 19.9267L10 17.2891M14.2667 31.9557H29.7333C31.2268 31.9557 31.9736 31.9557 32.544 31.6651C33.0457 31.4095 33.4537 31.0015 33.7093 30.4997C34 29.9293 34 29.1825 34 27.6891V17.5557C34 16.0623 34 15.3155 33.7093 14.7451C33.4537 14.2433 33.0457 13.8354 32.544 13.5797C31.9736 13.2891 31.2268 13.2891 29.7333 13.2891H14.2667C12.7732 13.2891 12.0265 13.2891 11.456 13.5797C10.9543 13.8354 10.5463 14.2433 10.2907 14.7451C10 15.3155 10 16.0622 10 17.5557V27.6891C10 29.1825 10 29.9293 10.2907 30.4997C10.5463 31.0015 10.9543 31.4095 11.456 31.6651C12.0265 31.9557 12.7732 31.9557 14.2667 31.9557Z" stroke="#997EC1" stroke-width="2" stroke-linejoin="round"/>
</svg>
