<svg width="44" height="43" viewBox="0 0 44 43" fill="none" xmlns="http://www.w3.org/2000/svg">
<rect x="0.5" y="0.740234" width="43" height="41.768" rx="20.884" fill="#FDF2FF"/>
<rect x="0.5" y="0.740234" width="43" height="41.768" rx="20.884" stroke="#B298DC"/>
<path d="M26.466 25.7978L27.0265 25.2404L25.7248 23.9313L25.1644 24.4887L26.466 25.7978ZM28.909 25.0069L31.2602 26.2851L32.1419 24.6633L29.7906 23.3851L28.909 25.0069ZM31.7128 28.8255L29.9645 30.5638L31.2661 31.8729L33.0144 30.1346L31.7128 28.8255ZM28.8993 31.1235C27.1149 31.2898 22.4984 31.1416 17.5 26.1716L16.1984 27.4807C21.6529 32.9042 26.8443 33.1691 29.0706 32.9616L28.8993 31.1235ZM17.5 26.1716C12.7356 21.4343 11.9464 17.4498 11.8481 15.7211L10.0051 15.8259C10.1287 18.0015 11.106 22.4172 16.1984 27.4807L17.5 26.1716ZM19.1926 18.5657L19.5456 18.2147L18.244 16.9057L17.891 17.2566L19.1926 18.5657ZM19.8266 13.7409L18.2747 11.668L16.7969 12.7743L18.3488 14.8472L19.8266 13.7409ZM13.0554 11.2168L11.1237 13.1375L12.4253 14.4465L14.357 12.5258L13.0554 11.2168ZM18.5418 17.9112C17.891 17.2566 17.8902 17.2575 17.8893 17.2584C17.889 17.2587 17.8881 17.2596 17.8875 17.2602C17.8863 17.2614 17.8851 17.2626 17.8838 17.2639C17.8813 17.2665 17.8787 17.2691 17.8761 17.2719C17.8707 17.2774 17.8651 17.2834 17.8592 17.2898C17.8473 17.3027 17.8343 17.3174 17.8203 17.3341C17.7924 17.3674 17.7608 17.4084 17.7276 17.4574C17.6609 17.5557 17.5884 17.6857 17.5268 17.8492C17.4011 18.1828 17.3337 18.6225 17.4182 19.167C17.5834 20.2319 18.3168 21.6386 20.1954 23.5065L21.497 22.1974C19.7389 20.4493 19.3201 19.3855 19.2423 18.884C19.2053 18.6454 19.2437 18.5279 19.2543 18.5001C19.2607 18.4829 19.2638 18.4811 19.2559 18.4929C19.2519 18.4986 19.2454 18.5076 19.2352 18.5197C19.2302 18.5258 19.2241 18.5327 19.2171 18.5403C19.2136 18.5442 19.2099 18.5482 19.2057 18.5524C19.2037 18.5545 19.2016 18.5567 19.1994 18.5589C19.1983 18.56 19.1972 18.5611 19.1961 18.5622C19.1956 18.5628 19.1947 18.5637 19.1944 18.564C19.1935 18.5648 19.1926 18.5657 18.5418 17.9112ZM20.1954 23.5065C22.0746 25.375 23.4878 26.1022 24.5545 26.2659C25.0995 26.3495 25.539 26.2828 25.8724 26.1586C26.0358 26.0977 26.166 26.0259 26.2645 25.96C26.3137 25.927 26.3548 25.8956 26.3882 25.8679C26.4049 25.8541 26.4197 25.8412 26.4326 25.8294C26.4391 25.8235 26.4452 25.8179 26.4507 25.8127C26.4535 25.8099 26.4561 25.8074 26.4587 25.8049C26.4599 25.8037 26.4612 25.8024 26.4624 25.8012C26.463 25.8006 26.464 25.7997 26.4642 25.7995C26.4651 25.7986 26.466 25.7978 25.8152 25.1432C25.1644 24.4887 25.1652 24.4878 25.1661 24.487C25.1664 24.4867 25.1672 24.4859 25.1678 24.4852C25.1689 24.4841 25.17 24.483 25.1712 24.4819C25.1735 24.4798 25.1756 24.4777 25.1777 24.4756C25.182 24.4716 25.186 24.4679 25.1899 24.4643C25.1975 24.4574 25.2044 24.4514 25.2105 24.4465C25.2226 24.4364 25.2316 24.43 25.2371 24.4262C25.2486 24.4185 25.2462 24.422 25.228 24.4288C25.1979 24.44 25.0771 24.4785 24.8344 24.4412C24.3258 24.3633 23.2545 23.9449 21.497 22.1974L20.1954 23.5065ZM18.2747 11.668C17.0203 9.99228 14.5535 9.72713 13.0554 11.2168L14.357 12.5258C15.0113 11.8752 16.1734 11.9414 16.7969 12.7743L18.2747 11.668ZM11.8481 15.7211C11.8239 15.2952 12.0193 14.8502 12.4253 14.4465L11.1237 13.1375C10.4624 13.795 9.94257 14.7258 10.0051 15.8259L11.8481 15.7211ZM29.9645 30.5638C29.6263 30.9002 29.2638 31.0896 28.8993 31.1235L29.0706 32.9616C29.9746 32.8773 30.7154 32.4206 31.2661 31.8729L29.9645 30.5638ZM19.5456 18.2147C20.7572 17.01 20.8473 15.1044 19.8266 13.7409L18.3488 14.8472C18.8453 15.5106 18.7715 16.3812 18.244 16.9057L19.5456 18.2147ZM31.2602 26.2851C32.2666 26.8323 32.4234 28.1188 31.7128 28.8255L33.0144 30.1346C34.6639 28.4944 34.1552 25.7578 32.1419 24.6633L31.2602 26.2851ZM27.0265 25.2404C27.4991 24.7705 28.2598 24.6541 28.909 25.0069L29.7906 23.3851C28.4571 22.6601 26.8021 22.8604 25.7248 23.9313L27.0265 25.2404Z" fill="#997EC1"/>
</svg>
