<svg width="44" height="45" viewBox="0 0 44 45" fill="none" xmlns="http://www.w3.org/2000/svg">
<rect x="0.5" y="1.06836" width="43" height="43.1089" rx="21.5" fill="#FDF2FF"/>
<rect x="0.5" y="1.06836" width="43" height="43.1089" rx="21.5" stroke="#B298DC"/>
<path d="M10 34.6773L11.7015 28.4923C10.656 26.6778 10.107 24.62 10.1097 22.5259C10.0976 15.9272 15.4564 10.5684 22.0424 10.5684C25.2389 10.5684 28.2402 11.8076 30.5 14.0682C31.614 15.1764 32.4969 16.4945 33.0977 17.9463C33.6985 19.3982 34.0051 20.9547 33.9999 22.5259C33.9999 29.112 28.6411 34.4708 22.0545 34.4708C20.0496 34.4708 18.093 33.9722 16.3431 33.0128L10 34.6773ZM16.623 30.8619L16.9877 31.0805C18.5183 31.9862 20.2639 32.4646 22.0424 32.4658C27.5108 32.4658 31.9708 28.0066 31.9708 22.5373C31.9708 19.8886 30.9381 17.3858 29.0663 15.5148C28.1459 14.5892 27.0514 13.8548 25.8459 13.3542C24.6404 12.8535 23.3477 12.5963 22.0424 12.5975C16.5618 12.5982 12.1032 17.0575 12.1032 22.5266C12.1032 24.3977 12.626 26.2331 13.6224 27.8129L13.8531 28.1896L12.8446 31.8589L16.623 30.8619Z" fill="#997EC1"/>
<path fill-rule="evenodd" clip-rule="evenodd" d="M19.063 17.5189C18.8444 17.0203 18.6015 17.0082 18.395 17.0082C18.2126 16.9961 18.0175 16.9961 17.8109 16.9961C17.6172 16.9961 17.2889 17.0687 17.0097 17.3729C16.7298 17.6763 15.9648 18.3935 15.9648 19.8635C15.9648 21.3343 17.0339 22.7559 17.1799 22.9503C17.3252 23.1448 19.2454 26.2551 22.2837 27.4587C24.8107 28.4551 25.3214 28.2607 25.8683 28.1995C26.4146 28.1389 27.6305 27.4829 27.8854 26.7779C28.1283 26.0856 28.1283 25.478 28.0556 25.3562C27.9829 25.2351 27.7757 25.1617 27.4845 25.0037C27.1803 24.8583 25.7224 24.129 25.4432 24.0315C25.1633 23.9346 24.9688 23.8861 24.7744 24.1775C24.58 24.4816 24.0087 25.1497 23.8272 25.3441C23.6562 25.5386 23.4746 25.5628 23.1826 25.4168C22.8792 25.2714 21.9191 24.9552 20.7767 23.9346C19.8892 23.1441 19.2938 22.1604 19.1115 21.8692C18.942 21.565 19.0872 21.4069 19.2454 21.2609C19.3793 21.1277 19.5495 20.909 19.6955 20.7388C19.8407 20.5679 19.8892 20.4347 19.9989 20.2403C20.0958 20.0458 20.0474 19.8635 19.9747 19.7182C19.9014 19.5843 19.3308 18.1143 19.063 17.5189Z" fill="#997EC1"/>
</svg>
